%TF.GenerationSoftware,KiCad,Pcbnew,10.0.4*%
%TF.CreationDate,2026-06-25T22:40:47+03:00*%
%TF.ProjectId,POWERBANK_CLEAN2,504f5745-5242-4414-9e4b-5f434c45414e,rev?*%
%TF.SameCoordinates,Original*%
%TF.FileFunction,Copper,L2,Bot*%
%TF.FilePolarity,Positive*%
%FSLAX46Y46*%
G04 Gerber Fmt 4.6, Leading zero omitted, Abs format (unit mm)*
G04 Created by KiCad (PCBNEW 10.0.4) date 2026-06-25 22:40:47*
%MOMM*%
%LPD*%
G01*
G04 APERTURE LIST*
G04 Aperture macros list*
%AMRoundRect*
0 Rectangle with rounded corners*
0 $1 Rounding radius*
0 $2 $3 $4 $5 $6 $7 $8 $9 X,Y pos of 4 corners*
0 Add a 4 corners polygon primitive as box body*
4,1,4,$2,$3,$4,$5,$6,$7,$8,$9,$2,$3,0*
0 Add four circle primitives for the rounded corners*
1,1,$1+$1,$2,$3*
1,1,$1+$1,$4,$5*
1,1,$1+$1,$6,$7*
1,1,$1+$1,$8,$9*
0 Add four rect primitives between the rounded corners*
20,1,$1+$1,$2,$3,$4,$5,0*
20,1,$1+$1,$4,$5,$6,$7,0*
20,1,$1+$1,$6,$7,$8,$9,0*
20,1,$1+$1,$8,$9,$2,$3,0*%
G04 Aperture macros list end*
%TA.AperFunction,ComponentPad*%
%ADD10O,2.100000X1.000000*%
%TD*%
%TA.AperFunction,ComponentPad*%
%ADD11O,1.600000X1.000000*%
%TD*%
%TA.AperFunction,ComponentPad*%
%ADD12RoundRect,0.250000X-1.050000X1.050000X-1.050000X-1.050000X1.050000X-1.050000X1.050000X1.050000X0*%
%TD*%
%TA.AperFunction,ComponentPad*%
%ADD13C,2.600000*%
%TD*%
%TA.AperFunction,ComponentPad*%
%ADD14C,6.400000*%
%TD*%
%TA.AperFunction,ComponentPad*%
%ADD15R,1.700000X1.700000*%
%TD*%
%TA.AperFunction,ComponentPad*%
%ADD16C,1.700000*%
%TD*%
%TA.AperFunction,ComponentPad*%
%ADD17RoundRect,0.250000X-1.050000X-1.050000X1.050000X-1.050000X1.050000X1.050000X-1.050000X1.050000X0*%
%TD*%
%TA.AperFunction,ViaPad*%
%ADD18C,0.600000*%
%TD*%
%TA.AperFunction,Conductor*%
%ADD19C,0.200000*%
%TD*%
G04 APERTURE END LIST*
D10*
%TO.P,J2,SH,SHIELD_SH*%
%TO.N,GND*%
X91725200Y-117092000D03*
D11*
X87545200Y-117092000D03*
D10*
X91725200Y-125732000D03*
D11*
X87545200Y-125732000D03*
%TD*%
D12*
%TO.P,BT1,1,+_1*%
%TO.N,VBAT*%
X94112300Y-90673000D03*
D13*
%TO.P,BT1,2,-_2*%
%TO.N,GND*%
X94112300Y-95753000D03*
%TD*%
D14*
%TO.P,REF\u002A\u002A,1*%
%TO.N,N/C*%
X169468800Y-139852400D03*
%TD*%
D15*
%TO.P,J1,1,Pin_1_1*%
%TO.N,Net-(J1-Pin_1)*%
X170637200Y-102976600D03*
D16*
%TO.P,J1,2,Pin_2_2*%
%TO.N,Net-(J1-Pin_2)*%
X170637200Y-100436600D03*
%TD*%
D14*
%TO.P,REF\u002A\u002A,1*%
%TO.N,N/C*%
X95046800Y-105765600D03*
%TD*%
%TO.P,REF\u002A\u002A,1*%
%TO.N,N/C*%
X93980000Y-56997600D03*
%TD*%
D17*
%TO.P,K1,1*%
%TO.N,GND*%
X136499600Y-42672000D03*
D13*
%TO.P,K1,2*%
%TO.N,VCC*%
X141579600Y-42672000D03*
%TD*%
D14*
%TO.P,REF\u002A\u002A,1*%
%TO.N,N/C*%
X170230800Y-39370000D03*
%TD*%
D15*
%TO.P,TH2,1*%
%TO.N,Net-(U3-NTC)*%
X170891200Y-91851400D03*
D16*
%TO.P,TH2,2*%
%TO.N,GND*%
X170891200Y-89311400D03*
%TD*%
D18*
%TO.N,VBAT*%
X164947600Y-79095600D03*
X142392400Y-72339200D03*
X146313600Y-69377719D03*
X156108400Y-104394000D03*
X117754400Y-120814616D03*
X126390400Y-119075200D03*
X121056400Y-114401600D03*
X126898400Y-120700800D03*
X109880400Y-90170000D03*
X95312287Y-90678791D03*
X110744000Y-136702800D03*
X115174048Y-121820108D03*
X155956000Y-59842400D03*
X142341600Y-55473600D03*
X110540800Y-88950800D03*
X154228800Y-99669600D03*
X120802400Y-112776000D03*
%TO.N,GND*%
X111099600Y-131775200D03*
X97586800Y-132486400D03*
X159054800Y-66954400D03*
X157480000Y-62788800D03*
X138938000Y-112674400D03*
X94792800Y-124714000D03*
X109592842Y-125282000D03*
X140208000Y-69392800D03*
X165150800Y-62788800D03*
X159816800Y-62839600D03*
X106121200Y-133096000D03*
X121869200Y-66395600D03*
X159918400Y-65074800D03*
X133146800Y-73609200D03*
X136245600Y-97942400D03*
X98856800Y-128879600D03*
X152501600Y-106934000D03*
X134467600Y-104038400D03*
%TO.N,/VBUS*%
X113100200Y-119614616D03*
X148844000Y-54102000D03*
X124561600Y-65786000D03*
X111324369Y-88789485D03*
%TO.N,/DMC*%
X94589600Y-122774000D03*
X105290936Y-121931555D03*
%TO.N,/CC2*%
X106085855Y-122021600D03*
X94589600Y-123574003D03*
%TO.N,/VSYS*%
X117357600Y-124663200D03*
X158292800Y-82905600D03*
X114150202Y-124510800D03*
X107647838Y-124451082D03*
X136042400Y-103479600D03*
X107669832Y-125040233D03*
X95351600Y-136245600D03*
X127711200Y-122679202D03*
X160680400Y-84531200D03*
X116738400Y-134975600D03*
X115011200Y-125018800D03*
X145542000Y-93726000D03*
%TO.N,Net-(U2-CSP)*%
X117459200Y-81178400D03*
X132435600Y-53228800D03*
X126695200Y-62601600D03*
X141630400Y-54457600D03*
%TO.N,Net-(D1-K)*%
X116064935Y-132864665D03*
X110134400Y-127000000D03*
%TO.N,Net-(D1-A)*%
X141427200Y-99110800D03*
X138633200Y-101549200D03*
%TO.N,Net-(D8-D)*%
X122631200Y-77266800D03*
X118659200Y-77266800D03*
%TO.N,Net-(U2-VG)*%
X160680400Y-58928000D03*
X136804400Y-52070000D03*
%TO.N,Net-(D7-K)*%
X136804400Y-71475600D03*
X136006218Y-64601600D03*
%TO.N,Net-(D6-K)*%
X137718800Y-64201600D03*
X137718800Y-65786000D03*
%TO.N,Net-(U2-COM)*%
X118059200Y-83058000D03*
X136804400Y-64201600D03*
%TO.N,Net-(U2-MPPT)*%
X147513600Y-58928000D03*
X152552400Y-61722000D03*
%TO.N,VCC*%
X146313600Y-70408800D03*
X141528800Y-45212000D03*
X142849600Y-53492400D03*
X133146800Y-113741200D03*
%TO.N,Net-(D8-G)*%
X115214400Y-72034400D03*
X141884400Y-52476400D03*
%TO.N,Net-(D3-A)*%
X140614400Y-103581200D03*
X139687085Y-105270515D03*
%TO.N,Net-(C21-Pad2)*%
X146253200Y-68580000D03*
X147513600Y-66090800D03*
X116179600Y-86512400D03*
X155966999Y-58962255D03*
%TO.N,/LIGHT*%
X135331200Y-90779600D03*
X117957600Y-124107000D03*
X123291600Y-120814616D03*
X125425200Y-117906800D03*
%TO.N,/VMID*%
X139436400Y-73210473D03*
X159951335Y-97647200D03*
X156708400Y-103784400D03*
X141732000Y-122072400D03*
X140191965Y-74151965D03*
X147513600Y-74320400D03*
X154533600Y-83566000D03*
X157988000Y-86918800D03*
X124460000Y-69138800D03*
X148488400Y-55067200D03*
%TO.N,Net-(U3-COMM-)*%
X150926800Y-102971600D03*
X153974800Y-102463600D03*
%TO.N,/KEY*%
X115773200Y-122907000D03*
X111963200Y-115265200D03*
%TO.N,Net-(R1-Pad2)*%
X105460800Y-107797600D03*
X111556800Y-107594400D03*
%TO.N,Net-(U3-LED)*%
X157508489Y-100866489D03*
X159806595Y-98847200D03*
%TO.N,Net-(C11-Pad2)*%
X112568291Y-126854453D03*
X115011200Y-130505200D03*
%TO.N,Net-(U1-L2)*%
X128607735Y-122679202D03*
X118922800Y-133464665D03*
%TO.N,Net-(U1-NTC)*%
X108712000Y-108194400D03*
X106702099Y-125159436D03*
%TO.N,Net-(U1-L1)*%
X107285855Y-123737660D03*
X116586000Y-122907000D03*
%TO.N,Net-(U1-RSET)*%
X116211200Y-126238000D03*
X118110000Y-135991600D03*
X106085855Y-115824000D03*
X111585200Y-136538632D03*
%TO.N,/VREG*%
X116716013Y-87112400D03*
X142138400Y-75590400D03*
%TO.N,/VBUSG*%
X112563200Y-119021632D03*
X146913600Y-53136800D03*
X137515600Y-119989600D03*
X136296400Y-120446800D03*
%TD*%
%TO.N,VBAT*%
D19*
X142341600Y-55473600D02*
X146078400Y-51736800D01*
X145353881Y-69377719D02*
X146313600Y-69377719D01*
X133756400Y-125984000D02*
X133654800Y-125882400D01*
X144932400Y-125882400D02*
X156108400Y-114706400D01*
X115174048Y-121820108D02*
X116748908Y-121820108D01*
X110744000Y-136702800D02*
X111709200Y-137668000D01*
X95312287Y-90678791D02*
X109371609Y-90678791D01*
X160324800Y-98247200D02*
X164947600Y-93624400D01*
X155956000Y-59799785D02*
X155956000Y-59842400D01*
X121056400Y-114401600D02*
X125730000Y-119075200D01*
X146078400Y-51736800D02*
X147893015Y-51736800D01*
X156108400Y-114706400D02*
X156108400Y-104394000D01*
X127711200Y-120700800D02*
X132892800Y-125882400D01*
X147893015Y-51736800D02*
X155956000Y-59799785D01*
X125730000Y-119075200D02*
X126390400Y-119075200D01*
X154228800Y-99669600D02*
X155651200Y-98247200D01*
X120802400Y-99212400D02*
X120802400Y-112776000D01*
X109371609Y-90678791D02*
X109880400Y-90170000D01*
X155651200Y-98247200D02*
X160324800Y-98247200D01*
X132892800Y-125882400D02*
X133654800Y-125882400D01*
X126898400Y-120700800D02*
X127711200Y-120700800D01*
X116748908Y-121820108D02*
X117754400Y-120814616D01*
X133756400Y-137668000D02*
X133756400Y-125984000D01*
X133654800Y-125882400D02*
X144932400Y-125882400D01*
X164947600Y-93624400D02*
X164947600Y-79095600D01*
X111709200Y-137668000D02*
X133756400Y-137668000D01*
X110540800Y-88950800D02*
X120802400Y-99212400D01*
X142392400Y-72339200D02*
X145353881Y-69377719D01*
%TO.N,GND*%
X159054800Y-64363600D02*
X159054800Y-66954400D01*
X96875600Y-126796800D02*
X97586800Y-126796800D01*
X159816800Y-62839600D02*
X159816800Y-64973200D01*
X94792800Y-124714000D02*
X96875600Y-126796800D01*
X97586800Y-132486400D02*
X97586800Y-126796800D01*
X109474000Y-125400842D02*
X109474000Y-130149600D01*
X157480000Y-62788800D02*
X159054800Y-64363600D01*
X134467600Y-108204000D02*
X138938000Y-112674400D01*
X109592842Y-125282000D02*
X109474000Y-125400842D01*
X159816800Y-64973200D02*
X159918400Y-65074800D01*
X134467600Y-104038400D02*
X134467600Y-108204000D01*
X109474000Y-130149600D02*
X111099600Y-131775200D01*
%TO.N,/VBUS*%
X140919200Y-63601600D02*
X124612400Y-63601600D01*
X124612400Y-65735200D02*
X124561600Y-65786000D01*
X121402400Y-98867516D02*
X111324369Y-88789485D01*
X124612400Y-63601600D02*
X124612400Y-65735200D01*
X148844000Y-54102000D02*
X147278800Y-52536800D01*
X121402400Y-113024529D02*
X121402400Y-98867516D01*
X146304000Y-52897871D02*
X146304000Y-62331600D01*
X142189200Y-62331600D02*
X140919200Y-63601600D01*
X113100200Y-119614616D02*
X114812313Y-119614616D01*
X146304000Y-62331600D02*
X142189200Y-62331600D01*
X146665071Y-52536800D02*
X146304000Y-52897871D01*
X114812313Y-119614616D02*
X121402400Y-113024529D01*
X147278800Y-52536800D02*
X146665071Y-52536800D01*
%TO.N,/DMC*%
X104018981Y-122774000D02*
X94589600Y-122774000D01*
X105290936Y-121931555D02*
X105076181Y-121716800D01*
X105076181Y-121716800D02*
X104018981Y-122774000D01*
%TO.N,/CC2*%
X106085855Y-122021600D02*
X104533452Y-123574003D01*
X104533452Y-123574003D02*
X94589600Y-123574003D01*
%TO.N,/VSYS*%
X114150202Y-124510800D02*
X107707556Y-124510800D01*
X117408400Y-124714000D02*
X125676402Y-124714000D01*
X116738400Y-134975600D02*
X116738400Y-132689600D01*
X95554800Y-136448800D02*
X95351600Y-136245600D01*
X116738400Y-132689600D02*
X115570000Y-131521200D01*
X115611200Y-125618800D02*
X115011200Y-125018800D01*
X115611200Y-131480000D02*
X115611200Y-125618800D01*
X159918400Y-84531200D02*
X158292800Y-82905600D01*
X117357600Y-124663200D02*
X117408400Y-124714000D01*
X136042400Y-103479600D02*
X136042400Y-103225600D01*
X125676402Y-124714000D02*
X127711200Y-122679202D01*
X136042400Y-103225600D02*
X145542000Y-93726000D01*
X160680400Y-84531200D02*
X159918400Y-84531200D01*
X96261265Y-136448800D02*
X95554800Y-136448800D01*
X115570000Y-131521200D02*
X115611200Y-131480000D01*
X107707556Y-124510800D02*
X107647838Y-124451082D01*
X96261265Y-136448800D02*
X107669832Y-125040233D01*
%TO.N,Net-(U2-CSP)*%
X126695200Y-62601600D02*
X124481030Y-62601600D01*
X141122400Y-53949600D02*
X141122400Y-53070000D01*
X132934000Y-53070000D02*
X132892800Y-53028800D01*
X132892800Y-53028800D02*
X132692800Y-53228800D01*
X117459200Y-74647600D02*
X117459200Y-81178400D01*
X123561600Y-63521030D02*
X123561600Y-68545200D01*
X141122400Y-53070000D02*
X132934000Y-53070000D01*
X132692800Y-53228800D02*
X132435600Y-53228800D01*
X141630400Y-54457600D02*
X141122400Y-53949600D01*
X124481030Y-62601600D02*
X123561600Y-63521030D01*
X123561600Y-68545200D02*
X117459200Y-74647600D01*
%TO.N,Net-(D1-K)*%
X116064935Y-132864665D02*
X115999065Y-132864665D01*
X115999065Y-132864665D02*
X110134400Y-127000000D01*
%TO.N,Net-(D1-A)*%
X141071600Y-99110800D02*
X138633200Y-101549200D01*
X141427200Y-99110800D02*
X141071600Y-99110800D01*
%TO.N,Net-(D8-D)*%
X118659200Y-77266800D02*
X122631200Y-77266800D01*
%TO.N,Net-(U2-VG)*%
X141280271Y-44612000D02*
X146364400Y-44612000D01*
X136804400Y-49087871D02*
X141280271Y-44612000D01*
X146364400Y-44612000D02*
X160680400Y-58928000D01*
X136804400Y-52070000D02*
X136804400Y-49087871D01*
%TO.N,Net-(D7-K)*%
X136006218Y-64601600D02*
X136804400Y-65399782D01*
X136804400Y-65399782D02*
X136804400Y-71475600D01*
%TO.N,Net-(D6-K)*%
X137718800Y-64201600D02*
X137718800Y-65786000D01*
%TO.N,Net-(U2-COM)*%
X124708529Y-69738800D02*
X124510800Y-69738800D01*
X125012400Y-64001600D02*
X125161600Y-64150800D01*
X125161600Y-69285729D02*
X124708529Y-69738800D01*
X136604400Y-64001600D02*
X125012400Y-64001600D01*
X124510800Y-69738800D02*
X118059200Y-76190400D01*
X125161600Y-64150800D02*
X125161600Y-69285729D01*
X136804400Y-64201600D02*
X136604400Y-64001600D01*
X118059200Y-76190400D02*
X118059200Y-83058000D01*
%TO.N,Net-(U2-MPPT)*%
X147513600Y-58928000D02*
X149758400Y-58928000D01*
X149758400Y-58928000D02*
X152552400Y-61722000D01*
%TO.N,VCC*%
X143198314Y-113741200D02*
X146513600Y-110425914D01*
X141528800Y-45212000D02*
X142849600Y-46532800D01*
X133146800Y-113741200D02*
X143198314Y-113741200D01*
X146513600Y-110425914D02*
X146313600Y-110225914D01*
X142849600Y-46532800D02*
X142849600Y-53492400D01*
X146313600Y-110225914D02*
X146313600Y-70408800D01*
%TO.N,Net-(D8-G)*%
X119278400Y-52628800D02*
X115671600Y-56235600D01*
X115265200Y-72085200D02*
X115214400Y-72034400D01*
X115671600Y-72085200D02*
X115265200Y-72085200D01*
X141884400Y-52476400D02*
X141690800Y-52670000D01*
X135829600Y-52670000D02*
X135788400Y-52628800D01*
X135788400Y-52628800D02*
X119278400Y-52628800D01*
X115671600Y-56235600D02*
X115671600Y-72085200D01*
X141690800Y-52670000D02*
X135829600Y-52670000D01*
%TO.N,Net-(D3-A)*%
X140614400Y-104343200D02*
X139687085Y-105270515D01*
X140614400Y-103581200D02*
X140614400Y-104343200D01*
%TO.N,Net-(C21-Pad2)*%
X145846800Y-68580000D02*
X145186400Y-67919600D01*
X138836400Y-68529200D02*
X138836400Y-79451200D01*
X138836400Y-79451200D02*
X134569200Y-79451200D01*
X155966999Y-58962255D02*
X156556000Y-59551256D01*
X134569200Y-79451200D02*
X127508000Y-86512400D01*
X139446000Y-67919600D02*
X138836400Y-68529200D01*
X156556000Y-59551256D02*
X156556000Y-65440000D01*
X146253200Y-68580000D02*
X145846800Y-68580000D01*
X127508000Y-86512400D02*
X116179600Y-86512400D01*
X156556000Y-65440000D02*
X155905200Y-66090800D01*
X145186400Y-67919600D02*
X139446000Y-67919600D01*
X155905200Y-66090800D02*
X147513600Y-66090800D01*
%TO.N,/LIGHT*%
X125425200Y-117906800D02*
X132892800Y-110439200D01*
X117957600Y-124107000D02*
X119999216Y-124107000D01*
X119999216Y-124107000D02*
X123291600Y-120814616D01*
X132892800Y-90525600D02*
X135077200Y-90525600D01*
X135077200Y-90525600D02*
X135331200Y-90779600D01*
X132892800Y-110439200D02*
X132892800Y-90525600D01*
%TO.N,/VMID*%
X155869471Y-103784400D02*
X156708400Y-103784400D01*
X142080714Y-61874400D02*
X140753514Y-63201600D01*
X154533600Y-83566000D02*
X147513600Y-76546000D01*
X155508400Y-104145471D02*
X155869471Y-103784400D01*
X123961600Y-63686715D02*
X123961600Y-68640400D01*
X140191965Y-74151965D02*
X140191965Y-73966038D01*
X160359114Y-97647200D02*
X164547600Y-93458714D01*
X159951335Y-97647200D02*
X160359114Y-97647200D01*
X146499385Y-52136800D02*
X145897600Y-52738585D01*
X158007686Y-86918800D02*
X157988000Y-86918800D01*
X145897600Y-61874400D02*
X142080714Y-61874400D01*
X124446715Y-63201600D02*
X123961600Y-63686715D01*
X147727329Y-52136800D02*
X146499385Y-52136800D01*
X140191965Y-73966038D02*
X139436400Y-73210473D01*
X141732000Y-122072400D02*
X148176714Y-122072400D01*
X148176714Y-122072400D02*
X155708400Y-114540714D01*
X145897600Y-52738585D02*
X145897600Y-61874400D01*
X149444000Y-54350529D02*
X149444000Y-53853471D01*
X147513600Y-76546000D02*
X147513600Y-74320400D01*
X149444000Y-53853471D02*
X147727329Y-52136800D01*
X123961600Y-68640400D02*
X124460000Y-69138800D01*
X155508400Y-114340714D02*
X155508400Y-104145471D01*
X155708400Y-114540714D02*
X155508400Y-114340714D01*
X148488400Y-55067200D02*
X148727329Y-55067200D01*
X140753514Y-63201600D02*
X124446715Y-63201600D01*
X148727329Y-55067200D02*
X149444000Y-54350529D01*
X164547600Y-93458714D02*
X158007686Y-86918800D01*
%TO.N,Net-(U3-COMM-)*%
X153974800Y-102463600D02*
X153466800Y-102971600D01*
X153466800Y-102971600D02*
X150926800Y-102971600D01*
%TO.N,/KEY*%
X115711258Y-122845058D02*
X114830642Y-122845058D01*
X115773200Y-122907000D02*
X115711258Y-122845058D01*
X114830642Y-122845058D02*
X111963200Y-119977616D01*
X111963200Y-119977616D02*
X111963200Y-115265200D01*
%TO.N,Net-(R1-Pad2)*%
X105664000Y-107594400D02*
X105460800Y-107797600D01*
X111556800Y-107594400D02*
X105664000Y-107594400D01*
%TO.N,Net-(U3-LED)*%
X159806595Y-98847200D02*
X159527778Y-98847200D01*
X159527778Y-98847200D02*
X157508489Y-100866489D01*
%TO.N,Net-(C11-Pad2)*%
X112568291Y-128062291D02*
X112568291Y-126854453D01*
X115011200Y-130505200D02*
X112568291Y-128062291D01*
%TO.N,Net-(U1-L2)*%
X128607735Y-123779730D02*
X128607735Y-122679202D01*
X118922800Y-133464665D02*
X128607735Y-123779730D01*
%TO.N,Net-(U1-NTC)*%
X106685855Y-110220545D02*
X106685855Y-125143192D01*
X106685855Y-125143192D02*
X106702099Y-125159436D01*
X108712000Y-108194400D02*
X106685855Y-110220545D01*
%TO.N,Net-(U1-L1)*%
X116586000Y-123384848D02*
X116233188Y-123737660D01*
X116233188Y-123737660D02*
X107285855Y-123737660D01*
X116586000Y-122907000D02*
X116586000Y-123384848D01*
%TO.N,Net-(U1-RSET)*%
X118110000Y-128136800D02*
X116211200Y-126238000D01*
X94341071Y-137048800D02*
X108443255Y-137048800D01*
X93989600Y-122174000D02*
X93989600Y-136697329D01*
X111149368Y-136102800D02*
X111585200Y-136538632D01*
X93989600Y-122174000D02*
X99415600Y-122174000D01*
X105765600Y-115824000D02*
X106085855Y-115824000D01*
X108443255Y-137048800D02*
X109389255Y-136102800D01*
X99415600Y-122174000D02*
X105765600Y-115824000D01*
X93989600Y-136697329D02*
X94341071Y-137048800D01*
X118110000Y-135991600D02*
X118110000Y-128136800D01*
X109389255Y-136102800D02*
X111149368Y-136102800D01*
%TO.N,/VREG*%
X127624020Y-86962065D02*
X116578464Y-86962065D01*
X139236400Y-79616885D02*
X138890642Y-79962643D01*
X139236400Y-75590400D02*
X139236400Y-79616885D01*
X116578464Y-86974851D02*
X116716013Y-87112400D01*
X116578464Y-86962065D02*
X116578464Y-86974851D01*
X138890642Y-79962643D02*
X134623443Y-79962643D01*
X134623443Y-79962643D02*
X127624020Y-86962065D01*
X142138400Y-75590400D02*
X139236400Y-75590400D01*
%TO.N,/VBUSG*%
X112563200Y-119021632D02*
X112500200Y-119084632D01*
X112500200Y-119084632D02*
X112500200Y-119863145D01*
X135950400Y-120100800D02*
X136296400Y-120446800D01*
X126536055Y-120214616D02*
X126649871Y-120100800D01*
X112851671Y-120214616D02*
X126536055Y-120214616D01*
X126649871Y-120100800D02*
X135950400Y-120100800D01*
X146913600Y-110591600D02*
X137515600Y-119989600D01*
X146913600Y-53136800D02*
X146913600Y-110591600D01*
X112500200Y-119863145D02*
X112851671Y-120214616D01*
%TD*%
%TA.AperFunction,Conductor*%
%TO.N,GND*%
G36*
X116466690Y-124307480D02*
G01*
X116499849Y-124308270D01*
X116501433Y-124309342D01*
X116503347Y-124309445D01*
X116530259Y-124328852D01*
X116557712Y-124347432D01*
X116558465Y-124349191D01*
X116560019Y-124350312D01*
X116572159Y-124381168D01*
X116585217Y-124411660D01*
X116585121Y-124414115D01*
X116585600Y-124415330D01*
X116583711Y-124450573D01*
X116557100Y-124584353D01*
X116557100Y-124742046D01*
X116587861Y-124896689D01*
X116587864Y-124896701D01*
X116648202Y-125042372D01*
X116648209Y-125042385D01*
X116735810Y-125173488D01*
X116735813Y-125173492D01*
X116847307Y-125284986D01*
X116847311Y-125284989D01*
X116978414Y-125372590D01*
X116978427Y-125372597D01*
X117091465Y-125419418D01*
X117124103Y-125432937D01*
X117278753Y-125463699D01*
X117278756Y-125463700D01*
X117278758Y-125463700D01*
X117436444Y-125463700D01*
X117436445Y-125463699D01*
X117591097Y-125432937D01*
X117736779Y-125372594D01*
X117792447Y-125335398D01*
X117859125Y-125314520D01*
X117861338Y-125314500D01*
X125589733Y-125314500D01*
X125589749Y-125314501D01*
X125597345Y-125314501D01*
X125755456Y-125314501D01*
X125755459Y-125314501D01*
X125908187Y-125273577D01*
X125935907Y-125257572D01*
X126003806Y-125241098D01*
X126069833Y-125263949D01*
X126113025Y-125318869D01*
X126119669Y-125388422D01*
X126087654Y-125450525D01*
X126085590Y-125452639D01*
X118922181Y-132616049D01*
X118860858Y-132649534D01*
X118791166Y-132644550D01*
X118735233Y-132602678D01*
X118710816Y-132537214D01*
X118710500Y-132528368D01*
X118710500Y-128225860D01*
X118710501Y-128225847D01*
X118710501Y-128057744D01*
X118690536Y-127983234D01*
X118669577Y-127905016D01*
X118628908Y-127834574D01*
X118590524Y-127768090D01*
X118590518Y-127768082D01*
X117045773Y-126223337D01*
X117012288Y-126162014D01*
X117011837Y-126159847D01*
X117008896Y-126145062D01*
X116980937Y-126004503D01*
X116967499Y-125972060D01*
X116920597Y-125858827D01*
X116920590Y-125858814D01*
X116832989Y-125727711D01*
X116832986Y-125727707D01*
X116721492Y-125616213D01*
X116721488Y-125616210D01*
X116590385Y-125528609D01*
X116590372Y-125528602D01*
X116444701Y-125468264D01*
X116444689Y-125468261D01*
X116290045Y-125437500D01*
X116290042Y-125437500D01*
X116271516Y-125437500D01*
X116259998Y-125434118D01*
X116248049Y-125435259D01*
X116227094Y-125424456D01*
X116204477Y-125417815D01*
X116195064Y-125407944D01*
X116185946Y-125403243D01*
X116164129Y-125375500D01*
X116128448Y-125313699D01*
X116128448Y-125313698D01*
X116091724Y-125250090D01*
X116091721Y-125250086D01*
X116091720Y-125250084D01*
X115979916Y-125138280D01*
X115979915Y-125138279D01*
X115975585Y-125133949D01*
X115975574Y-125133939D01*
X115845774Y-125004139D01*
X115812289Y-124942816D01*
X115811838Y-124940649D01*
X115780938Y-124785310D01*
X115780937Y-124785303D01*
X115778844Y-124780250D01*
X115720597Y-124639627D01*
X115720590Y-124639614D01*
X115648050Y-124531051D01*
X115627172Y-124464374D01*
X115645656Y-124396993D01*
X115697635Y-124350303D01*
X115751152Y-124338160D01*
X116146519Y-124338160D01*
X116146535Y-124338161D01*
X116154131Y-124338161D01*
X116312242Y-124338161D01*
X116312245Y-124338161D01*
X116430003Y-124306607D01*
X116431915Y-124306652D01*
X116433578Y-124305706D01*
X116466690Y-124307480D01*
G37*
%TD.AperFunction*%
%TA.AperFunction,Conductor*%
G36*
X116416903Y-127293384D02*
G01*
X116423381Y-127299416D01*
X117473181Y-128349216D01*
X117506666Y-128410539D01*
X117509500Y-128436897D01*
X117509500Y-132361409D01*
X117489815Y-132428448D01*
X117437011Y-132474203D01*
X117367853Y-132484147D01*
X117304297Y-132455122D01*
X117278113Y-132423410D01*
X117255443Y-132384145D01*
X117255442Y-132384143D01*
X117218921Y-132320886D01*
X117218920Y-132320884D01*
X117107116Y-132209080D01*
X117107115Y-132209079D01*
X117102785Y-132204749D01*
X117102774Y-132204739D01*
X116248019Y-131349984D01*
X116214534Y-131288661D01*
X116211700Y-131262303D01*
X116211700Y-127387097D01*
X116231385Y-127320058D01*
X116284189Y-127274303D01*
X116353347Y-127264359D01*
X116416903Y-127293384D01*
G37*
%TD.AperFunction*%
%TA.AperFunction,Conductor*%
G36*
X126033647Y-120824058D02*
G01*
X126064551Y-120831361D01*
X126066937Y-120833833D01*
X126070231Y-120834801D01*
X126091012Y-120858783D01*
X126113067Y-120881640D01*
X126114611Y-120886019D01*
X126115986Y-120887605D01*
X126124809Y-120914924D01*
X126128661Y-120934291D01*
X126128664Y-120934301D01*
X126189002Y-121079972D01*
X126189009Y-121079985D01*
X126276610Y-121211088D01*
X126276613Y-121211092D01*
X126388107Y-121322586D01*
X126388111Y-121322589D01*
X126519214Y-121410190D01*
X126519227Y-121410197D01*
X126664898Y-121470535D01*
X126664903Y-121470537D01*
X126819553Y-121501299D01*
X126819556Y-121501300D01*
X126819558Y-121501300D01*
X126977244Y-121501300D01*
X126977245Y-121501299D01*
X127131897Y-121470537D01*
X127277579Y-121410194D01*
X127369075Y-121349057D01*
X127435750Y-121328181D01*
X127503130Y-121346665D01*
X127525645Y-121364480D01*
X127828186Y-121667021D01*
X127861671Y-121728344D01*
X127856687Y-121798036D01*
X127814815Y-121853969D01*
X127749351Y-121878386D01*
X127740505Y-121878702D01*
X127632355Y-121878702D01*
X127477710Y-121909463D01*
X127477698Y-121909466D01*
X127332027Y-121969804D01*
X127332014Y-121969811D01*
X127200911Y-122057412D01*
X127200907Y-122057415D01*
X127089413Y-122168909D01*
X127089410Y-122168913D01*
X127001809Y-122300016D01*
X127001802Y-122300029D01*
X126941464Y-122445700D01*
X126941461Y-122445710D01*
X126910561Y-122601052D01*
X126878176Y-122662963D01*
X126876625Y-122664541D01*
X125463986Y-124077181D01*
X125402663Y-124110666D01*
X125376305Y-124113500D01*
X121141313Y-124113500D01*
X121074274Y-124093815D01*
X121028519Y-124041011D01*
X121018575Y-123971853D01*
X121047600Y-123908297D01*
X121053632Y-123901819D01*
X122173661Y-122781790D01*
X123306262Y-121649188D01*
X123367583Y-121615705D01*
X123369750Y-121615254D01*
X123427685Y-121603729D01*
X123525097Y-121584353D01*
X123670779Y-121524010D01*
X123801889Y-121436405D01*
X123913389Y-121324905D01*
X124000994Y-121193795D01*
X124002559Y-121190018D01*
X124016142Y-121157224D01*
X124061337Y-121048113D01*
X124068951Y-121009837D01*
X124087831Y-120914924D01*
X124120216Y-120853013D01*
X124180932Y-120818439D01*
X124209448Y-120815116D01*
X126003192Y-120815116D01*
X126033647Y-120824058D01*
G37*
%TD.AperFunction*%
%TA.AperFunction,Conductor*%
G36*
X122209542Y-120834801D02*
G01*
X122255297Y-120887605D01*
X122265241Y-120956763D01*
X122236216Y-121020319D01*
X122230184Y-121026797D01*
X119786800Y-123470181D01*
X119725477Y-123503666D01*
X119699119Y-123506500D01*
X118537366Y-123506500D01*
X118470327Y-123486815D01*
X118468475Y-123485602D01*
X118336785Y-123397609D01*
X118336772Y-123397602D01*
X118191101Y-123337264D01*
X118191089Y-123337261D01*
X118036445Y-123306500D01*
X118036442Y-123306500D01*
X117878758Y-123306500D01*
X117878755Y-123306500D01*
X117724110Y-123337261D01*
X117724098Y-123337264D01*
X117578427Y-123397602D01*
X117578414Y-123397609D01*
X117450942Y-123482784D01*
X117384264Y-123503662D01*
X117316884Y-123485177D01*
X117270194Y-123433198D01*
X117259018Y-123364228D01*
X117278950Y-123310790D01*
X117295389Y-123286187D01*
X117295390Y-123286184D01*
X117295394Y-123286179D01*
X117355737Y-123140497D01*
X117386500Y-122985842D01*
X117386500Y-122828158D01*
X117386500Y-122828155D01*
X117386499Y-122828153D01*
X117377278Y-122781797D01*
X117355737Y-122673503D01*
X117325727Y-122601052D01*
X117295397Y-122527827D01*
X117295390Y-122527814D01*
X117207789Y-122396711D01*
X117207786Y-122396707D01*
X117202346Y-122391267D01*
X117198008Y-122383323D01*
X117190762Y-122377899D01*
X117181525Y-122353137D01*
X117168861Y-122329944D01*
X117169506Y-122320916D01*
X117166343Y-122312435D01*
X117171959Y-122286611D01*
X117173845Y-122260252D01*
X117179662Y-122251200D01*
X117181193Y-122244162D01*
X117202332Y-122215923D01*
X117202338Y-122215913D01*
X117229428Y-122188824D01*
X117229429Y-122188821D01*
X117769062Y-121649188D01*
X117830383Y-121615705D01*
X117832550Y-121615254D01*
X117890485Y-121603729D01*
X117987897Y-121584353D01*
X118133579Y-121524010D01*
X118264689Y-121436405D01*
X118376189Y-121324905D01*
X118463794Y-121193795D01*
X118465359Y-121190018D01*
X118478942Y-121157224D01*
X118524137Y-121048113D01*
X118531751Y-121009837D01*
X118550631Y-120914924D01*
X118583016Y-120853013D01*
X118643732Y-120818439D01*
X118672248Y-120815116D01*
X122142503Y-120815116D01*
X122209542Y-120834801D01*
G37*
%TD.AperFunction*%
%TA.AperFunction,Conductor*%
G36*
X105985548Y-116620230D02*
G01*
X106047458Y-116652616D01*
X106082032Y-116713332D01*
X106085355Y-116741847D01*
X106085355Y-121103752D01*
X106077081Y-121131928D01*
X106071476Y-121160754D01*
X106067351Y-121165065D01*
X106065670Y-121170791D01*
X106043480Y-121190018D01*
X106023177Y-121211242D01*
X106015784Y-121214017D01*
X106012866Y-121216546D01*
X105990390Y-121224305D01*
X105987968Y-121224888D01*
X105852358Y-121251863D01*
X105819555Y-121265449D01*
X105810114Y-121267724D01*
X105784526Y-121266462D01*
X105759060Y-121269200D01*
X105747797Y-121264652D01*
X105740329Y-121264284D01*
X105731810Y-121258196D01*
X105712188Y-121250273D01*
X105670120Y-121222164D01*
X105670108Y-121222157D01*
X105524437Y-121161819D01*
X105524425Y-121161816D01*
X105369781Y-121131055D01*
X105369778Y-121131055D01*
X105226635Y-121131055D01*
X105194543Y-121126830D01*
X105155240Y-121116299D01*
X105155239Y-121116299D01*
X105155238Y-121116299D01*
X104997124Y-121116299D01*
X104848251Y-121156190D01*
X104844396Y-121157223D01*
X104844394Y-121157224D01*
X104822943Y-121169607D01*
X104822944Y-121169608D01*
X104707468Y-121236277D01*
X104707463Y-121236281D01*
X103806565Y-122137181D01*
X103745242Y-122170666D01*
X103718884Y-122173500D01*
X100564697Y-122173500D01*
X100497658Y-122153815D01*
X100451903Y-122101011D01*
X100441959Y-122031853D01*
X100470984Y-121968297D01*
X100477016Y-121961819D01*
X101783488Y-120655347D01*
X105799437Y-116639396D01*
X105860758Y-116605913D01*
X105911303Y-116605462D01*
X105985548Y-116620230D01*
G37*
%TD.AperFunction*%
%TA.AperFunction,Conductor*%
G36*
X114895928Y-120818290D02*
G01*
X114907134Y-120817086D01*
X114928855Y-120827959D01*
X114952156Y-120834801D01*
X114959534Y-120843315D01*
X114969613Y-120848361D01*
X114982007Y-120869251D01*
X114997911Y-120887605D01*
X114999514Y-120898759D01*
X115005265Y-120908451D01*
X115004398Y-120932721D01*
X115007855Y-120956763D01*
X115003173Y-120967014D01*
X115002771Y-120978276D01*
X114988919Y-120998225D01*
X114978830Y-121020319D01*
X114968316Y-121027900D01*
X114962923Y-121035668D01*
X114932569Y-121053677D01*
X114794875Y-121110710D01*
X114794862Y-121110717D01*
X114663759Y-121198318D01*
X114663755Y-121198321D01*
X114552261Y-121309815D01*
X114472931Y-121428540D01*
X114419318Y-121473344D01*
X114349993Y-121482051D01*
X114286966Y-121451896D01*
X114282148Y-121447329D01*
X113861616Y-121026797D01*
X113828131Y-120965474D01*
X113833115Y-120895782D01*
X113874987Y-120839849D01*
X113940451Y-120815432D01*
X113949297Y-120815116D01*
X114885117Y-120815116D01*
X114895928Y-120818290D01*
G37*
%TD.AperFunction*%
%TA.AperFunction,Conductor*%
G36*
X116672342Y-120834801D02*
G01*
X116718097Y-120887605D01*
X116728041Y-120956763D01*
X116699016Y-121020319D01*
X116692984Y-121026797D01*
X116536492Y-121183289D01*
X116475169Y-121216774D01*
X116448811Y-121219608D01*
X115753814Y-121219608D01*
X115686775Y-121199923D01*
X115684923Y-121198710D01*
X115553233Y-121110717D01*
X115553220Y-121110710D01*
X115415527Y-121053677D01*
X115361123Y-121009837D01*
X115339058Y-120943542D01*
X115356337Y-120875843D01*
X115407474Y-120828232D01*
X115462979Y-120815116D01*
X116605303Y-120815116D01*
X116672342Y-120834801D01*
G37*
%TD.AperFunction*%
%TA.AperFunction,Conductor*%
G36*
X120416416Y-114934015D02*
G01*
X120442776Y-114935901D01*
X120451829Y-114941719D01*
X120458869Y-114943251D01*
X120487123Y-114964402D01*
X120546107Y-115023386D01*
X120546111Y-115023389D01*
X120677214Y-115110990D01*
X120677227Y-115110997D01*
X120822898Y-115171335D01*
X120822903Y-115171337D01*
X120887547Y-115184195D01*
X120978249Y-115202238D01*
X121040160Y-115234623D01*
X121041739Y-115236174D01*
X125207999Y-119402435D01*
X125241484Y-119463758D01*
X125236500Y-119533450D01*
X125194628Y-119589383D01*
X125129164Y-119613800D01*
X125120318Y-119614116D01*
X115961410Y-119614116D01*
X115894371Y-119594431D01*
X115848616Y-119541627D01*
X115838672Y-119472469D01*
X115867697Y-119408913D01*
X115873729Y-119402435D01*
X120311761Y-114964402D01*
X120319706Y-114960063D01*
X120325132Y-114952816D01*
X120349891Y-114943581D01*
X120373084Y-114930917D01*
X120382113Y-114931562D01*
X120390596Y-114928399D01*
X120416416Y-114934015D01*
G37*
%TD.AperFunction*%
%TA.AperFunction,Conductor*%
G36*
X123658853Y-69399695D02*
G01*
X123714786Y-69441567D01*
X123730080Y-69468424D01*
X123750603Y-69517973D01*
X123753157Y-69522750D01*
X123767398Y-69591153D01*
X123742397Y-69656397D01*
X123731479Y-69668884D01*
X118271381Y-75128983D01*
X118251944Y-75139595D01*
X118235211Y-75154096D01*
X118221879Y-75156012D01*
X118210058Y-75162468D01*
X118187971Y-75160888D01*
X118166053Y-75164040D01*
X118153801Y-75158444D01*
X118140366Y-75157484D01*
X118122639Y-75144213D01*
X118102497Y-75135015D01*
X118095214Y-75123683D01*
X118084433Y-75115612D01*
X118076695Y-75094866D01*
X118064723Y-75076237D01*
X118061571Y-75054318D01*
X118060016Y-75050148D01*
X118059700Y-75041302D01*
X118059700Y-74947696D01*
X118079385Y-74880657D01*
X118096014Y-74860020D01*
X123527838Y-69428195D01*
X123589161Y-69394711D01*
X123658853Y-69399695D01*
G37*
%TD.AperFunction*%
%TA.AperFunction,Conductor*%
G36*
X150018705Y-54727572D02*
G01*
X150063053Y-54756073D01*
X155119181Y-59812201D01*
X155152666Y-59873524D01*
X155155500Y-59899882D01*
X155155500Y-59921246D01*
X155186261Y-60075889D01*
X155186264Y-60075901D01*
X155246602Y-60221572D01*
X155246609Y-60221585D01*
X155334210Y-60352688D01*
X155334213Y-60352692D01*
X155445707Y-60464186D01*
X155445711Y-60464189D01*
X155576814Y-60551790D01*
X155576827Y-60551797D01*
X155722498Y-60612135D01*
X155722503Y-60612137D01*
X155832987Y-60634113D01*
X155855691Y-60638630D01*
X155917602Y-60671015D01*
X155952176Y-60731730D01*
X155955500Y-60760247D01*
X155955500Y-65139903D01*
X155935815Y-65206942D01*
X155919181Y-65227584D01*
X155692784Y-65453981D01*
X155631461Y-65487466D01*
X155605103Y-65490300D01*
X148093366Y-65490300D01*
X148026327Y-65470615D01*
X148024475Y-65469402D01*
X147892785Y-65381409D01*
X147892772Y-65381402D01*
X147747101Y-65321064D01*
X147747091Y-65321061D01*
X147613908Y-65294569D01*
X147551997Y-65262184D01*
X147517423Y-65201468D01*
X147514100Y-65172952D01*
X147514100Y-59845847D01*
X147533785Y-59778808D01*
X147586589Y-59733053D01*
X147613909Y-59724230D01*
X147629891Y-59721050D01*
X147747097Y-59697737D01*
X147892779Y-59637394D01*
X147892785Y-59637390D01*
X148024475Y-59549398D01*
X148091153Y-59528520D01*
X148093366Y-59528500D01*
X149458303Y-59528500D01*
X149525342Y-59548185D01*
X149545984Y-59564819D01*
X151717825Y-61736660D01*
X151751310Y-61797983D01*
X151751761Y-61800149D01*
X151782661Y-61955491D01*
X151782664Y-61955501D01*
X151843002Y-62101172D01*
X151843009Y-62101185D01*
X151930610Y-62232288D01*
X151930613Y-62232292D01*
X152042107Y-62343786D01*
X152042111Y-62343789D01*
X152173214Y-62431390D01*
X152173227Y-62431397D01*
X152318898Y-62491735D01*
X152318903Y-62491737D01*
X152473553Y-62522499D01*
X152473556Y-62522500D01*
X152473558Y-62522500D01*
X152631244Y-62522500D01*
X152631245Y-62522499D01*
X152785897Y-62491737D01*
X152931579Y-62431394D01*
X153062689Y-62343789D01*
X153174189Y-62232289D01*
X153261794Y-62101179D01*
X153322137Y-61955497D01*
X153352900Y-61800842D01*
X153352900Y-61643158D01*
X153352900Y-61643155D01*
X153352899Y-61643153D01*
X153325555Y-61505686D01*
X153322137Y-61488503D01*
X153282944Y-61393881D01*
X153261797Y-61342827D01*
X153261790Y-61342814D01*
X153174189Y-61211711D01*
X153174186Y-61211707D01*
X153062692Y-61100213D01*
X153062688Y-61100210D01*
X152931585Y-61012609D01*
X152931572Y-61012602D01*
X152785901Y-60952264D01*
X152785891Y-60952261D01*
X152630551Y-60921362D01*
X152568641Y-60888977D01*
X152567062Y-60887426D01*
X150245990Y-58566355D01*
X150245988Y-58566352D01*
X150127117Y-58447481D01*
X150127116Y-58447480D01*
X150019812Y-58385528D01*
X150019812Y-58385527D01*
X150019809Y-58385527D01*
X149990185Y-58368423D01*
X149837457Y-58327499D01*
X149679343Y-58327499D01*
X149671747Y-58327499D01*
X149671731Y-58327500D01*
X148093366Y-58327500D01*
X148026327Y-58307815D01*
X148024475Y-58306602D01*
X147892785Y-58218609D01*
X147892772Y-58218602D01*
X147747101Y-58158264D01*
X147747091Y-58158261D01*
X147613908Y-58131769D01*
X147551997Y-58099384D01*
X147517423Y-58038668D01*
X147514100Y-58010152D01*
X147514100Y-55430229D01*
X147533785Y-55363190D01*
X147586589Y-55317435D01*
X147655747Y-55307491D01*
X147719303Y-55336516D01*
X147752661Y-55382777D01*
X147779002Y-55446372D01*
X147779009Y-55446385D01*
X147866610Y-55577488D01*
X147866613Y-55577492D01*
X147978107Y-55688986D01*
X147978111Y-55688989D01*
X148109214Y-55776590D01*
X148109227Y-55776597D01*
X148254898Y-55836935D01*
X148254903Y-55836937D01*
X148405446Y-55866882D01*
X148409553Y-55867699D01*
X148409556Y-55867700D01*
X148409558Y-55867700D01*
X148567244Y-55867700D01*
X148567245Y-55867699D01*
X148721897Y-55836937D01*
X148867579Y-55776594D01*
X148998689Y-55688989D01*
X149110189Y-55577489D01*
X149191836Y-55455295D01*
X149207239Y-55436525D01*
X149207849Y-55435916D01*
X149207849Y-55435914D01*
X149213534Y-55430229D01*
X149812713Y-54831050D01*
X149812716Y-54831049D01*
X149887694Y-54756070D01*
X149949013Y-54722588D01*
X150018705Y-54727572D01*
G37*
%TD.AperFunction*%
%TA.AperFunction,Conductor*%
G36*
X147719303Y-53826984D02*
G01*
X147725781Y-53833016D01*
X148009425Y-54116660D01*
X148018488Y-54133258D01*
X148031619Y-54146866D01*
X148042025Y-54176362D01*
X148042910Y-54177983D01*
X148043361Y-54180149D01*
X148066116Y-54294543D01*
X148059889Y-54364135D01*
X148017026Y-54419312D01*
X148013393Y-54421835D01*
X147978109Y-54445412D01*
X147978104Y-54445417D01*
X147866613Y-54556907D01*
X147866610Y-54556911D01*
X147779009Y-54688014D01*
X147779004Y-54688023D01*
X147752661Y-54751623D01*
X147708820Y-54806026D01*
X147642526Y-54828091D01*
X147574827Y-54810812D01*
X147527216Y-54759675D01*
X147514100Y-54704170D01*
X147514100Y-53920697D01*
X147533785Y-53853658D01*
X147586589Y-53807903D01*
X147655747Y-53797959D01*
X147719303Y-53826984D01*
G37*
%TD.AperFunction*%
%TA.AperFunction,Conductor*%
G36*
X140973130Y-45830148D02*
G01*
X141004870Y-45830716D01*
X141009054Y-45832718D01*
X141011151Y-45832868D01*
X141036708Y-45845948D01*
X141149614Y-45921390D01*
X141149627Y-45921397D01*
X141295298Y-45981735D01*
X141295303Y-45981737D01*
X141359947Y-45994595D01*
X141450649Y-46012638D01*
X141512560Y-46045023D01*
X141514139Y-46046574D01*
X142212781Y-46745216D01*
X142246266Y-46806539D01*
X142249100Y-46832897D01*
X142249100Y-51581666D01*
X142229415Y-51648705D01*
X142176611Y-51694460D01*
X142107453Y-51704404D01*
X142100909Y-51703283D01*
X141963246Y-51675900D01*
X141963242Y-51675900D01*
X141805558Y-51675900D01*
X141805555Y-51675900D01*
X141650910Y-51706661D01*
X141650898Y-51706664D01*
X141505227Y-51767002D01*
X141505214Y-51767009D01*
X141374111Y-51854610D01*
X141374107Y-51854613D01*
X141262613Y-51966107D01*
X141262609Y-51966112D01*
X141230353Y-52014389D01*
X141176741Y-52059195D01*
X141127250Y-52069500D01*
X137722248Y-52069500D01*
X137655209Y-52049815D01*
X137609454Y-51997011D01*
X137600631Y-51969692D01*
X137574138Y-51836508D01*
X137574137Y-51836507D01*
X137574137Y-51836503D01*
X137542866Y-51761008D01*
X137513797Y-51690827D01*
X137513790Y-51690814D01*
X137425798Y-51559125D01*
X137404920Y-51492447D01*
X137404900Y-51490234D01*
X137404900Y-49387968D01*
X137424585Y-49320929D01*
X137441219Y-49300287D01*
X138134157Y-48607349D01*
X140880138Y-45861367D01*
X140907996Y-45846156D01*
X140935012Y-45829468D01*
X140938445Y-45829529D01*
X140941459Y-45827884D01*
X140973130Y-45830148D01*
G37*
%TD.AperFunction*%
%TD*%
%TA.AperFunction,Conductor*%
%TO.N,GND*%
G36*
X129413438Y-123252719D02*
G01*
X129419916Y-123258751D01*
X132407939Y-126246774D01*
X132407949Y-126246785D01*
X132412279Y-126251115D01*
X132412280Y-126251116D01*
X132524084Y-126362920D01*
X132610895Y-126413039D01*
X132610897Y-126413041D01*
X132648951Y-126435011D01*
X132661015Y-126441977D01*
X132813743Y-126482901D01*
X132813746Y-126482901D01*
X132979453Y-126482901D01*
X132979469Y-126482900D01*
X133031900Y-126482900D01*
X133098939Y-126502585D01*
X133144694Y-126555389D01*
X133155900Y-126606900D01*
X133155900Y-136943500D01*
X133136215Y-137010539D01*
X133083411Y-137056294D01*
X133031900Y-137067500D01*
X112418170Y-137067500D01*
X112351131Y-137047815D01*
X112305376Y-136995011D01*
X112295432Y-136925853D01*
X112303609Y-136896048D01*
X112346665Y-136792099D01*
X112354937Y-136772129D01*
X112385700Y-136617474D01*
X112385700Y-136459790D01*
X112385700Y-136459787D01*
X112385699Y-136459785D01*
X112368995Y-136375811D01*
X112354937Y-136305135D01*
X112335607Y-136258467D01*
X112294597Y-136159459D01*
X112294590Y-136159446D01*
X112206989Y-136028343D01*
X112206986Y-136028339D01*
X112095492Y-135916845D01*
X112095488Y-135916842D01*
X111964385Y-135829241D01*
X111964372Y-135829234D01*
X111818701Y-135768896D01*
X111818691Y-135768893D01*
X111663351Y-135737994D01*
X111651449Y-135732543D01*
X111641888Y-135731666D01*
X111624279Y-135720098D01*
X111611257Y-135714134D01*
X111605251Y-135709447D01*
X111518084Y-135622280D01*
X111431272Y-135572160D01*
X111381153Y-135543223D01*
X111228425Y-135502299D01*
X111070311Y-135502299D01*
X111062715Y-135502299D01*
X111062699Y-135502300D01*
X109475924Y-135502300D01*
X109475908Y-135502299D01*
X109468312Y-135502299D01*
X109310198Y-135502299D01*
X109202842Y-135531065D01*
X109157465Y-135543224D01*
X109157464Y-135543225D01*
X109107351Y-135572159D01*
X109107350Y-135572160D01*
X109101290Y-135575659D01*
X109020540Y-135622279D01*
X109020537Y-135622281D01*
X108908733Y-135734086D01*
X108230839Y-136411981D01*
X108169516Y-136445466D01*
X108143158Y-136448300D01*
X97410362Y-136448300D01*
X97343323Y-136428615D01*
X97297568Y-136375811D01*
X97287624Y-136306653D01*
X97316649Y-136243097D01*
X97322681Y-136236619D01*
X102296997Y-131262303D01*
X107684494Y-125874805D01*
X107745815Y-125841322D01*
X107747982Y-125840871D01*
X107805917Y-125829346D01*
X107903329Y-125809970D01*
X108049011Y-125749627D01*
X108180121Y-125662022D01*
X108291621Y-125550522D01*
X108379226Y-125419412D01*
X108379888Y-125417815D01*
X108398618Y-125372595D01*
X108439569Y-125273730D01*
X108448272Y-125229977D01*
X108452026Y-125211108D01*
X108484411Y-125149197D01*
X108545127Y-125114623D01*
X108573643Y-125111300D01*
X113570436Y-125111300D01*
X113637475Y-125130985D01*
X113639327Y-125132198D01*
X113771016Y-125220190D01*
X113771029Y-125220197D01*
X113916700Y-125280535D01*
X113916705Y-125280537D01*
X114037305Y-125304526D01*
X114071355Y-125311299D01*
X114071358Y-125311300D01*
X114183048Y-125311300D01*
X114250087Y-125330985D01*
X114295842Y-125383789D01*
X114297609Y-125387847D01*
X114301804Y-125397976D01*
X114301809Y-125397985D01*
X114389410Y-125529088D01*
X114389413Y-125529092D01*
X114500907Y-125640586D01*
X114500911Y-125640589D01*
X114632014Y-125728190D01*
X114632027Y-125728197D01*
X114683772Y-125749630D01*
X114777703Y-125788537D01*
X114876047Y-125808099D01*
X114910891Y-125815030D01*
X114972802Y-125847415D01*
X115007376Y-125908130D01*
X115010700Y-125936647D01*
X115010700Y-129356103D01*
X114991015Y-129423142D01*
X114938211Y-129468897D01*
X114869053Y-129478841D01*
X114805497Y-129449816D01*
X114799019Y-129443784D01*
X113205110Y-127849875D01*
X113171625Y-127788552D01*
X113168791Y-127762194D01*
X113168791Y-127434218D01*
X113188476Y-127367179D01*
X113189689Y-127365327D01*
X113277681Y-127233638D01*
X113277681Y-127233637D01*
X113277685Y-127233632D01*
X113338028Y-127087950D01*
X113368791Y-126933295D01*
X113368791Y-126775611D01*
X113368791Y-126775608D01*
X113368790Y-126775606D01*
X113338029Y-126620963D01*
X113338028Y-126620956D01*
X113332206Y-126606900D01*
X113277688Y-126475280D01*
X113277681Y-126475267D01*
X113190080Y-126344164D01*
X113190077Y-126344160D01*
X113078583Y-126232666D01*
X113078579Y-126232663D01*
X112947476Y-126145062D01*
X112947463Y-126145055D01*
X112801792Y-126084717D01*
X112801780Y-126084714D01*
X112647136Y-126053953D01*
X112647133Y-126053953D01*
X112489449Y-126053953D01*
X112489446Y-126053953D01*
X112334801Y-126084714D01*
X112334789Y-126084717D01*
X112189118Y-126145055D01*
X112189105Y-126145062D01*
X112058002Y-126232663D01*
X112057998Y-126232666D01*
X111946504Y-126344160D01*
X111946501Y-126344164D01*
X111858900Y-126475267D01*
X111858893Y-126475280D01*
X111798555Y-126620951D01*
X111798552Y-126620963D01*
X111767791Y-126775606D01*
X111767791Y-126933299D01*
X111798552Y-127087942D01*
X111798555Y-127087954D01*
X111858893Y-127233625D01*
X111858900Y-127233638D01*
X111946893Y-127365327D01*
X111967771Y-127432004D01*
X111967791Y-127434218D01*
X111967791Y-127684793D01*
X111948106Y-127751832D01*
X111895302Y-127797587D01*
X111826144Y-127807531D01*
X111762588Y-127778506D01*
X111756110Y-127772474D01*
X110968973Y-126985337D01*
X110935488Y-126924014D01*
X110935037Y-126921847D01*
X110934899Y-126921153D01*
X110904137Y-126766503D01*
X110904135Y-126766498D01*
X110843797Y-126620827D01*
X110843790Y-126620814D01*
X110756189Y-126489711D01*
X110756186Y-126489707D01*
X110644692Y-126378213D01*
X110644688Y-126378210D01*
X110513585Y-126290609D01*
X110513572Y-126290602D01*
X110367901Y-126230264D01*
X110367889Y-126230261D01*
X110213245Y-126199500D01*
X110213242Y-126199500D01*
X110055558Y-126199500D01*
X110055555Y-126199500D01*
X109900910Y-126230261D01*
X109900898Y-126230264D01*
X109755227Y-126290602D01*
X109755214Y-126290609D01*
X109624111Y-126378210D01*
X109624107Y-126378213D01*
X109512613Y-126489707D01*
X109512610Y-126489711D01*
X109425009Y-126620814D01*
X109425002Y-126620827D01*
X109364664Y-126766498D01*
X109364661Y-126766510D01*
X109333900Y-126921153D01*
X109333900Y-127078846D01*
X109364661Y-127233489D01*
X109364664Y-127233501D01*
X109425002Y-127379172D01*
X109425009Y-127379185D01*
X109512610Y-127510288D01*
X109512613Y-127510292D01*
X109624107Y-127621786D01*
X109624111Y-127621789D01*
X109755214Y-127709390D01*
X109755227Y-127709397D01*
X109857676Y-127751832D01*
X109900903Y-127769737D01*
X109965547Y-127782595D01*
X110056249Y-127800638D01*
X110118160Y-127833023D01*
X110119739Y-127834574D01*
X115246717Y-132961553D01*
X115280202Y-133022876D01*
X115280653Y-133025042D01*
X115295196Y-133098156D01*
X115295199Y-133098166D01*
X115355537Y-133243837D01*
X115355544Y-133243850D01*
X115443145Y-133374953D01*
X115443148Y-133374957D01*
X115554642Y-133486451D01*
X115554646Y-133486454D01*
X115685749Y-133574055D01*
X115685762Y-133574062D01*
X115831433Y-133634400D01*
X115831438Y-133634402D01*
X115986088Y-133665164D01*
X115986091Y-133665165D01*
X115986093Y-133665165D01*
X116013900Y-133665165D01*
X116080939Y-133684850D01*
X116126694Y-133737654D01*
X116137900Y-133789165D01*
X116137900Y-134395834D01*
X116118215Y-134462873D01*
X116117002Y-134464725D01*
X116029009Y-134596414D01*
X116029002Y-134596427D01*
X115968664Y-134742098D01*
X115968661Y-134742110D01*
X115937900Y-134896753D01*
X115937900Y-135054446D01*
X115968661Y-135209089D01*
X115968664Y-135209101D01*
X116029002Y-135354772D01*
X116029009Y-135354785D01*
X116116610Y-135485888D01*
X116116613Y-135485892D01*
X116228107Y-135597386D01*
X116228111Y-135597389D01*
X116359214Y-135684990D01*
X116359227Y-135684997D01*
X116477738Y-135734085D01*
X116504903Y-135745337D01*
X116659553Y-135776099D01*
X116659556Y-135776100D01*
X116659558Y-135776100D01*
X116817244Y-135776100D01*
X116817245Y-135776099D01*
X116971897Y-135745337D01*
X117117579Y-135684994D01*
X117142255Y-135668505D01*
X117208931Y-135647627D01*
X117276311Y-135666110D01*
X117323003Y-135718088D01*
X117334181Y-135787058D01*
X117332764Y-135795798D01*
X117309500Y-135912753D01*
X117309500Y-136070446D01*
X117340261Y-136225089D01*
X117340264Y-136225101D01*
X117400602Y-136370772D01*
X117400609Y-136370785D01*
X117488210Y-136501888D01*
X117488213Y-136501892D01*
X117599707Y-136613386D01*
X117599711Y-136613389D01*
X117730814Y-136700990D01*
X117730827Y-136700997D01*
X117876498Y-136761335D01*
X117876503Y-136761337D01*
X118031153Y-136792099D01*
X118031156Y-136792100D01*
X118031158Y-136792100D01*
X118188844Y-136792100D01*
X118188845Y-136792099D01*
X118343497Y-136761337D01*
X118489179Y-136700994D01*
X118620289Y-136613389D01*
X118731789Y-136501889D01*
X118819394Y-136370779D01*
X118879737Y-136225097D01*
X118910500Y-136070442D01*
X118910500Y-135912758D01*
X118910500Y-135912755D01*
X118910499Y-135912753D01*
X118887235Y-135795798D01*
X118879737Y-135758103D01*
X118869789Y-135734086D01*
X118819397Y-135612427D01*
X118819390Y-135612414D01*
X118731398Y-135480725D01*
X118710520Y-135414047D01*
X118710500Y-135411834D01*
X118710500Y-134388833D01*
X118730185Y-134321794D01*
X118782989Y-134276039D01*
X118837866Y-134266898D01*
X118837866Y-134265165D01*
X119001644Y-134265165D01*
X119001645Y-134265164D01*
X119156297Y-134234402D01*
X119301979Y-134174059D01*
X119433089Y-134086454D01*
X119544589Y-133974954D01*
X119632194Y-133843844D01*
X119692537Y-133698162D01*
X119723300Y-133543507D01*
X119723438Y-133542815D01*
X119755823Y-133480904D01*
X119757318Y-133479381D01*
X128966241Y-124270457D01*
X128966246Y-124270454D01*
X128976449Y-124260250D01*
X128976451Y-124260250D01*
X129088255Y-124148446D01*
X129167312Y-124011514D01*
X129203833Y-123875215D01*
X129208235Y-123858788D01*
X129208235Y-123700673D01*
X129208235Y-123346432D01*
X129227920Y-123279393D01*
X129280724Y-123233638D01*
X129349882Y-123223694D01*
X129413438Y-123252719D01*
G37*
%TD.AperFunction*%
%TA.AperFunction,Conductor*%
G36*
X106004689Y-123054514D02*
G01*
X106060622Y-123096386D01*
X106085039Y-123161850D01*
X106085355Y-123170696D01*
X106085355Y-124603981D01*
X106065670Y-124671020D01*
X106064457Y-124672872D01*
X105992708Y-124780250D01*
X105992701Y-124780263D01*
X105932363Y-124925934D01*
X105932360Y-124925946D01*
X105901599Y-125080589D01*
X105901599Y-125238282D01*
X105932360Y-125392925D01*
X105932363Y-125392937D01*
X105992701Y-125538608D01*
X105992708Y-125538621D01*
X106068150Y-125651527D01*
X106089028Y-125718205D01*
X106070544Y-125785585D01*
X106052729Y-125808099D01*
X96137135Y-135723694D01*
X96075812Y-135757179D01*
X96006120Y-135752195D01*
X95961773Y-135723694D01*
X95861892Y-135623813D01*
X95861888Y-135623810D01*
X95730785Y-135536209D01*
X95730772Y-135536202D01*
X95585101Y-135475864D01*
X95585089Y-135475861D01*
X95430445Y-135445100D01*
X95430442Y-135445100D01*
X95272758Y-135445100D01*
X95272755Y-135445100D01*
X95118110Y-135475861D01*
X95118098Y-135475864D01*
X94972427Y-135536202D01*
X94972414Y-135536209D01*
X94841311Y-135623810D01*
X94841307Y-135623813D01*
X94801781Y-135663340D01*
X94740458Y-135696825D01*
X94670766Y-135691841D01*
X94614833Y-135649969D01*
X94590416Y-135584505D01*
X94590100Y-135575659D01*
X94590100Y-124491850D01*
X94609785Y-124424811D01*
X94662589Y-124379056D01*
X94689909Y-124370233D01*
X94705891Y-124367053D01*
X94823097Y-124343740D01*
X94968779Y-124283397D01*
X94988150Y-124270454D01*
X95100475Y-124195401D01*
X95167153Y-124174523D01*
X95169366Y-124174503D01*
X104446783Y-124174503D01*
X104446799Y-124174504D01*
X104454395Y-124174504D01*
X104612506Y-124174504D01*
X104612509Y-124174504D01*
X104765237Y-124133580D01*
X104815356Y-124104642D01*
X104902168Y-124054523D01*
X105013972Y-123942719D01*
X105013972Y-123942717D01*
X105024180Y-123932510D01*
X105024181Y-123932507D01*
X105873675Y-123083014D01*
X105934997Y-123049530D01*
X106004689Y-123054514D01*
G37*
%TD.AperFunction*%
%TA.AperFunction,Conductor*%
G36*
X175769339Y-34810185D02*
G01*
X175815094Y-34862989D01*
X175826300Y-34914500D01*
X175826300Y-144307900D01*
X175806615Y-144374939D01*
X175753811Y-144420694D01*
X175702300Y-144431900D01*
X84952500Y-144431900D01*
X84885461Y-144412215D01*
X84839706Y-144359411D01*
X84828500Y-144307900D01*
X84828500Y-139670609D01*
X165768300Y-139670609D01*
X165768300Y-140034190D01*
X165803937Y-140396030D01*
X165874864Y-140752612D01*
X165874867Y-140752623D01*
X165980414Y-141100565D01*
X166119554Y-141436478D01*
X166119556Y-141436483D01*
X166290940Y-141757120D01*
X166290951Y-141757138D01*
X166492940Y-142059435D01*
X166492950Y-142059449D01*
X166723607Y-142340506D01*
X166980693Y-142597592D01*
X166980698Y-142597596D01*
X166980699Y-142597597D01*
X167261756Y-142828254D01*
X167564068Y-143030253D01*
X167564077Y-143030258D01*
X167564079Y-143030259D01*
X167884716Y-143201643D01*
X167884718Y-143201643D01*
X167884724Y-143201647D01*
X168220636Y-143340786D01*
X168568567Y-143446330D01*
X168568573Y-143446331D01*
X168568576Y-143446332D01*
X168568587Y-143446335D01*
X168925169Y-143517262D01*
X169287006Y-143552900D01*
X169287009Y-143552900D01*
X169650591Y-143552900D01*
X169650594Y-143552900D01*
X170012431Y-143517262D01*
X170081845Y-143503454D01*
X170369012Y-143446335D01*
X170369023Y-143446332D01*
X170369023Y-143446331D01*
X170369033Y-143446330D01*
X170716964Y-143340786D01*
X171052876Y-143201647D01*
X171373532Y-143030253D01*
X171675844Y-142828254D01*
X171956901Y-142597597D01*
X172213997Y-142340501D01*
X172444654Y-142059444D01*
X172646653Y-141757132D01*
X172818047Y-141436476D01*
X172957186Y-141100564D01*
X173062730Y-140752633D01*
X173062732Y-140752623D01*
X173062735Y-140752612D01*
X173133662Y-140396030D01*
X173169300Y-140034190D01*
X173169300Y-139670609D01*
X173133662Y-139308769D01*
X173062735Y-138952187D01*
X173062732Y-138952176D01*
X173062731Y-138952173D01*
X173062730Y-138952167D01*
X172957186Y-138604236D01*
X172818047Y-138268324D01*
X172796267Y-138227577D01*
X172646659Y-137947679D01*
X172646658Y-137947677D01*
X172646653Y-137947668D01*
X172444654Y-137645356D01*
X172213997Y-137364299D01*
X172213996Y-137364298D01*
X172213992Y-137364293D01*
X171956906Y-137107207D01*
X171675849Y-136876550D01*
X171675848Y-136876549D01*
X171675844Y-136876546D01*
X171373532Y-136674547D01*
X171373527Y-136674544D01*
X171373520Y-136674540D01*
X171052883Y-136503156D01*
X171052878Y-136503154D01*
X171049831Y-136501892D01*
X170745445Y-136375811D01*
X170716965Y-136364014D01*
X170369023Y-136258467D01*
X170369012Y-136258464D01*
X170012430Y-136187537D01*
X169727341Y-136159459D01*
X169650594Y-136151900D01*
X169287006Y-136151900D01*
X169210259Y-136159459D01*
X168925169Y-136187537D01*
X168568587Y-136258464D01*
X168568576Y-136258467D01*
X168220634Y-136364014D01*
X167884721Y-136503154D01*
X167884716Y-136503156D01*
X167564079Y-136674540D01*
X167564061Y-136674551D01*
X167261764Y-136876540D01*
X167261750Y-136876550D01*
X166980693Y-137107207D01*
X166723607Y-137364293D01*
X166492950Y-137645350D01*
X166492940Y-137645364D01*
X166290951Y-137947661D01*
X166290940Y-137947679D01*
X166119556Y-138268316D01*
X166119554Y-138268321D01*
X165980414Y-138604234D01*
X165874867Y-138952176D01*
X165874864Y-138952187D01*
X165803937Y-139308769D01*
X165768300Y-139670609D01*
X84828500Y-139670609D01*
X84828500Y-125482000D01*
X86275338Y-125482000D01*
X87078212Y-125482000D01*
X87060995Y-125491940D01*
X87005140Y-125547795D01*
X86965644Y-125616204D01*
X86945200Y-125692504D01*
X86945200Y-125771496D01*
X86965644Y-125847796D01*
X87005140Y-125916205D01*
X87060995Y-125972060D01*
X87078212Y-125982000D01*
X86275338Y-125982000D01*
X86283630Y-126023690D01*
X86283630Y-126023692D01*
X86359007Y-126205671D01*
X86359014Y-126205684D01*
X86468448Y-126369462D01*
X86468451Y-126369466D01*
X86607733Y-126508748D01*
X86607737Y-126508751D01*
X86771515Y-126618185D01*
X86771528Y-126618192D01*
X86953506Y-126693569D01*
X86953518Y-126693572D01*
X87146704Y-126731999D01*
X87146708Y-126732000D01*
X87295200Y-126732000D01*
X87295200Y-126032000D01*
X87795200Y-126032000D01*
X87795200Y-126732000D01*
X87943692Y-126732000D01*
X87943695Y-126731999D01*
X88136881Y-126693572D01*
X88136893Y-126693569D01*
X88318871Y-126618192D01*
X88318884Y-126618185D01*
X88482662Y-126508751D01*
X88482666Y-126508748D01*
X88621948Y-126369466D01*
X88621951Y-126369462D01*
X88731385Y-126205684D01*
X88731392Y-126205671D01*
X88806769Y-126023692D01*
X88806769Y-126023690D01*
X88815062Y-125982000D01*
X88012188Y-125982000D01*
X88029405Y-125972060D01*
X88085260Y-125916205D01*
X88124756Y-125847796D01*
X88145200Y-125771496D01*
X88145200Y-125692504D01*
X88124756Y-125616204D01*
X88085260Y-125547795D01*
X88029405Y-125491940D01*
X88012188Y-125482000D01*
X88815062Y-125482000D01*
X90205338Y-125482000D01*
X91008212Y-125482000D01*
X90990995Y-125491940D01*
X90935140Y-125547795D01*
X90895644Y-125616204D01*
X90875200Y-125692504D01*
X90875200Y-125771496D01*
X90895644Y-125847796D01*
X90935140Y-125916205D01*
X90990995Y-125972060D01*
X91008212Y-125982000D01*
X90205338Y-125982000D01*
X90213630Y-126023690D01*
X90213630Y-126023692D01*
X90289007Y-126205671D01*
X90289014Y-126205684D01*
X90398448Y-126369462D01*
X90398451Y-126369466D01*
X90537733Y-126508748D01*
X90537737Y-126508751D01*
X90701515Y-126618185D01*
X90701528Y-126618192D01*
X90883506Y-126693569D01*
X90883518Y-126693572D01*
X91076704Y-126731999D01*
X91076708Y-126732000D01*
X91475200Y-126732000D01*
X91475200Y-126032000D01*
X91975200Y-126032000D01*
X91975200Y-126732000D01*
X92373692Y-126732000D01*
X92373695Y-126731999D01*
X92566881Y-126693572D01*
X92566893Y-126693569D01*
X92748871Y-126618192D01*
X92748884Y-126618185D01*
X92912662Y-126508751D01*
X92912666Y-126508748D01*
X93051948Y-126369466D01*
X93051951Y-126369462D01*
X93161998Y-126204767D01*
X93215610Y-126159962D01*
X93284935Y-126151255D01*
X93347963Y-126181409D01*
X93384682Y-126240853D01*
X93389100Y-126273658D01*
X93389100Y-136610659D01*
X93389099Y-136610677D01*
X93389099Y-136776383D01*
X93389098Y-136776383D01*
X93430023Y-136929114D01*
X93458958Y-136979229D01*
X93458959Y-136979233D01*
X93458960Y-136979233D01*
X93509079Y-137066043D01*
X93509081Y-137066046D01*
X93627949Y-137184914D01*
X93627955Y-137184919D01*
X93856210Y-137413174D01*
X93856220Y-137413185D01*
X93860550Y-137417515D01*
X93860551Y-137417516D01*
X93972355Y-137529320D01*
X94059166Y-137579439D01*
X94059168Y-137579441D01*
X94097222Y-137601411D01*
X94109286Y-137608377D01*
X94262014Y-137649300D01*
X94420128Y-137649300D01*
X108356586Y-137649300D01*
X108356602Y-137649301D01*
X108364198Y-137649301D01*
X108522309Y-137649301D01*
X108522312Y-137649301D01*
X108675040Y-137608377D01*
X108725159Y-137579439D01*
X108811971Y-137529320D01*
X108923775Y-137417516D01*
X108923775Y-137417514D01*
X108933983Y-137407307D01*
X108933984Y-137407304D01*
X109601671Y-136739619D01*
X109628598Y-136724915D01*
X109654417Y-136708323D01*
X109660617Y-136707431D01*
X109662994Y-136706134D01*
X109689352Y-136703300D01*
X109826152Y-136703300D01*
X109893191Y-136722985D01*
X109938946Y-136775789D01*
X109947769Y-136803108D01*
X109974261Y-136936291D01*
X109974264Y-136936301D01*
X110034602Y-137081972D01*
X110034609Y-137081985D01*
X110122210Y-137213088D01*
X110122213Y-137213092D01*
X110233707Y-137324586D01*
X110233711Y-137324589D01*
X110364814Y-137412190D01*
X110364827Y-137412197D01*
X110510498Y-137472535D01*
X110510503Y-137472537D01*
X110575147Y-137485395D01*
X110665849Y-137503438D01*
X110727760Y-137535823D01*
X110729339Y-137537374D01*
X111224339Y-138032374D01*
X111224349Y-138032385D01*
X111228679Y-138036715D01*
X111228680Y-138036716D01*
X111340484Y-138148520D01*
X111427295Y-138198639D01*
X111427297Y-138198641D01*
X111465351Y-138220611D01*
X111477415Y-138227577D01*
X111630143Y-138268501D01*
X111630146Y-138268501D01*
X111795853Y-138268501D01*
X111795869Y-138268500D01*
X133835455Y-138268500D01*
X133835457Y-138268500D01*
X133988184Y-138227577D01*
X134125116Y-138148520D01*
X134236920Y-138036716D01*
X134315977Y-137899784D01*
X134356900Y-137747057D01*
X134356900Y-126606900D01*
X134376585Y-126539861D01*
X134429389Y-126494106D01*
X134480900Y-126482900D01*
X144845731Y-126482900D01*
X144845747Y-126482901D01*
X144853343Y-126482901D01*
X145011454Y-126482901D01*
X145011457Y-126482901D01*
X145164185Y-126441977D01*
X145214304Y-126413039D01*
X145301116Y-126362920D01*
X145412920Y-126251116D01*
X145412920Y-126251114D01*
X145423128Y-126240907D01*
X145423129Y-126240904D01*
X156588920Y-115075116D01*
X156667977Y-114938184D01*
X156708901Y-114785457D01*
X156708901Y-114627342D01*
X156708901Y-114619747D01*
X156708900Y-114619729D01*
X156708900Y-104973765D01*
X156728585Y-104906726D01*
X156729798Y-104904874D01*
X156756183Y-104865387D01*
X156817794Y-104773179D01*
X156878137Y-104627497D01*
X156878137Y-104627496D01*
X156880468Y-104621869D01*
X156882210Y-104622590D01*
X156915683Y-104571496D01*
X156948602Y-104551359D01*
X157087579Y-104493794D01*
X157218689Y-104406189D01*
X157330189Y-104294689D01*
X157417794Y-104163579D01*
X157478137Y-104017897D01*
X157508900Y-103863242D01*
X157508900Y-103705558D01*
X157508900Y-103705555D01*
X157508899Y-103705553D01*
X157482357Y-103572120D01*
X157478137Y-103550903D01*
X157469966Y-103531177D01*
X157417797Y-103405227D01*
X157417790Y-103405214D01*
X157330189Y-103274111D01*
X157330186Y-103274107D01*
X157218692Y-103162613D01*
X157218688Y-103162610D01*
X157087585Y-103075009D01*
X157087572Y-103075002D01*
X156941901Y-103014664D01*
X156941889Y-103014661D01*
X156787245Y-102983900D01*
X156787242Y-102983900D01*
X156629558Y-102983900D01*
X156629555Y-102983900D01*
X156474910Y-103014661D01*
X156474898Y-103014664D01*
X156329227Y-103075002D01*
X156329214Y-103075009D01*
X156197525Y-103163002D01*
X156179478Y-103168652D01*
X156163569Y-103178877D01*
X156132607Y-103183328D01*
X156130847Y-103183880D01*
X156128634Y-103183900D01*
X155956141Y-103183900D01*
X155956125Y-103183899D01*
X155948529Y-103183899D01*
X155790414Y-103183899D01*
X155722761Y-103202027D01*
X155637685Y-103224823D01*
X155637680Y-103224826D01*
X155500761Y-103303875D01*
X155500753Y-103303881D01*
X155132617Y-103672017D01*
X155132614Y-103672019D01*
X155132615Y-103672020D01*
X155027880Y-103776755D01*
X154994586Y-103834423D01*
X154977947Y-103863242D01*
X154948823Y-103913685D01*
X154936313Y-103960372D01*
X154907899Y-104066414D01*
X154907899Y-104066416D01*
X154907899Y-104234517D01*
X154907900Y-104234530D01*
X154907900Y-114261653D01*
X154907899Y-114261657D01*
X154907899Y-114419771D01*
X154909268Y-114424880D01*
X154909374Y-114438147D01*
X154901804Y-114464707D01*
X154897548Y-114491993D01*
X154891630Y-114500407D01*
X154890225Y-114505341D01*
X154884806Y-114510112D01*
X154873059Y-114526818D01*
X147964298Y-121435581D01*
X147902975Y-121469066D01*
X147876617Y-121471900D01*
X142311766Y-121471900D01*
X142244727Y-121452215D01*
X142242875Y-121451002D01*
X142111185Y-121363009D01*
X142111172Y-121363002D01*
X141965501Y-121302664D01*
X141965489Y-121302661D01*
X141810845Y-121271900D01*
X141810842Y-121271900D01*
X141653158Y-121271900D01*
X141653155Y-121271900D01*
X141498510Y-121302661D01*
X141498498Y-121302664D01*
X141352827Y-121363002D01*
X141352814Y-121363009D01*
X141221711Y-121450610D01*
X141221707Y-121450613D01*
X141110213Y-121562107D01*
X141110210Y-121562111D01*
X141022609Y-121693214D01*
X141022602Y-121693227D01*
X140962264Y-121838898D01*
X140962261Y-121838910D01*
X140931500Y-121993553D01*
X140931500Y-122151246D01*
X140962261Y-122305889D01*
X140962264Y-122305901D01*
X141022602Y-122451572D01*
X141022609Y-122451585D01*
X141110210Y-122582688D01*
X141110213Y-122582692D01*
X141221707Y-122694186D01*
X141221711Y-122694189D01*
X141352814Y-122781790D01*
X141352827Y-122781797D01*
X141431894Y-122814547D01*
X141498503Y-122842137D01*
X141645290Y-122871335D01*
X141653153Y-122872899D01*
X141653156Y-122872900D01*
X141653158Y-122872900D01*
X141810844Y-122872900D01*
X141810845Y-122872899D01*
X141965497Y-122842137D01*
X142111179Y-122781794D01*
X142165663Y-122745389D01*
X142242875Y-122693798D01*
X142309553Y-122672920D01*
X142311766Y-122672900D01*
X146993303Y-122672900D01*
X147060342Y-122692585D01*
X147106097Y-122745389D01*
X147116041Y-122814547D01*
X147087016Y-122878103D01*
X147080984Y-122884581D01*
X144719984Y-125245581D01*
X144658661Y-125279066D01*
X144632303Y-125281900D01*
X133733861Y-125281900D01*
X133733857Y-125281899D01*
X133575743Y-125281899D01*
X133575739Y-125281900D01*
X133192897Y-125281900D01*
X133125858Y-125262215D01*
X133105216Y-125245581D01*
X128772616Y-120912981D01*
X128739131Y-120851658D01*
X128744115Y-120781966D01*
X128785987Y-120726033D01*
X128851451Y-120701616D01*
X128860297Y-120701300D01*
X135452509Y-120701300D01*
X135519548Y-120720985D01*
X135565303Y-120773789D01*
X135567054Y-120777810D01*
X135587006Y-120825978D01*
X135587008Y-120825983D01*
X135674610Y-120957088D01*
X135674613Y-120957092D01*
X135786107Y-121068586D01*
X135786111Y-121068589D01*
X135917214Y-121156190D01*
X135917227Y-121156197D01*
X136056819Y-121214017D01*
X136062903Y-121216537D01*
X136217553Y-121247299D01*
X136217556Y-121247300D01*
X136217558Y-121247300D01*
X136375244Y-121247300D01*
X136375245Y-121247299D01*
X136529897Y-121216537D01*
X136661999Y-121161819D01*
X136675572Y-121156197D01*
X136675572Y-121156196D01*
X136675579Y-121156194D01*
X136806689Y-121068589D01*
X136918189Y-120957089D01*
X137005794Y-120825979D01*
X137022367Y-120785967D01*
X137066207Y-120731565D01*
X137132501Y-120709499D01*
X137184378Y-120718858D01*
X137282103Y-120759337D01*
X137395866Y-120781966D01*
X137436753Y-120790099D01*
X137436756Y-120790100D01*
X137436758Y-120790100D01*
X137594444Y-120790100D01*
X137594445Y-120790099D01*
X137749097Y-120759337D01*
X137861766Y-120712667D01*
X137894772Y-120698997D01*
X137894772Y-120698996D01*
X137894779Y-120698994D01*
X138025889Y-120611389D01*
X138137389Y-120499889D01*
X138224994Y-120368779D01*
X138285337Y-120223097D01*
X138316100Y-120068442D01*
X138316238Y-120067750D01*
X138348623Y-120005839D01*
X138350118Y-120004316D01*
X147272106Y-111082327D01*
X147272111Y-111082324D01*
X147282314Y-111072120D01*
X147282316Y-111072120D01*
X147394120Y-110960316D01*
X147471428Y-110826414D01*
X147473177Y-110823385D01*
X147514100Y-110670657D01*
X147514100Y-110512543D01*
X147514100Y-102892753D01*
X150126300Y-102892753D01*
X150126300Y-103050446D01*
X150157061Y-103205089D01*
X150157064Y-103205101D01*
X150217402Y-103350772D01*
X150217409Y-103350785D01*
X150305010Y-103481888D01*
X150305013Y-103481892D01*
X150416507Y-103593386D01*
X150416511Y-103593389D01*
X150547614Y-103680990D01*
X150547627Y-103680997D01*
X150693298Y-103741335D01*
X150693303Y-103741337D01*
X150847953Y-103772099D01*
X150847956Y-103772100D01*
X150847958Y-103772100D01*
X151005644Y-103772100D01*
X151005645Y-103772099D01*
X151160297Y-103741337D01*
X151305979Y-103680994D01*
X151337336Y-103660042D01*
X151437675Y-103592998D01*
X151504353Y-103572120D01*
X151506566Y-103572100D01*
X153380131Y-103572100D01*
X153380147Y-103572101D01*
X153387743Y-103572101D01*
X153545854Y-103572101D01*
X153545857Y-103572101D01*
X153698585Y-103531177D01*
X153698587Y-103531175D01*
X153698589Y-103531175D01*
X153698590Y-103531174D01*
X153748872Y-103502144D01*
X153748873Y-103502143D01*
X153835516Y-103452120D01*
X153947320Y-103340316D01*
X153947320Y-103340314D01*
X153957522Y-103330113D01*
X153957525Y-103330108D01*
X153989463Y-103298171D01*
X154050786Y-103264688D01*
X154052951Y-103264238D01*
X154127852Y-103249338D01*
X154208297Y-103233337D01*
X154353979Y-103172994D01*
X154485089Y-103085389D01*
X154596589Y-102973889D01*
X154684194Y-102842779D01*
X154744537Y-102697097D01*
X154775300Y-102542442D01*
X154775300Y-102384758D01*
X154775300Y-102384755D01*
X154775299Y-102384753D01*
X154768349Y-102349813D01*
X154744537Y-102230103D01*
X154732839Y-102201861D01*
X154684197Y-102084427D01*
X154684190Y-102084414D01*
X154596589Y-101953311D01*
X154596586Y-101953307D01*
X154485092Y-101841813D01*
X154485088Y-101841810D01*
X154353985Y-101754209D01*
X154353972Y-101754202D01*
X154208301Y-101693864D01*
X154208289Y-101693861D01*
X154053645Y-101663100D01*
X154053642Y-101663100D01*
X153895958Y-101663100D01*
X153895955Y-101663100D01*
X153741310Y-101693861D01*
X153741298Y-101693864D01*
X153595627Y-101754202D01*
X153595614Y-101754209D01*
X153464511Y-101841810D01*
X153464507Y-101841813D01*
X153353013Y-101953307D01*
X153353010Y-101953311D01*
X153265409Y-102084414D01*
X153265402Y-102084427D01*
X153205063Y-102230101D01*
X153205063Y-102230102D01*
X153202997Y-102240487D01*
X153196870Y-102271291D01*
X153164486Y-102333202D01*
X153103770Y-102367776D01*
X153075253Y-102371100D01*
X151506566Y-102371100D01*
X151439527Y-102351415D01*
X151437675Y-102350202D01*
X151305985Y-102262209D01*
X151305972Y-102262202D01*
X151160301Y-102201864D01*
X151160289Y-102201861D01*
X151005645Y-102171100D01*
X151005642Y-102171100D01*
X150847958Y-102171100D01*
X150847955Y-102171100D01*
X150693310Y-102201861D01*
X150693298Y-102201864D01*
X150547627Y-102262202D01*
X150547614Y-102262209D01*
X150416511Y-102349810D01*
X150416507Y-102349813D01*
X150305013Y-102461307D01*
X150305010Y-102461311D01*
X150217409Y-102592414D01*
X150217402Y-102592427D01*
X150157064Y-102738098D01*
X150157061Y-102738110D01*
X150126300Y-102892753D01*
X147514100Y-102892753D01*
X147514100Y-99590753D01*
X153428300Y-99590753D01*
X153428300Y-99748446D01*
X153459061Y-99903089D01*
X153459064Y-99903101D01*
X153519402Y-100048772D01*
X153519409Y-100048785D01*
X153607010Y-100179888D01*
X153607013Y-100179892D01*
X153718507Y-100291386D01*
X153718511Y-100291389D01*
X153849614Y-100378990D01*
X153849627Y-100378997D01*
X153995298Y-100439335D01*
X153995303Y-100439337D01*
X154149953Y-100470099D01*
X154149956Y-100470100D01*
X154149958Y-100470100D01*
X154307644Y-100470100D01*
X154307645Y-100470099D01*
X154462297Y-100439337D01*
X154607979Y-100378994D01*
X154739089Y-100291389D01*
X154850589Y-100179889D01*
X154938194Y-100048779D01*
X154998537Y-99903097D01*
X155017913Y-99805685D01*
X155029438Y-99747750D01*
X155061823Y-99685839D01*
X155063318Y-99684316D01*
X155863616Y-98884019D01*
X155924939Y-98850534D01*
X155951297Y-98847700D01*
X158378681Y-98847700D01*
X158445720Y-98867385D01*
X158491475Y-98920189D01*
X158501419Y-98989347D01*
X158472394Y-99052903D01*
X158466362Y-99059381D01*
X157493828Y-100031914D01*
X157432505Y-100065399D01*
X157430339Y-100065850D01*
X157274997Y-100096750D01*
X157274987Y-100096753D01*
X157129316Y-100157091D01*
X157129303Y-100157098D01*
X156998200Y-100244699D01*
X156998196Y-100244702D01*
X156886702Y-100356196D01*
X156886699Y-100356200D01*
X156799098Y-100487303D01*
X156799091Y-100487316D01*
X156738753Y-100632987D01*
X156738750Y-100632999D01*
X156707989Y-100787642D01*
X156707989Y-100945335D01*
X156738750Y-101099978D01*
X156738753Y-101099990D01*
X156799091Y-101245661D01*
X156799098Y-101245674D01*
X156886699Y-101376777D01*
X156886702Y-101376781D01*
X156998196Y-101488275D01*
X156998200Y-101488278D01*
X157129303Y-101575879D01*
X157129316Y-101575886D01*
X157274987Y-101636224D01*
X157274992Y-101636226D01*
X157410096Y-101663100D01*
X157429642Y-101666988D01*
X157429645Y-101666989D01*
X157429647Y-101666989D01*
X157587333Y-101666989D01*
X157587334Y-101666988D01*
X157741986Y-101636226D01*
X157887668Y-101575883D01*
X158018778Y-101488278D01*
X158130278Y-101376778D01*
X158217883Y-101245668D01*
X158278226Y-101099986D01*
X158307063Y-100955014D01*
X158309127Y-100944639D01*
X158341512Y-100882728D01*
X158343009Y-100881203D01*
X158893899Y-100330313D01*
X169286700Y-100330313D01*
X169286700Y-100542886D01*
X169300970Y-100632987D01*
X169319954Y-100752843D01*
X169382497Y-100945331D01*
X169385644Y-100955014D01*
X169482151Y-101144420D01*
X169607090Y-101316386D01*
X169720630Y-101429926D01*
X169754115Y-101491249D01*
X169749131Y-101560941D01*
X169707259Y-101616874D01*
X169676283Y-101633789D01*
X169544869Y-101682803D01*
X169544864Y-101682806D01*
X169429655Y-101769052D01*
X169429652Y-101769055D01*
X169343406Y-101884264D01*
X169343402Y-101884271D01*
X169293108Y-102019117D01*
X169288768Y-102059488D01*
X169286701Y-102078723D01*
X169286700Y-102078735D01*
X169286700Y-103874470D01*
X169286701Y-103874476D01*
X169293108Y-103934083D01*
X169343402Y-104068928D01*
X169343406Y-104068935D01*
X169429652Y-104184144D01*
X169429655Y-104184147D01*
X169544864Y-104270393D01*
X169544871Y-104270397D01*
X169679717Y-104320691D01*
X169679716Y-104320691D01*
X169686644Y-104321435D01*
X169739327Y-104327100D01*
X171535072Y-104327099D01*
X171594683Y-104320691D01*
X171729531Y-104270396D01*
X171844746Y-104184146D01*
X171930996Y-104068931D01*
X171981291Y-103934083D01*
X171987700Y-103874473D01*
X171987699Y-102078728D01*
X171981291Y-102019117D01*
X171956745Y-101953307D01*
X171930997Y-101884271D01*
X171930993Y-101884264D01*
X171844747Y-101769055D01*
X171844744Y-101769052D01*
X171729535Y-101682806D01*
X171729528Y-101682802D01*
X171598117Y-101633789D01*
X171542183Y-101591918D01*
X171517766Y-101526453D01*
X171532618Y-101458180D01*
X171553763Y-101429932D01*
X171667304Y-101316392D01*
X171792251Y-101144416D01*
X171888757Y-100955012D01*
X171954446Y-100752843D01*
X171987700Y-100542887D01*
X171987700Y-100330313D01*
X171954446Y-100120357D01*
X171888757Y-99918188D01*
X171792251Y-99728784D01*
X171792249Y-99728781D01*
X171792248Y-99728779D01*
X171667309Y-99556813D01*
X171516986Y-99406490D01*
X171345020Y-99281551D01*
X171155614Y-99185044D01*
X171155613Y-99185043D01*
X171155612Y-99185043D01*
X170953443Y-99119354D01*
X170953441Y-99119353D01*
X170953440Y-99119353D01*
X170792157Y-99093808D01*
X170743487Y-99086100D01*
X170530913Y-99086100D01*
X170482242Y-99093808D01*
X170320960Y-99119353D01*
X170118785Y-99185044D01*
X169929379Y-99281551D01*
X169757413Y-99406490D01*
X169607090Y-99556813D01*
X169482151Y-99728779D01*
X169385644Y-99918185D01*
X169319953Y-100120360D01*
X169286700Y-100330313D01*
X158893899Y-100330313D01*
X159554739Y-99669472D01*
X159616060Y-99635989D01*
X159666610Y-99635538D01*
X159727750Y-99647700D01*
X159727753Y-99647700D01*
X159885439Y-99647700D01*
X159885440Y-99647699D01*
X160040092Y-99616937D01*
X160152761Y-99570267D01*
X160185767Y-99556597D01*
X160185767Y-99556596D01*
X160185774Y-99556594D01*
X160316884Y-99468989D01*
X160428384Y-99357489D01*
X160515989Y-99226379D01*
X160576332Y-99080697D01*
X160607095Y-98926042D01*
X160607095Y-98849206D01*
X160626780Y-98782167D01*
X160647873Y-98757282D01*
X160657660Y-98748420D01*
X160693516Y-98727720D01*
X160805320Y-98615916D01*
X160805321Y-98615913D01*
X165306106Y-94115128D01*
X165306111Y-94115124D01*
X165316314Y-94104920D01*
X165316316Y-94104920D01*
X165428120Y-93993116D01*
X165507177Y-93856184D01*
X165548100Y-93703457D01*
X165548100Y-90953535D01*
X169540700Y-90953535D01*
X169540700Y-92749270D01*
X169540701Y-92749276D01*
X169547108Y-92808883D01*
X169597402Y-92943728D01*
X169597406Y-92943735D01*
X169683652Y-93058944D01*
X169683655Y-93058947D01*
X169798864Y-93145193D01*
X169798871Y-93145197D01*
X169933717Y-93195491D01*
X169933716Y-93195491D01*
X169940644Y-93196235D01*
X169993327Y-93201900D01*
X171789072Y-93201899D01*
X171848683Y-93195491D01*
X171983531Y-93145196D01*
X172098746Y-93058946D01*
X172184996Y-92943731D01*
X172235291Y-92808883D01*
X172241700Y-92749273D01*
X172241699Y-90953528D01*
X172235291Y-90893917D01*
X172229875Y-90879397D01*
X172184997Y-90759071D01*
X172184993Y-90759064D01*
X172098747Y-90643855D01*
X172098744Y-90643852D01*
X171983535Y-90557606D01*
X171983528Y-90557602D01*
X171848682Y-90507308D01*
X171848683Y-90507308D01*
X171789083Y-90500901D01*
X171789081Y-90500900D01*
X171789073Y-90500900D01*
X171789065Y-90500900D01*
X171778509Y-90500900D01*
X171711470Y-90481215D01*
X171690828Y-90464581D01*
X171020608Y-89794362D01*
X171084193Y-89777325D01*
X171198207Y-89711499D01*
X171291299Y-89618407D01*
X171357125Y-89504393D01*
X171374162Y-89440809D01*
X172006470Y-90073117D01*
X172006470Y-90073116D01*
X172045822Y-90018954D01*
X172142295Y-89829617D01*
X172207957Y-89627530D01*
X172207957Y-89627527D01*
X172241200Y-89417646D01*
X172241200Y-89205153D01*
X172207957Y-88995272D01*
X172207957Y-88995269D01*
X172142295Y-88793182D01*
X172045824Y-88603849D01*
X172006470Y-88549682D01*
X172006469Y-88549682D01*
X171374162Y-89181990D01*
X171357125Y-89118407D01*
X171291299Y-89004393D01*
X171198207Y-88911301D01*
X171084193Y-88845475D01*
X171020609Y-88828437D01*
X171652916Y-88196128D01*
X171598750Y-88156775D01*
X171409417Y-88060304D01*
X171207329Y-87994642D01*
X170997446Y-87961400D01*
X170784954Y-87961400D01*
X170575072Y-87994642D01*
X170575069Y-87994642D01*
X170372982Y-88060304D01*
X170183639Y-88156780D01*
X170129482Y-88196127D01*
X170129482Y-88196128D01*
X170761791Y-88828437D01*
X170698207Y-88845475D01*
X170584193Y-88911301D01*
X170491101Y-89004393D01*
X170425275Y-89118407D01*
X170408237Y-89181991D01*
X169775928Y-88549682D01*
X169775927Y-88549682D01*
X169736580Y-88603839D01*
X169640104Y-88793182D01*
X169574442Y-88995269D01*
X169574442Y-88995272D01*
X169541200Y-89205153D01*
X169541200Y-89417646D01*
X169574442Y-89627527D01*
X169574442Y-89627530D01*
X169640104Y-89829617D01*
X169736575Y-90018950D01*
X169775928Y-90073116D01*
X170408237Y-89440808D01*
X170425275Y-89504393D01*
X170491101Y-89618407D01*
X170584193Y-89711499D01*
X170698207Y-89777325D01*
X170761790Y-89794362D01*
X170091570Y-90464581D01*
X170030247Y-90498066D01*
X170003898Y-90500900D01*
X169993334Y-90500900D01*
X169993323Y-90500901D01*
X169933716Y-90507308D01*
X169798871Y-90557602D01*
X169798864Y-90557606D01*
X169683655Y-90643852D01*
X169683652Y-90643855D01*
X169597406Y-90759064D01*
X169597402Y-90759071D01*
X169547108Y-90893917D01*
X169540701Y-90953516D01*
X169540701Y-90953523D01*
X169540700Y-90953535D01*
X165548100Y-90953535D01*
X165548100Y-79675365D01*
X165567785Y-79608326D01*
X165568998Y-79606474D01*
X165656990Y-79474785D01*
X165656990Y-79474784D01*
X165656994Y-79474779D01*
X165717337Y-79329097D01*
X165748100Y-79174442D01*
X165748100Y-79016758D01*
X165748100Y-79016755D01*
X165748099Y-79016753D01*
X165717338Y-78862110D01*
X165717337Y-78862103D01*
X165661252Y-78726700D01*
X165656997Y-78716427D01*
X165656990Y-78716414D01*
X165569389Y-78585311D01*
X165569386Y-78585307D01*
X165457892Y-78473813D01*
X165457888Y-78473810D01*
X165326785Y-78386209D01*
X165326772Y-78386202D01*
X165181101Y-78325864D01*
X165181089Y-78325861D01*
X165026445Y-78295100D01*
X165026442Y-78295100D01*
X164868758Y-78295100D01*
X164868755Y-78295100D01*
X164714110Y-78325861D01*
X164714098Y-78325864D01*
X164568427Y-78386202D01*
X164568414Y-78386209D01*
X164437311Y-78473810D01*
X164437307Y-78473813D01*
X164325813Y-78585307D01*
X164325810Y-78585311D01*
X164238209Y-78716414D01*
X164238202Y-78716427D01*
X164177864Y-78862098D01*
X164177861Y-78862110D01*
X164147100Y-79016753D01*
X164147100Y-79174446D01*
X164177861Y-79329089D01*
X164177864Y-79329101D01*
X164238202Y-79474772D01*
X164238209Y-79474785D01*
X164326202Y-79606474D01*
X164347080Y-79673151D01*
X164347100Y-79675365D01*
X164347100Y-92109617D01*
X164327415Y-92176656D01*
X164274611Y-92222411D01*
X164205453Y-92232355D01*
X164141897Y-92203330D01*
X164135419Y-92197298D01*
X158817686Y-86879565D01*
X158784201Y-86818242D01*
X158783750Y-86816075D01*
X158757738Y-86685310D01*
X158757737Y-86685303D01*
X158718776Y-86591242D01*
X158697397Y-86539627D01*
X158697390Y-86539614D01*
X158609789Y-86408511D01*
X158609786Y-86408507D01*
X158498292Y-86297013D01*
X158498288Y-86297010D01*
X158367185Y-86209409D01*
X158367172Y-86209402D01*
X158221501Y-86149064D01*
X158221489Y-86149061D01*
X158066845Y-86118300D01*
X158066842Y-86118300D01*
X157909158Y-86118300D01*
X157909155Y-86118300D01*
X157754510Y-86149061D01*
X157754498Y-86149064D01*
X157608827Y-86209402D01*
X157608814Y-86209409D01*
X157477711Y-86297010D01*
X157477707Y-86297013D01*
X157366213Y-86408507D01*
X157366210Y-86408511D01*
X157278609Y-86539614D01*
X157278602Y-86539627D01*
X157218264Y-86685298D01*
X157218261Y-86685310D01*
X157187500Y-86839953D01*
X157187500Y-86997646D01*
X157218261Y-87152289D01*
X157218264Y-87152301D01*
X157278602Y-87297972D01*
X157278609Y-87297985D01*
X157366210Y-87429088D01*
X157366213Y-87429092D01*
X157477707Y-87540586D01*
X157477711Y-87540589D01*
X157608814Y-87628190D01*
X157608827Y-87628197D01*
X157754498Y-87688535D01*
X157754503Y-87688537D01*
X157909158Y-87719300D01*
X157909163Y-87719300D01*
X157915218Y-87719897D01*
X157915060Y-87721493D01*
X157974628Y-87738985D01*
X157995270Y-87755619D01*
X163610683Y-93371032D01*
X163644168Y-93432355D01*
X163639184Y-93502047D01*
X163610683Y-93546394D01*
X160310108Y-96846969D01*
X160248785Y-96880454D01*
X160190911Y-96878127D01*
X160190807Y-96878651D01*
X160187481Y-96877989D01*
X160186425Y-96877947D01*
X160184837Y-96877465D01*
X160184832Y-96877463D01*
X160184825Y-96877461D01*
X160184820Y-96877460D01*
X160030180Y-96846700D01*
X160030177Y-96846700D01*
X159872493Y-96846700D01*
X159872490Y-96846700D01*
X159717845Y-96877461D01*
X159717833Y-96877464D01*
X159572162Y-96937802D01*
X159572149Y-96937809D01*
X159441046Y-97025410D01*
X159441042Y-97025413D01*
X159329548Y-97136907D01*
X159329545Y-97136911D01*
X159241944Y-97268014D01*
X159241937Y-97268027D01*
X159181599Y-97413698D01*
X159181596Y-97413708D01*
X159155104Y-97546892D01*
X159122719Y-97608803D01*
X159062003Y-97643377D01*
X159033487Y-97646700D01*
X155572140Y-97646700D01*
X155531219Y-97657664D01*
X155531219Y-97657665D01*
X155493951Y-97667651D01*
X155419414Y-97687623D01*
X155419409Y-97687626D01*
X155282490Y-97766675D01*
X155282482Y-97766681D01*
X154214139Y-98835025D01*
X154152816Y-98868510D01*
X154150650Y-98868961D01*
X153995308Y-98899861D01*
X153995298Y-98899864D01*
X153849627Y-98960202D01*
X153849614Y-98960209D01*
X153718511Y-99047810D01*
X153718507Y-99047813D01*
X153607013Y-99159307D01*
X153607010Y-99159311D01*
X153519409Y-99290414D01*
X153519402Y-99290427D01*
X153459064Y-99436098D01*
X153459061Y-99436110D01*
X153428300Y-99590753D01*
X147514100Y-99590753D01*
X147514100Y-77695097D01*
X147533785Y-77628058D01*
X147586589Y-77582303D01*
X147655747Y-77572359D01*
X147719303Y-77601384D01*
X147725781Y-77607416D01*
X153699025Y-83580660D01*
X153732510Y-83641983D01*
X153732961Y-83644149D01*
X153763861Y-83799491D01*
X153763864Y-83799501D01*
X153824202Y-83945172D01*
X153824209Y-83945185D01*
X153911810Y-84076288D01*
X153911813Y-84076292D01*
X154023307Y-84187786D01*
X154023311Y-84187789D01*
X154154414Y-84275390D01*
X154154427Y-84275397D01*
X154300098Y-84335735D01*
X154300103Y-84335737D01*
X154454753Y-84366499D01*
X154454756Y-84366500D01*
X154454758Y-84366500D01*
X154612444Y-84366500D01*
X154612445Y-84366499D01*
X154767097Y-84335737D01*
X154912779Y-84275394D01*
X155043889Y-84187789D01*
X155155389Y-84076289D01*
X155242994Y-83945179D01*
X155303337Y-83799497D01*
X155334100Y-83644842D01*
X155334100Y-83487158D01*
X155334100Y-83487155D01*
X155334099Y-83487153D01*
X155319924Y-83415892D01*
X155303337Y-83332503D01*
X155283569Y-83284779D01*
X155242997Y-83186827D01*
X155242990Y-83186814D01*
X155155389Y-83055711D01*
X155155386Y-83055707D01*
X155043892Y-82944213D01*
X155013294Y-82923768D01*
X155013292Y-82923766D01*
X154912785Y-82856609D01*
X154912772Y-82856602D01*
X154840709Y-82826753D01*
X157492300Y-82826753D01*
X157492300Y-82984446D01*
X157523061Y-83139089D01*
X157523064Y-83139101D01*
X157583402Y-83284772D01*
X157583409Y-83284785D01*
X157671010Y-83415888D01*
X157671013Y-83415892D01*
X157782507Y-83527386D01*
X157782511Y-83527389D01*
X157913614Y-83614990D01*
X157913627Y-83614997D01*
X158059298Y-83675335D01*
X158059303Y-83675337D01*
X158123947Y-83688195D01*
X158214649Y-83706238D01*
X158276560Y-83738623D01*
X158278137Y-83740172D01*
X159549684Y-85011720D01*
X159549686Y-85011721D01*
X159549690Y-85011724D01*
X159686609Y-85090773D01*
X159686616Y-85090777D01*
X159839343Y-85131701D01*
X159839345Y-85131701D01*
X160005054Y-85131701D01*
X160005070Y-85131700D01*
X160100634Y-85131700D01*
X160167673Y-85151385D01*
X160169525Y-85152598D01*
X160301214Y-85240590D01*
X160301227Y-85240597D01*
X160446898Y-85300935D01*
X160446903Y-85300937D01*
X160601553Y-85331699D01*
X160601556Y-85331700D01*
X160601558Y-85331700D01*
X160759244Y-85331700D01*
X160759245Y-85331699D01*
X160913897Y-85300937D01*
X161059579Y-85240594D01*
X161190689Y-85152989D01*
X161302189Y-85041489D01*
X161389794Y-84910379D01*
X161450137Y-84764697D01*
X161480900Y-84610042D01*
X161480900Y-84452358D01*
X161480900Y-84452355D01*
X161480899Y-84452353D01*
X161450137Y-84297703D01*
X161440898Y-84275397D01*
X161389797Y-84152027D01*
X161389790Y-84152014D01*
X161302189Y-84020911D01*
X161302186Y-84020907D01*
X161190692Y-83909413D01*
X161190688Y-83909410D01*
X161059585Y-83821809D01*
X161059572Y-83821802D01*
X160913901Y-83761464D01*
X160913889Y-83761461D01*
X160759245Y-83730700D01*
X160759242Y-83730700D01*
X160601558Y-83730700D01*
X160601555Y-83730700D01*
X160446910Y-83761461D01*
X160446898Y-83761464D01*
X160301227Y-83821802D01*
X160301216Y-83821808D01*
X160240177Y-83862593D01*
X160173499Y-83883470D01*
X160106119Y-83864985D01*
X160083606Y-83847171D01*
X159127373Y-82890937D01*
X159093888Y-82829614D01*
X159093437Y-82827447D01*
X159062538Y-82672110D01*
X159062537Y-82672103D01*
X159010003Y-82545273D01*
X159002197Y-82526427D01*
X159002190Y-82526414D01*
X158914589Y-82395311D01*
X158914586Y-82395307D01*
X158803092Y-82283813D01*
X158803088Y-82283810D01*
X158671985Y-82196209D01*
X158671972Y-82196202D01*
X158526301Y-82135864D01*
X158526289Y-82135861D01*
X158371645Y-82105100D01*
X158371642Y-82105100D01*
X158213958Y-82105100D01*
X158213955Y-82105100D01*
X158059310Y-82135861D01*
X158059298Y-82135864D01*
X157913627Y-82196202D01*
X157913614Y-82196209D01*
X157782511Y-82283810D01*
X157782507Y-82283813D01*
X157671013Y-82395307D01*
X157671010Y-82395311D01*
X157583409Y-82526414D01*
X157583402Y-82526427D01*
X157523064Y-82672098D01*
X157523061Y-82672110D01*
X157492300Y-82826753D01*
X154840709Y-82826753D01*
X154767101Y-82796264D01*
X154767091Y-82796261D01*
X154611749Y-82765361D01*
X154549838Y-82732976D01*
X154548260Y-82731425D01*
X148150419Y-76333584D01*
X148116934Y-76272261D01*
X148114100Y-76245903D01*
X148114100Y-74900165D01*
X148133785Y-74833126D01*
X148134998Y-74831274D01*
X148142090Y-74820661D01*
X148222994Y-74699579D01*
X148283337Y-74553897D01*
X148314100Y-74399242D01*
X148314100Y-74241558D01*
X148314100Y-74241555D01*
X148314099Y-74241553D01*
X148283338Y-74086910D01*
X148283337Y-74086903D01*
X148277627Y-74073118D01*
X148222997Y-73941227D01*
X148222990Y-73941214D01*
X148135389Y-73810111D01*
X148135386Y-73810107D01*
X148023892Y-73698613D01*
X148023888Y-73698610D01*
X147892785Y-73611009D01*
X147892772Y-73611002D01*
X147747101Y-73550664D01*
X147747091Y-73550661D01*
X147613908Y-73524169D01*
X147551997Y-73491784D01*
X147517423Y-73431068D01*
X147514100Y-73402552D01*
X147514100Y-67008647D01*
X147533785Y-66941608D01*
X147586589Y-66895853D01*
X147613909Y-66887030D01*
X147629891Y-66883850D01*
X147747097Y-66860537D01*
X147892779Y-66800194D01*
X147892785Y-66800190D01*
X148024475Y-66712198D01*
X148091153Y-66691320D01*
X148093366Y-66691300D01*
X155818531Y-66691300D01*
X155818547Y-66691301D01*
X155826143Y-66691301D01*
X155984254Y-66691301D01*
X155984257Y-66691301D01*
X156136985Y-66650377D01*
X156187104Y-66621439D01*
X156273916Y-66571320D01*
X156385720Y-66459516D01*
X156385720Y-66459514D01*
X156395928Y-66449307D01*
X156395930Y-66449304D01*
X156914506Y-65930728D01*
X156914511Y-65930724D01*
X156924714Y-65920520D01*
X156924716Y-65920520D01*
X157036520Y-65808716D01*
X157095278Y-65706943D01*
X157115577Y-65671785D01*
X157156500Y-65519057D01*
X157156500Y-65360943D01*
X157156500Y-59472199D01*
X157154095Y-59463221D01*
X157115577Y-59319471D01*
X157058500Y-59220611D01*
X157036520Y-59182540D01*
X156924716Y-59070736D01*
X156924713Y-59070734D01*
X156801573Y-58947594D01*
X156768088Y-58886271D01*
X156767637Y-58884104D01*
X156736737Y-58728765D01*
X156736736Y-58728758D01*
X156722545Y-58694498D01*
X156676396Y-58583082D01*
X156676389Y-58583069D01*
X156588788Y-58451966D01*
X156588785Y-58451962D01*
X156477291Y-58340468D01*
X156477287Y-58340465D01*
X156346184Y-58252864D01*
X156346171Y-58252857D01*
X156200500Y-58192519D01*
X156200488Y-58192516D01*
X156045844Y-58161755D01*
X156045841Y-58161755D01*
X155888157Y-58161755D01*
X155888154Y-58161755D01*
X155733509Y-58192516D01*
X155733497Y-58192519D01*
X155587826Y-58252857D01*
X155587813Y-58252864D01*
X155474908Y-58328306D01*
X155408230Y-58349184D01*
X155340850Y-58330700D01*
X155318336Y-58312885D01*
X148380605Y-51375155D01*
X148380603Y-51375152D01*
X148261732Y-51256281D01*
X148261731Y-51256280D01*
X148174919Y-51206160D01*
X148174919Y-51206159D01*
X148174915Y-51206158D01*
X148124800Y-51177223D01*
X147972072Y-51136299D01*
X147813958Y-51136299D01*
X147806362Y-51136299D01*
X147806346Y-51136300D01*
X146157457Y-51136300D01*
X145999342Y-51136300D01*
X145846615Y-51177223D01*
X145846614Y-51177223D01*
X145846612Y-51177224D01*
X145846609Y-51177225D01*
X145796496Y-51206159D01*
X145796495Y-51206160D01*
X145753089Y-51231220D01*
X145709685Y-51256279D01*
X145709682Y-51256281D01*
X145597878Y-51368086D01*
X143776255Y-53189708D01*
X143714932Y-53223193D01*
X143645240Y-53218209D01*
X143589307Y-53176337D01*
X143582453Y-53166169D01*
X143577599Y-53158139D01*
X143558994Y-53113221D01*
X143471389Y-52982111D01*
X143470920Y-52981642D01*
X143467979Y-52976776D01*
X143459751Y-52945608D01*
X143450120Y-52914847D01*
X143450100Y-52912634D01*
X143450100Y-46453745D01*
X143450100Y-46453743D01*
X143409177Y-46301016D01*
X143409177Y-46301015D01*
X143409177Y-46301014D01*
X143380239Y-46250895D01*
X143380237Y-46250892D01*
X143330120Y-46164084D01*
X143218316Y-46052280D01*
X143218315Y-46052279D01*
X143213985Y-46047949D01*
X143213974Y-46047939D01*
X142590216Y-45424181D01*
X142556731Y-45362858D01*
X142561715Y-45293166D01*
X142603587Y-45237233D01*
X142669051Y-45212816D01*
X142677897Y-45212500D01*
X146064303Y-45212500D01*
X146131342Y-45232185D01*
X146151984Y-45248819D01*
X159845825Y-58942660D01*
X159879310Y-59003983D01*
X159879761Y-59006149D01*
X159910661Y-59161491D01*
X159910664Y-59161501D01*
X159971002Y-59307172D01*
X159971009Y-59307185D01*
X160058610Y-59438288D01*
X160058613Y-59438292D01*
X160170107Y-59549786D01*
X160170111Y-59549789D01*
X160301214Y-59637390D01*
X160301227Y-59637397D01*
X160446898Y-59697735D01*
X160446903Y-59697737D01*
X160601553Y-59728499D01*
X160601556Y-59728500D01*
X160601558Y-59728500D01*
X160759244Y-59728500D01*
X160759245Y-59728499D01*
X160913897Y-59697737D01*
X161059579Y-59637394D01*
X161190689Y-59549789D01*
X161302189Y-59438289D01*
X161389794Y-59307179D01*
X161450137Y-59161497D01*
X161480900Y-59006842D01*
X161480900Y-58849158D01*
X161480900Y-58849155D01*
X161480899Y-58849153D01*
X161456952Y-58728765D01*
X161450137Y-58694503D01*
X161450135Y-58694498D01*
X161389797Y-58548827D01*
X161389790Y-58548814D01*
X161302189Y-58417711D01*
X161302186Y-58417707D01*
X161190692Y-58306213D01*
X161190688Y-58306210D01*
X161059585Y-58218609D01*
X161059572Y-58218602D01*
X160913901Y-58158264D01*
X160913891Y-58158261D01*
X160758549Y-58127361D01*
X160696638Y-58094976D01*
X160695060Y-58093425D01*
X146851990Y-44250355D01*
X146851988Y-44250352D01*
X146733117Y-44131481D01*
X146733116Y-44131480D01*
X146646304Y-44081360D01*
X146646304Y-44081359D01*
X146646300Y-44081358D01*
X146596185Y-44052423D01*
X146443457Y-44011499D01*
X146285343Y-44011499D01*
X146277747Y-44011499D01*
X146277731Y-44011500D01*
X143072693Y-44011500D01*
X143005654Y-43991815D01*
X142959899Y-43939011D01*
X142949955Y-43869853D01*
X142974317Y-43812014D01*
X143006848Y-43769617D01*
X143079873Y-43674450D01*
X143197884Y-43470049D01*
X143288206Y-43251993D01*
X143349293Y-43024014D01*
X143380100Y-42790011D01*
X143380100Y-42553989D01*
X143349293Y-42319986D01*
X143288206Y-42092007D01*
X143197884Y-41873951D01*
X143197882Y-41873948D01*
X143197880Y-41873943D01*
X143155718Y-41800918D01*
X143079873Y-41669550D01*
X142936192Y-41482301D01*
X142936187Y-41482295D01*
X142769304Y-41315412D01*
X142769297Y-41315406D01*
X142582054Y-41171730D01*
X142582053Y-41171729D01*
X142582050Y-41171727D01*
X142500557Y-41124677D01*
X142377656Y-41053719D01*
X142377645Y-41053714D01*
X142159593Y-40963394D01*
X141931610Y-40902306D01*
X141697620Y-40871501D01*
X141697617Y-40871500D01*
X141697611Y-40871500D01*
X141461589Y-40871500D01*
X141461583Y-40871500D01*
X141461579Y-40871501D01*
X141227589Y-40902306D01*
X140999606Y-40963394D01*
X140781554Y-41053714D01*
X140781543Y-41053719D01*
X140577145Y-41171730D01*
X140389902Y-41315406D01*
X140389895Y-41315412D01*
X140223012Y-41482295D01*
X140223006Y-41482302D01*
X140079330Y-41669545D01*
X139961319Y-41873943D01*
X139961314Y-41873954D01*
X139870994Y-42092006D01*
X139809906Y-42319989D01*
X139779101Y-42553979D01*
X139779100Y-42553995D01*
X139779100Y-42790004D01*
X139779101Y-42790020D01*
X139809906Y-43024010D01*
X139870994Y-43251993D01*
X139961314Y-43470045D01*
X139961319Y-43470056D01*
X140032277Y-43592957D01*
X140079327Y-43674450D01*
X140079329Y-43674453D01*
X140079330Y-43674454D01*
X140223006Y-43861697D01*
X140223012Y-43861704D01*
X140389895Y-44028587D01*
X140389902Y-44028593D01*
X140577151Y-44172274D01*
X140623341Y-44198941D01*
X140671558Y-44249507D01*
X140684782Y-44318114D01*
X140658815Y-44382979D01*
X140649024Y-44394010D01*
X136435686Y-48607349D01*
X136323881Y-48719153D01*
X136323879Y-48719156D01*
X136273761Y-48805965D01*
X136273759Y-48805967D01*
X136244825Y-48856080D01*
X136244824Y-48856081D01*
X136244823Y-48856086D01*
X136203899Y-49008814D01*
X136203899Y-49008816D01*
X136203899Y-49176917D01*
X136203900Y-49176930D01*
X136203900Y-51490234D01*
X136184215Y-51557273D01*
X136183002Y-51559125D01*
X136095009Y-51690814D01*
X136095002Y-51690827D01*
X136034664Y-51836498D01*
X136034661Y-51836507D01*
X136015809Y-51931281D01*
X135983423Y-51993191D01*
X135922707Y-52027765D01*
X135892396Y-52031075D01*
X135876983Y-52030851D01*
X135867457Y-52028299D01*
X135709343Y-52028299D01*
X135709339Y-52028300D01*
X119357457Y-52028300D01*
X119199342Y-52028300D01*
X119199340Y-52028300D01*
X119158419Y-52039264D01*
X119158419Y-52039265D01*
X119121151Y-52049251D01*
X119046614Y-52069223D01*
X119046609Y-52069226D01*
X118909690Y-52148275D01*
X118909682Y-52148281D01*
X115191081Y-55866882D01*
X115191079Y-55866885D01*
X115140961Y-55953694D01*
X115140959Y-55953696D01*
X115112025Y-56003809D01*
X115112024Y-56003810D01*
X115112023Y-56003815D01*
X115071099Y-56156543D01*
X115071099Y-56156545D01*
X115071099Y-56324646D01*
X115071100Y-56324659D01*
X115071100Y-71145337D01*
X115051415Y-71212376D01*
X114998611Y-71258131D01*
X114983103Y-71263995D01*
X114980905Y-71264661D01*
X114835227Y-71325002D01*
X114835214Y-71325009D01*
X114704111Y-71412610D01*
X114704107Y-71412613D01*
X114592613Y-71524107D01*
X114592610Y-71524111D01*
X114505009Y-71655214D01*
X114505002Y-71655227D01*
X114444664Y-71800898D01*
X114444661Y-71800910D01*
X114413900Y-71955553D01*
X114413900Y-72113246D01*
X114444661Y-72267889D01*
X114444664Y-72267901D01*
X114505002Y-72413572D01*
X114505009Y-72413585D01*
X114592610Y-72544688D01*
X114592613Y-72544692D01*
X114704107Y-72656186D01*
X114704111Y-72656189D01*
X114835214Y-72743790D01*
X114835227Y-72743797D01*
X114980898Y-72804135D01*
X114980903Y-72804137D01*
X115117430Y-72831294D01*
X115135553Y-72834899D01*
X115135556Y-72834900D01*
X115135558Y-72834900D01*
X115293244Y-72834900D01*
X115293245Y-72834899D01*
X115447897Y-72804137D01*
X115593579Y-72743794D01*
X115649247Y-72706598D01*
X115715925Y-72685720D01*
X115718138Y-72685700D01*
X115750655Y-72685700D01*
X115750657Y-72685700D01*
X115903384Y-72644777D01*
X116040316Y-72565720D01*
X116152120Y-72453916D01*
X116231177Y-72316984D01*
X116272100Y-72164257D01*
X116272100Y-56535697D01*
X116291785Y-56468658D01*
X116308419Y-56448016D01*
X119490816Y-53265619D01*
X119552139Y-53232134D01*
X119578497Y-53229300D01*
X131517752Y-53229300D01*
X131584791Y-53248985D01*
X131630546Y-53301789D01*
X131639369Y-53329108D01*
X131665861Y-53462291D01*
X131665864Y-53462301D01*
X131726202Y-53607972D01*
X131726209Y-53607985D01*
X131813810Y-53739088D01*
X131813813Y-53739092D01*
X131925307Y-53850586D01*
X131925311Y-53850589D01*
X132056414Y-53938190D01*
X132056427Y-53938197D01*
X132202098Y-53998535D01*
X132202103Y-53998537D01*
X132356753Y-54029299D01*
X132356756Y-54029300D01*
X132356758Y-54029300D01*
X132514444Y-54029300D01*
X132514445Y-54029299D01*
X132669097Y-53998537D01*
X132814779Y-53938194D01*
X132945889Y-53850589D01*
X133057389Y-53739089D01*
X133066395Y-53725611D01*
X133120006Y-53680805D01*
X133169498Y-53670500D01*
X140397900Y-53670500D01*
X140406585Y-53673050D01*
X140415547Y-53671762D01*
X140439587Y-53682740D01*
X140464939Y-53690185D01*
X140470866Y-53697025D01*
X140479103Y-53700787D01*
X140493392Y-53723021D01*
X140510694Y-53742989D01*
X140512981Y-53753503D01*
X140516877Y-53759565D01*
X140521900Y-53794500D01*
X140521900Y-53862930D01*
X140521899Y-53862948D01*
X140521899Y-54028654D01*
X140521898Y-54028654D01*
X140521899Y-54028657D01*
X140562823Y-54181385D01*
X140586380Y-54222187D01*
X140603827Y-54252407D01*
X140641881Y-54318317D01*
X140760749Y-54437185D01*
X140760755Y-54437190D01*
X140795825Y-54472260D01*
X140829310Y-54533583D01*
X140829761Y-54535749D01*
X140860661Y-54691091D01*
X140860664Y-54691101D01*
X140921002Y-54836772D01*
X140921009Y-54836785D01*
X141008610Y-54967888D01*
X141008613Y-54967892D01*
X141120107Y-55079386D01*
X141120111Y-55079389D01*
X141251214Y-55166990D01*
X141251227Y-55166997D01*
X141396898Y-55227335D01*
X141396903Y-55227337D01*
X141422393Y-55232407D01*
X141446028Y-55237109D01*
X141507939Y-55269494D01*
X141542513Y-55330209D01*
X141543455Y-55382913D01*
X141541100Y-55394753D01*
X141541100Y-55552446D01*
X141571861Y-55707089D01*
X141571864Y-55707101D01*
X141632202Y-55852772D01*
X141632209Y-55852785D01*
X141719810Y-55983888D01*
X141719813Y-55983892D01*
X141831307Y-56095386D01*
X141831311Y-56095389D01*
X141962414Y-56182990D01*
X141962427Y-56182997D01*
X142108098Y-56243335D01*
X142108103Y-56243337D01*
X142262753Y-56274099D01*
X142262756Y-56274100D01*
X142262758Y-56274100D01*
X142420444Y-56274100D01*
X142420445Y-56274099D01*
X142575097Y-56243337D01*
X142720779Y-56182994D01*
X142851889Y-56095389D01*
X142963389Y-55983889D01*
X143050994Y-55852779D01*
X143111337Y-55707097D01*
X143137117Y-55577492D01*
X143142238Y-55551750D01*
X143174623Y-55489839D01*
X143176118Y-55488316D01*
X145085419Y-53579016D01*
X145146742Y-53545531D01*
X145216434Y-53550515D01*
X145272367Y-53592387D01*
X145296784Y-53657851D01*
X145297100Y-53666697D01*
X145297100Y-61149900D01*
X145277415Y-61216939D01*
X145224611Y-61262694D01*
X145173100Y-61273900D01*
X142001656Y-61273900D01*
X141848928Y-61314823D01*
X141800438Y-61342820D01*
X141800436Y-61342820D01*
X141712004Y-61393875D01*
X141711996Y-61393881D01*
X141617380Y-61488498D01*
X141600194Y-61505684D01*
X141600192Y-61505686D01*
X141063853Y-62042026D01*
X140541098Y-62564781D01*
X140479775Y-62598266D01*
X140453417Y-62601100D01*
X127613048Y-62601100D01*
X127546009Y-62581415D01*
X127500254Y-62528611D01*
X127491431Y-62501292D01*
X127464938Y-62368108D01*
X127464937Y-62368107D01*
X127464937Y-62368103D01*
X127408683Y-62232292D01*
X127404597Y-62222427D01*
X127404590Y-62222414D01*
X127316989Y-62091311D01*
X127316986Y-62091307D01*
X127205492Y-61979813D01*
X127205488Y-61979810D01*
X127074385Y-61892209D01*
X127074372Y-61892202D01*
X126928701Y-61831864D01*
X126928689Y-61831861D01*
X126774045Y-61801100D01*
X126774042Y-61801100D01*
X126616358Y-61801100D01*
X126616355Y-61801100D01*
X126461710Y-61831861D01*
X126461698Y-61831864D01*
X126316027Y-61892202D01*
X126316014Y-61892209D01*
X126184325Y-61980202D01*
X126117647Y-62001080D01*
X126115434Y-62001100D01*
X124401970Y-62001100D01*
X124361049Y-62012064D01*
X124361049Y-62012065D01*
X124323781Y-62022051D01*
X124249244Y-62042023D01*
X124249239Y-62042026D01*
X124112320Y-62121075D01*
X124112312Y-62121081D01*
X123081081Y-63152312D01*
X123081080Y-63152314D01*
X123049972Y-63206195D01*
X123002023Y-63289245D01*
X122961099Y-63441973D01*
X122961099Y-63441975D01*
X122961099Y-63610076D01*
X122961100Y-63610089D01*
X122961100Y-68245102D01*
X122941415Y-68312141D01*
X122924781Y-68332783D01*
X116978681Y-74278882D01*
X116978679Y-74278885D01*
X116928561Y-74365694D01*
X116928559Y-74365696D01*
X116899625Y-74415809D01*
X116899624Y-74415810D01*
X116899623Y-74415815D01*
X116858699Y-74568543D01*
X116858699Y-74568545D01*
X116858699Y-74736646D01*
X116858700Y-74736659D01*
X116858700Y-80598634D01*
X116839015Y-80665673D01*
X116837802Y-80667525D01*
X116749809Y-80799214D01*
X116749802Y-80799227D01*
X116689464Y-80944898D01*
X116689461Y-80944910D01*
X116658700Y-81099553D01*
X116658700Y-81257246D01*
X116689461Y-81411889D01*
X116689464Y-81411901D01*
X116749802Y-81557572D01*
X116749809Y-81557585D01*
X116837410Y-81688688D01*
X116837413Y-81688692D01*
X116948907Y-81800186D01*
X116948911Y-81800189D01*
X117080014Y-81887790D01*
X117080027Y-81887797D01*
X117225698Y-81948135D01*
X117225703Y-81948137D01*
X117336187Y-81970113D01*
X117358891Y-81974630D01*
X117420802Y-82007015D01*
X117455376Y-82067730D01*
X117458700Y-82096247D01*
X117458700Y-82478234D01*
X117439015Y-82545273D01*
X117437802Y-82547125D01*
X117349809Y-82678814D01*
X117349802Y-82678827D01*
X117289464Y-82824498D01*
X117289461Y-82824510D01*
X117258700Y-82979153D01*
X117258700Y-83136846D01*
X117289461Y-83291489D01*
X117289464Y-83291501D01*
X117349802Y-83437172D01*
X117349809Y-83437185D01*
X117437410Y-83568288D01*
X117437413Y-83568292D01*
X117548907Y-83679786D01*
X117548911Y-83679789D01*
X117680014Y-83767390D01*
X117680027Y-83767397D01*
X117811384Y-83821806D01*
X117825703Y-83827737D01*
X117923404Y-83847171D01*
X117980353Y-83858499D01*
X117980356Y-83858500D01*
X117980358Y-83858500D01*
X118138044Y-83858500D01*
X118138045Y-83858499D01*
X118292697Y-83827737D01*
X118438379Y-83767394D01*
X118569489Y-83679789D01*
X118680989Y-83568289D01*
X118768594Y-83437179D01*
X118828937Y-83291497D01*
X118859700Y-83136842D01*
X118859700Y-82979158D01*
X118859700Y-82979155D01*
X118859699Y-82979153D01*
X118852749Y-82944213D01*
X118828937Y-82824503D01*
X118817239Y-82796261D01*
X118768597Y-82678827D01*
X118768590Y-82678814D01*
X118680598Y-82547125D01*
X118659720Y-82480447D01*
X118659700Y-82478234D01*
X118659700Y-78184647D01*
X118679385Y-78117608D01*
X118732189Y-78071853D01*
X118759509Y-78063030D01*
X118775491Y-78059850D01*
X118892697Y-78036537D01*
X119038379Y-77976194D01*
X119038385Y-77976190D01*
X119170075Y-77888198D01*
X119236753Y-77867320D01*
X119238966Y-77867300D01*
X122051434Y-77867300D01*
X122118473Y-77886985D01*
X122120325Y-77888198D01*
X122252014Y-77976190D01*
X122252027Y-77976197D01*
X122397698Y-78036535D01*
X122397703Y-78036537D01*
X122552353Y-78067299D01*
X122552356Y-78067300D01*
X122552358Y-78067300D01*
X122710044Y-78067300D01*
X122710045Y-78067299D01*
X122864697Y-78036537D01*
X123010379Y-77976194D01*
X123141489Y-77888589D01*
X123252989Y-77777089D01*
X123340594Y-77645979D01*
X123400937Y-77500297D01*
X123431700Y-77345642D01*
X123431700Y-77187958D01*
X123431700Y-77187955D01*
X123431699Y-77187953D01*
X123400938Y-77033310D01*
X123400937Y-77033303D01*
X123400935Y-77033298D01*
X123340597Y-76887627D01*
X123340590Y-76887614D01*
X123252989Y-76756511D01*
X123252986Y-76756507D01*
X123141492Y-76645013D01*
X123141488Y-76645010D01*
X123010385Y-76557409D01*
X123010372Y-76557402D01*
X122864701Y-76497064D01*
X122864689Y-76497061D01*
X122710045Y-76466300D01*
X122710042Y-76466300D01*
X122552358Y-76466300D01*
X122552355Y-76466300D01*
X122397710Y-76497061D01*
X122397698Y-76497064D01*
X122252027Y-76557402D01*
X122252014Y-76557409D01*
X122120325Y-76645402D01*
X122053647Y-76666280D01*
X122051434Y-76666300D01*
X119238966Y-76666300D01*
X119171927Y-76646615D01*
X119170075Y-76645402D01*
X119038385Y-76557409D01*
X119038372Y-76557402D01*
X118892701Y-76497064D01*
X118892692Y-76497061D01*
X118877567Y-76494053D01*
X118815656Y-76461667D01*
X118781083Y-76400951D01*
X118784824Y-76331181D01*
X118814077Y-76284757D01*
X124725774Y-70373060D01*
X124781360Y-70340968D01*
X124787581Y-70339301D01*
X124787586Y-70339301D01*
X124940314Y-70298377D01*
X124990433Y-70269439D01*
X125077245Y-70219320D01*
X125189049Y-70107516D01*
X125189049Y-70107514D01*
X125199257Y-70097307D01*
X125199259Y-70097304D01*
X125520106Y-69776457D01*
X125520111Y-69776453D01*
X125530314Y-69766249D01*
X125530316Y-69766249D01*
X125642120Y-69654445D01*
X125700418Y-69553469D01*
X125721177Y-69517514D01*
X125762100Y-69364786D01*
X125762100Y-69206672D01*
X125762100Y-64726100D01*
X125781785Y-64659061D01*
X125834589Y-64613306D01*
X125886100Y-64602100D01*
X135088370Y-64602100D01*
X135155409Y-64621785D01*
X135201164Y-64674589D01*
X135209987Y-64701908D01*
X135236479Y-64835091D01*
X135236482Y-64835101D01*
X135296820Y-64980772D01*
X135296827Y-64980785D01*
X135384428Y-65111888D01*
X135384431Y-65111892D01*
X135495925Y-65223386D01*
X135495929Y-65223389D01*
X135627032Y-65310990D01*
X135627045Y-65310997D01*
X135747627Y-65360943D01*
X135772721Y-65371337D01*
X135823321Y-65381402D01*
X135928067Y-65402238D01*
X135944823Y-65411002D01*
X135963303Y-65415023D01*
X135988341Y-65433767D01*
X135989978Y-65434623D01*
X135991557Y-65436174D01*
X136167581Y-65612198D01*
X136201066Y-65673521D01*
X136203900Y-65699879D01*
X136203900Y-70895834D01*
X136184215Y-70962873D01*
X136183002Y-70964725D01*
X136095009Y-71096414D01*
X136095002Y-71096427D01*
X136034664Y-71242098D01*
X136034661Y-71242110D01*
X136003900Y-71396753D01*
X136003900Y-71554446D01*
X136034661Y-71709089D01*
X136034664Y-71709101D01*
X136095002Y-71854772D01*
X136095009Y-71854785D01*
X136182610Y-71985888D01*
X136182613Y-71985892D01*
X136294107Y-72097386D01*
X136294111Y-72097389D01*
X136425214Y-72184990D01*
X136425227Y-72184997D01*
X136570898Y-72245335D01*
X136570903Y-72245337D01*
X136725553Y-72276099D01*
X136725556Y-72276100D01*
X136725558Y-72276100D01*
X136883244Y-72276100D01*
X136883245Y-72276099D01*
X137037897Y-72245337D01*
X137183579Y-72184994D01*
X137314689Y-72097389D01*
X137426189Y-71985889D01*
X137513794Y-71854779D01*
X137574137Y-71709097D01*
X137604900Y-71554442D01*
X137604900Y-71396758D01*
X137604900Y-71396755D01*
X137604899Y-71396753D01*
X137590628Y-71325009D01*
X137574137Y-71242103D01*
X137534056Y-71145337D01*
X137513797Y-71096427D01*
X137513790Y-71096414D01*
X137425798Y-70964725D01*
X137404920Y-70898047D01*
X137404900Y-70895834D01*
X137404900Y-66690838D01*
X137424585Y-66623799D01*
X137477389Y-66578044D01*
X137546547Y-66568100D01*
X137553086Y-66569219D01*
X137563644Y-66571320D01*
X137639955Y-66586500D01*
X137639958Y-66586500D01*
X137797644Y-66586500D01*
X137797645Y-66586499D01*
X137952297Y-66555737D01*
X138097979Y-66495394D01*
X138229089Y-66407789D01*
X138340589Y-66296289D01*
X138428194Y-66165179D01*
X138488537Y-66019497D01*
X138519300Y-65864842D01*
X138519300Y-65707158D01*
X138519300Y-65707155D01*
X138519299Y-65707153D01*
X138512263Y-65671782D01*
X138488537Y-65552503D01*
X138474683Y-65519056D01*
X138428197Y-65406827D01*
X138428190Y-65406814D01*
X138340198Y-65275125D01*
X138319320Y-65208447D01*
X138319300Y-65206234D01*
X138319300Y-64781365D01*
X138338985Y-64714326D01*
X138340198Y-64712474D01*
X138428190Y-64580785D01*
X138428190Y-64580784D01*
X138428194Y-64580779D01*
X138488537Y-64435097D01*
X138493305Y-64411124D01*
X138515031Y-64301908D01*
X138547416Y-64239997D01*
X138608132Y-64205423D01*
X138636648Y-64202100D01*
X140832531Y-64202100D01*
X140832547Y-64202101D01*
X140840143Y-64202101D01*
X140998254Y-64202101D01*
X140998257Y-64202101D01*
X141150985Y-64161177D01*
X141217528Y-64122758D01*
X141287916Y-64082120D01*
X141399720Y-63970316D01*
X141399720Y-63970314D01*
X141409924Y-63960111D01*
X141409927Y-63960106D01*
X142401616Y-62968419D01*
X142462939Y-62934934D01*
X142489297Y-62932100D01*
X146189100Y-62932100D01*
X146256139Y-62951785D01*
X146301894Y-63004589D01*
X146313100Y-63056100D01*
X146313100Y-67655500D01*
X146293415Y-67722539D01*
X146240611Y-67768294D01*
X146210606Y-67777621D01*
X146199936Y-67779500D01*
X146174358Y-67779500D01*
X146019703Y-67810263D01*
X146015597Y-67811963D01*
X146004670Y-67813888D01*
X145977062Y-67810803D01*
X145949288Y-67811050D01*
X145942243Y-67806912D01*
X145935233Y-67806129D01*
X145920442Y-67794107D01*
X145895483Y-67779448D01*
X145673990Y-67557955D01*
X145673988Y-67557952D01*
X145555117Y-67439081D01*
X145555116Y-67439080D01*
X145468304Y-67388960D01*
X145468304Y-67388959D01*
X145468300Y-67388958D01*
X145418185Y-67360023D01*
X145265457Y-67319099D01*
X145107343Y-67319099D01*
X145099747Y-67319099D01*
X145099731Y-67319100D01*
X139532670Y-67319100D01*
X139532654Y-67319099D01*
X139525058Y-67319099D01*
X139366943Y-67319099D01*
X139290579Y-67339561D01*
X139214214Y-67360023D01*
X139214209Y-67360026D01*
X139077290Y-67439075D01*
X139077282Y-67439081D01*
X138460617Y-68055746D01*
X138460614Y-68055748D01*
X138460615Y-68055749D01*
X138355877Y-68160487D01*
X138332593Y-68200819D01*
X138332592Y-68200821D01*
X138276823Y-68297415D01*
X138235899Y-68450143D01*
X138235899Y-68450145D01*
X138235899Y-68618246D01*
X138235900Y-68618259D01*
X138235900Y-78726700D01*
X138216215Y-78793739D01*
X138163411Y-78839494D01*
X138111900Y-78850700D01*
X134655870Y-78850700D01*
X134655854Y-78850699D01*
X134648258Y-78850699D01*
X134490143Y-78850699D01*
X134413779Y-78871161D01*
X134337412Y-78891623D01*
X134337411Y-78891624D01*
X134312762Y-78905856D01*
X134200487Y-78970677D01*
X134200482Y-78970681D01*
X134088680Y-79082484D01*
X134088678Y-79082486D01*
X130690718Y-82480447D01*
X127295584Y-85875581D01*
X127234261Y-85909066D01*
X127207903Y-85911900D01*
X116759366Y-85911900D01*
X116692327Y-85892215D01*
X116690475Y-85891002D01*
X116558785Y-85803009D01*
X116558772Y-85803002D01*
X116413101Y-85742664D01*
X116413089Y-85742661D01*
X116258445Y-85711900D01*
X116258442Y-85711900D01*
X116100758Y-85711900D01*
X116100755Y-85711900D01*
X115946110Y-85742661D01*
X115946098Y-85742664D01*
X115800427Y-85803002D01*
X115800414Y-85803009D01*
X115669311Y-85890610D01*
X115669307Y-85890613D01*
X115557813Y-86002107D01*
X115557810Y-86002111D01*
X115470209Y-86133214D01*
X115470202Y-86133227D01*
X115409864Y-86278898D01*
X115409861Y-86278910D01*
X115379100Y-86433553D01*
X115379100Y-86591246D01*
X115409861Y-86745889D01*
X115409864Y-86745901D01*
X115470202Y-86891572D01*
X115470209Y-86891585D01*
X115557810Y-87022688D01*
X115557813Y-87022692D01*
X115669307Y-87134186D01*
X115669311Y-87134189D01*
X115800414Y-87221790D01*
X115800426Y-87221797D01*
X115871235Y-87251126D01*
X115925639Y-87294966D01*
X115945400Y-87341495D01*
X115946274Y-87345891D01*
X115946277Y-87345901D01*
X116006615Y-87491572D01*
X116006622Y-87491585D01*
X116094223Y-87622688D01*
X116094226Y-87622692D01*
X116205720Y-87734186D01*
X116205724Y-87734189D01*
X116336827Y-87821790D01*
X116336840Y-87821797D01*
X116482511Y-87882135D01*
X116482516Y-87882137D01*
X116637166Y-87912899D01*
X116637169Y-87912900D01*
X116637171Y-87912900D01*
X116794857Y-87912900D01*
X116794858Y-87912899D01*
X116949510Y-87882137D01*
X117095192Y-87821794D01*
X117226302Y-87734189D01*
X117337802Y-87622689D01*
X117341152Y-87617676D01*
X117394763Y-87572870D01*
X117444255Y-87562565D01*
X127537351Y-87562565D01*
X127537367Y-87562566D01*
X127544963Y-87562566D01*
X127703074Y-87562566D01*
X127703077Y-87562566D01*
X127855805Y-87521642D01*
X127907875Y-87491579D01*
X127992736Y-87442585D01*
X128104540Y-87330781D01*
X128104540Y-87330779D01*
X128114744Y-87320576D01*
X128114747Y-87320571D01*
X134835859Y-80599462D01*
X134897182Y-80565977D01*
X134923540Y-80563143D01*
X138803973Y-80563143D01*
X138803989Y-80563144D01*
X138811585Y-80563144D01*
X138969696Y-80563144D01*
X138969699Y-80563144D01*
X139122427Y-80522220D01*
X139172546Y-80493282D01*
X139259358Y-80443163D01*
X139371162Y-80331359D01*
X139371163Y-80331357D01*
X139716920Y-79985601D01*
X139795977Y-79848669D01*
X139836901Y-79695942D01*
X139836901Y-79537827D01*
X139836901Y-79530232D01*
X139836900Y-79530214D01*
X139836900Y-76314900D01*
X139856585Y-76247861D01*
X139909389Y-76202106D01*
X139960900Y-76190900D01*
X141558634Y-76190900D01*
X141625673Y-76210585D01*
X141627525Y-76211798D01*
X141759214Y-76299790D01*
X141759227Y-76299797D01*
X141904898Y-76360135D01*
X141904903Y-76360137D01*
X142059553Y-76390899D01*
X142059556Y-76390900D01*
X142059558Y-76390900D01*
X142217244Y-76390900D01*
X142217245Y-76390899D01*
X142371897Y-76360137D01*
X142517579Y-76299794D01*
X142648689Y-76212189D01*
X142760189Y-76100689D01*
X142847794Y-75969579D01*
X142908137Y-75823897D01*
X142938900Y-75669242D01*
X142938900Y-75511558D01*
X142938900Y-75511555D01*
X142938899Y-75511553D01*
X142908138Y-75356910D01*
X142908137Y-75356903D01*
X142901411Y-75340665D01*
X142847797Y-75211227D01*
X142847790Y-75211214D01*
X142760189Y-75080111D01*
X142760186Y-75080107D01*
X142648692Y-74968613D01*
X142648688Y-74968610D01*
X142517585Y-74881009D01*
X142517572Y-74881002D01*
X142371901Y-74820664D01*
X142371889Y-74820661D01*
X142217245Y-74789900D01*
X142217242Y-74789900D01*
X142059558Y-74789900D01*
X142059555Y-74789900D01*
X141904910Y-74820661D01*
X141904898Y-74820664D01*
X141759227Y-74881002D01*
X141759214Y-74881009D01*
X141627525Y-74969002D01*
X141560847Y-74989880D01*
X141558634Y-74989900D01*
X140785437Y-74989900D01*
X140718398Y-74970215D01*
X140672643Y-74917411D01*
X140662699Y-74848253D01*
X140691724Y-74784697D01*
X140698236Y-74778351D01*
X140697947Y-74778062D01*
X140813751Y-74662257D01*
X140813754Y-74662254D01*
X140901359Y-74531144D01*
X140961702Y-74385462D01*
X140992465Y-74230807D01*
X140992465Y-74073123D01*
X140992465Y-74073120D01*
X140992464Y-74073118D01*
X140961703Y-73918475D01*
X140961702Y-73918468D01*
X140961700Y-73918463D01*
X140901362Y-73772792D01*
X140901355Y-73772779D01*
X140813754Y-73641676D01*
X140813751Y-73641672D01*
X140702257Y-73530178D01*
X140702253Y-73530175D01*
X140571150Y-73442574D01*
X140571141Y-73442569D01*
X140502752Y-73414242D01*
X140462524Y-73387362D01*
X140270974Y-73195812D01*
X140237489Y-73134489D01*
X140237038Y-73132322D01*
X140206138Y-72976983D01*
X140206137Y-72976976D01*
X140153331Y-72849489D01*
X140145797Y-72831300D01*
X140145790Y-72831287D01*
X140058189Y-72700184D01*
X140058186Y-72700180D01*
X139946692Y-72588686D01*
X139946688Y-72588683D01*
X139815585Y-72501082D01*
X139815572Y-72501075D01*
X139669901Y-72440737D01*
X139669891Y-72440734D01*
X139536708Y-72414242D01*
X139474797Y-72381857D01*
X139440223Y-72321141D01*
X139436900Y-72292625D01*
X139436900Y-68829297D01*
X139456585Y-68762258D01*
X139473219Y-68741616D01*
X139658417Y-68556419D01*
X139719740Y-68522934D01*
X139746098Y-68520100D01*
X144886303Y-68520100D01*
X144915742Y-68528744D01*
X144945730Y-68535268D01*
X144950745Y-68539022D01*
X144953342Y-68539785D01*
X144973979Y-68556414D01*
X145079854Y-68662290D01*
X145113338Y-68723612D01*
X145108354Y-68793304D01*
X145066482Y-68849237D01*
X145054172Y-68857357D01*
X144985168Y-68897196D01*
X144985163Y-68897200D01*
X142377739Y-71504625D01*
X142316416Y-71538110D01*
X142314250Y-71538561D01*
X142158908Y-71569461D01*
X142158898Y-71569464D01*
X142013227Y-71629802D01*
X142013214Y-71629809D01*
X141882111Y-71717410D01*
X141882107Y-71717413D01*
X141770613Y-71828907D01*
X141770610Y-71828911D01*
X141683009Y-71960014D01*
X141683002Y-71960027D01*
X141622664Y-72105698D01*
X141622661Y-72105710D01*
X141591900Y-72260353D01*
X141591900Y-72418046D01*
X141622661Y-72572689D01*
X141622664Y-72572701D01*
X141683002Y-72718372D01*
X141683009Y-72718385D01*
X141770610Y-72849488D01*
X141770613Y-72849492D01*
X141882107Y-72960986D01*
X141882111Y-72960989D01*
X142013214Y-73048590D01*
X142013227Y-73048597D01*
X142158898Y-73108935D01*
X142158903Y-73108937D01*
X142272993Y-73131631D01*
X142313553Y-73139699D01*
X142313556Y-73139700D01*
X142313558Y-73139700D01*
X142471244Y-73139700D01*
X142471245Y-73139699D01*
X142625897Y-73108937D01*
X142771579Y-73048594D01*
X142902689Y-72960989D01*
X143014189Y-72849489D01*
X143101794Y-72718379D01*
X143162137Y-72572697D01*
X143188386Y-72440734D01*
X143193038Y-72417350D01*
X143225423Y-72355439D01*
X143226917Y-72353917D01*
X145301420Y-70279414D01*
X145362742Y-70245931D01*
X145432434Y-70250915D01*
X145488367Y-70292787D01*
X145512784Y-70358251D01*
X145513100Y-70367097D01*
X145513100Y-70487646D01*
X145543861Y-70642289D01*
X145543864Y-70642301D01*
X145604202Y-70787972D01*
X145604209Y-70787985D01*
X145692202Y-70919674D01*
X145713080Y-70986351D01*
X145713100Y-70988565D01*
X145713100Y-92801500D01*
X145693415Y-92868539D01*
X145640611Y-92914294D01*
X145589100Y-92925500D01*
X145463155Y-92925500D01*
X145308510Y-92956261D01*
X145308498Y-92956264D01*
X145162827Y-93016602D01*
X145162814Y-93016609D01*
X145031711Y-93104210D01*
X145031707Y-93104213D01*
X144920213Y-93215707D01*
X144920210Y-93215711D01*
X144832609Y-93346814D01*
X144832602Y-93346827D01*
X144772264Y-93492498D01*
X144772261Y-93492508D01*
X144741361Y-93647850D01*
X144708976Y-93709761D01*
X144707425Y-93711339D01*
X135673683Y-102745081D01*
X135627665Y-102791097D01*
X135608879Y-102806515D01*
X135532106Y-102857814D01*
X135532104Y-102857817D01*
X135420613Y-102969307D01*
X135420610Y-102969311D01*
X135333009Y-103100414D01*
X135333002Y-103100427D01*
X135272664Y-103246098D01*
X135272661Y-103246110D01*
X135241900Y-103400753D01*
X135241900Y-103558446D01*
X135272661Y-103713089D01*
X135272664Y-103713101D01*
X135333002Y-103858772D01*
X135333009Y-103858785D01*
X135420610Y-103989888D01*
X135420613Y-103989892D01*
X135532107Y-104101386D01*
X135532111Y-104101389D01*
X135663214Y-104188990D01*
X135663227Y-104188997D01*
X135773124Y-104234517D01*
X135808903Y-104249337D01*
X135963553Y-104280099D01*
X135963556Y-104280100D01*
X135963558Y-104280100D01*
X136121244Y-104280100D01*
X136121245Y-104280099D01*
X136275897Y-104249337D01*
X136421579Y-104188994D01*
X136552689Y-104101389D01*
X136664189Y-103989889D01*
X136751794Y-103858779D01*
X136812137Y-103713097D01*
X136842900Y-103558442D01*
X136842900Y-103400758D01*
X136834855Y-103360315D01*
X136841081Y-103290725D01*
X136868789Y-103248444D01*
X137946898Y-102170335D01*
X138008219Y-102136852D01*
X138077911Y-102141836D01*
X138117875Y-102167520D01*
X138118201Y-102167124D01*
X138121603Y-102169916D01*
X138122258Y-102170337D01*
X138122907Y-102170986D01*
X138122911Y-102170989D01*
X138254014Y-102258590D01*
X138254027Y-102258597D01*
X138399698Y-102318935D01*
X138399703Y-102318937D01*
X138554353Y-102349699D01*
X138554356Y-102349700D01*
X138554358Y-102349700D01*
X138712044Y-102349700D01*
X138712045Y-102349699D01*
X138866697Y-102318937D01*
X139003659Y-102262206D01*
X139012372Y-102258597D01*
X139012372Y-102258596D01*
X139012379Y-102258594D01*
X139143489Y-102170989D01*
X139254989Y-102059489D01*
X139342594Y-101928379D01*
X139402937Y-101782697D01*
X139422807Y-101682803D01*
X139433838Y-101627350D01*
X139466223Y-101565439D01*
X139467719Y-101563915D01*
X141111300Y-99920333D01*
X141172621Y-99886850D01*
X141223170Y-99886399D01*
X141348353Y-99911299D01*
X141348356Y-99911300D01*
X141348358Y-99911300D01*
X141506044Y-99911300D01*
X141506045Y-99911299D01*
X141660697Y-99880537D01*
X141806379Y-99820194D01*
X141937489Y-99732589D01*
X142048989Y-99621089D01*
X142136594Y-99489979D01*
X142196937Y-99344297D01*
X142227700Y-99189642D01*
X142227700Y-99031958D01*
X142227700Y-99031955D01*
X142227699Y-99031953D01*
X142213428Y-98960209D01*
X142196937Y-98877303D01*
X142147223Y-98757282D01*
X142136597Y-98731627D01*
X142136590Y-98731614D01*
X142048989Y-98600511D01*
X142048986Y-98600507D01*
X141937492Y-98489013D01*
X141937488Y-98489010D01*
X141877727Y-98449079D01*
X141832922Y-98395467D01*
X141824215Y-98326142D01*
X141854369Y-98263115D01*
X141858918Y-98258315D01*
X145501421Y-94615813D01*
X145562742Y-94582330D01*
X145632434Y-94587314D01*
X145688367Y-94629186D01*
X145712784Y-94694650D01*
X145713100Y-94703496D01*
X145713100Y-110146853D01*
X145713099Y-110146857D01*
X145713099Y-110304971D01*
X145714468Y-110310080D01*
X145714574Y-110323347D01*
X145707004Y-110349907D01*
X145702748Y-110377193D01*
X145696830Y-110385607D01*
X145695425Y-110390541D01*
X145690006Y-110395312D01*
X145678259Y-110412018D01*
X142985898Y-113104381D01*
X142924575Y-113137866D01*
X142898217Y-113140700D01*
X133726566Y-113140700D01*
X133659527Y-113121015D01*
X133657675Y-113119802D01*
X133525985Y-113031809D01*
X133525972Y-113031802D01*
X133380301Y-112971464D01*
X133380289Y-112971461D01*
X133225645Y-112940700D01*
X133225642Y-112940700D01*
X133067958Y-112940700D01*
X133067955Y-112940700D01*
X132913310Y-112971461D01*
X132913298Y-112971464D01*
X132767627Y-113031802D01*
X132767614Y-113031809D01*
X132636511Y-113119410D01*
X132636507Y-113119413D01*
X132525013Y-113230907D01*
X132525010Y-113230911D01*
X132437409Y-113362014D01*
X132437402Y-113362027D01*
X132377064Y-113507698D01*
X132377061Y-113507710D01*
X132346300Y-113662353D01*
X132346300Y-113820046D01*
X132377061Y-113974689D01*
X132377064Y-113974701D01*
X132437402Y-114120372D01*
X132437409Y-114120385D01*
X132525010Y-114251488D01*
X132525013Y-114251492D01*
X132636507Y-114362986D01*
X132636511Y-114362989D01*
X132767614Y-114450590D01*
X132767627Y-114450597D01*
X132887881Y-114500407D01*
X132913303Y-114510937D01*
X133067953Y-114541699D01*
X133067956Y-114541700D01*
X133067958Y-114541700D01*
X133225644Y-114541700D01*
X133225645Y-114541699D01*
X133380297Y-114510937D01*
X133525979Y-114450594D01*
X133580463Y-114414189D01*
X133657675Y-114362598D01*
X133724353Y-114341720D01*
X133726566Y-114341700D01*
X142014903Y-114341700D01*
X142081942Y-114361385D01*
X142127697Y-114414189D01*
X142137641Y-114483347D01*
X142108616Y-114546903D01*
X142102584Y-114553381D01*
X137500939Y-119155025D01*
X137439616Y-119188510D01*
X137437450Y-119188961D01*
X137282108Y-119219861D01*
X137282098Y-119219864D01*
X137136427Y-119280202D01*
X137136414Y-119280209D01*
X137005311Y-119367810D01*
X137005307Y-119367813D01*
X136893813Y-119479307D01*
X136893810Y-119479311D01*
X136806209Y-119610414D01*
X136806201Y-119610429D01*
X136789631Y-119650433D01*
X136745790Y-119704836D01*
X136679495Y-119726900D01*
X136627619Y-119717540D01*
X136529901Y-119677064D01*
X136529891Y-119677061D01*
X136373607Y-119645974D01*
X136369690Y-119644477D01*
X136367369Y-119644565D01*
X136357865Y-119639960D01*
X136334735Y-119631123D01*
X136323067Y-119624231D01*
X136319116Y-119620280D01*
X136198334Y-119550547D01*
X136182185Y-119541223D01*
X136029457Y-119500299D01*
X135871343Y-119500299D01*
X135863747Y-119500299D01*
X135863731Y-119500300D01*
X127266351Y-119500300D01*
X127199312Y-119480615D01*
X127153557Y-119427811D01*
X127143613Y-119358653D01*
X127151791Y-119328846D01*
X127160135Y-119308702D01*
X127160135Y-119308701D01*
X127160137Y-119308697D01*
X127190900Y-119154042D01*
X127190900Y-118996358D01*
X127190900Y-118996355D01*
X127190899Y-118996353D01*
X127166833Y-118875365D01*
X127160137Y-118841703D01*
X127155767Y-118831153D01*
X127099797Y-118696027D01*
X127099790Y-118696014D01*
X127012189Y-118564911D01*
X127012186Y-118564907D01*
X126900692Y-118453413D01*
X126900688Y-118453410D01*
X126769585Y-118365809D01*
X126769572Y-118365802D01*
X126623901Y-118305464D01*
X126623889Y-118305461D01*
X126469245Y-118274700D01*
X126469242Y-118274700D01*
X126319297Y-118274700D01*
X126299083Y-118268764D01*
X126278044Y-118267637D01*
X126266229Y-118259117D01*
X126252258Y-118255015D01*
X126238462Y-118239094D01*
X126221372Y-118226770D01*
X126216039Y-118213216D01*
X126206503Y-118202211D01*
X126203504Y-118181356D01*
X126195791Y-118161752D01*
X126197120Y-118136955D01*
X126196559Y-118133053D01*
X126197680Y-118126509D01*
X126225838Y-117984950D01*
X126258223Y-117923039D01*
X126259718Y-117921516D01*
X133251306Y-110929927D01*
X133251311Y-110929924D01*
X133261514Y-110919720D01*
X133261516Y-110919720D01*
X133373320Y-110807916D01*
X133431910Y-110706434D01*
X133452377Y-110670985D01*
X133493300Y-110518258D01*
X133493300Y-110360143D01*
X133493300Y-105191668D01*
X138886585Y-105191668D01*
X138886585Y-105349361D01*
X138917346Y-105504004D01*
X138917349Y-105504016D01*
X138977687Y-105649687D01*
X138977694Y-105649700D01*
X139065295Y-105780803D01*
X139065298Y-105780807D01*
X139176792Y-105892301D01*
X139176796Y-105892304D01*
X139307899Y-105979905D01*
X139307912Y-105979912D01*
X139453583Y-106040250D01*
X139453588Y-106040252D01*
X139608238Y-106071014D01*
X139608241Y-106071015D01*
X139608243Y-106071015D01*
X139765929Y-106071015D01*
X139765930Y-106071014D01*
X139920582Y-106040252D01*
X140066264Y-105979909D01*
X140197374Y-105892304D01*
X140308874Y-105780804D01*
X140396479Y-105649694D01*
X140456822Y-105504012D01*
X140476198Y-105406600D01*
X140487723Y-105348665D01*
X140520108Y-105286754D01*
X140521607Y-105285227D01*
X140972906Y-104833927D01*
X140972911Y-104833924D01*
X140983114Y-104823720D01*
X140983116Y-104823720D01*
X141094920Y-104711916D01*
X141173977Y-104574984D01*
X141205304Y-104458069D01*
X141214900Y-104422258D01*
X141214900Y-104264143D01*
X141214900Y-104160965D01*
X141234585Y-104093926D01*
X141235798Y-104092074D01*
X141323790Y-103960385D01*
X141323790Y-103960384D01*
X141323794Y-103960379D01*
X141334687Y-103934082D01*
X141359377Y-103874473D01*
X141384137Y-103814697D01*
X141414900Y-103660042D01*
X141414900Y-103502358D01*
X141414900Y-103502355D01*
X141414899Y-103502353D01*
X141404907Y-103452120D01*
X141384137Y-103347703D01*
X141376851Y-103330113D01*
X141323797Y-103202027D01*
X141323790Y-103202014D01*
X141236189Y-103070911D01*
X141236186Y-103070907D01*
X141124692Y-102959413D01*
X141124688Y-102959410D01*
X140993585Y-102871809D01*
X140993572Y-102871802D01*
X140847901Y-102811464D01*
X140847889Y-102811461D01*
X140693245Y-102780700D01*
X140693242Y-102780700D01*
X140535558Y-102780700D01*
X140535555Y-102780700D01*
X140380910Y-102811461D01*
X140380898Y-102811464D01*
X140235227Y-102871802D01*
X140235214Y-102871809D01*
X140104111Y-102959410D01*
X140104107Y-102959413D01*
X139992613Y-103070907D01*
X139992610Y-103070911D01*
X139905009Y-103202014D01*
X139905002Y-103202027D01*
X139844664Y-103347698D01*
X139844661Y-103347710D01*
X139813900Y-103502353D01*
X139813900Y-103660046D01*
X139844661Y-103814689D01*
X139844664Y-103814701D01*
X139905002Y-103960372D01*
X139905009Y-103960385D01*
X139945792Y-104021420D01*
X139966670Y-104088097D01*
X139948186Y-104155477D01*
X139930371Y-104177992D01*
X139672424Y-104435940D01*
X139611101Y-104469425D01*
X139608935Y-104469876D01*
X139453593Y-104500776D01*
X139453583Y-104500779D01*
X139307912Y-104561117D01*
X139307899Y-104561124D01*
X139176796Y-104648725D01*
X139176792Y-104648728D01*
X139065298Y-104760222D01*
X139065295Y-104760226D01*
X138977694Y-104891329D01*
X138977687Y-104891342D01*
X138917349Y-105037013D01*
X138917346Y-105037025D01*
X138886585Y-105191668D01*
X133493300Y-105191668D01*
X133493300Y-91250100D01*
X133512985Y-91183061D01*
X133565789Y-91137306D01*
X133617300Y-91126100D01*
X134533691Y-91126100D01*
X134600730Y-91145785D01*
X134636793Y-91181209D01*
X134709410Y-91289888D01*
X134709413Y-91289892D01*
X134820907Y-91401386D01*
X134820911Y-91401389D01*
X134952014Y-91488990D01*
X134952027Y-91488997D01*
X135097698Y-91549335D01*
X135097703Y-91549337D01*
X135252353Y-91580099D01*
X135252356Y-91580100D01*
X135252358Y-91580100D01*
X135410044Y-91580100D01*
X135410045Y-91580099D01*
X135564697Y-91549337D01*
X135710379Y-91488994D01*
X135841489Y-91401389D01*
X135952989Y-91289889D01*
X136040594Y-91158779D01*
X136100937Y-91013097D01*
X136131700Y-90858442D01*
X136131700Y-90700758D01*
X136131700Y-90700755D01*
X136131699Y-90700753D01*
X136120381Y-90643854D01*
X136100937Y-90546103D01*
X136082214Y-90500901D01*
X136040597Y-90400427D01*
X136040590Y-90400414D01*
X135952989Y-90269311D01*
X135952986Y-90269307D01*
X135841492Y-90157813D01*
X135841488Y-90157810D01*
X135710385Y-90070209D01*
X135710372Y-90070202D01*
X135564701Y-90009864D01*
X135564689Y-90009861D01*
X135410045Y-89979100D01*
X135410042Y-89979100D01*
X135364861Y-89979100D01*
X135317617Y-89966435D01*
X135316499Y-89969135D01*
X135308989Y-89966024D01*
X135265201Y-89954291D01*
X135156257Y-89925099D01*
X134998143Y-89925099D01*
X134990547Y-89925099D01*
X134990531Y-89925100D01*
X132813743Y-89925100D01*
X132661016Y-89966023D01*
X132661009Y-89966026D01*
X132524090Y-90045075D01*
X132524082Y-90045081D01*
X132412281Y-90156882D01*
X132412275Y-90156890D01*
X132333226Y-90293809D01*
X132333223Y-90293816D01*
X132292300Y-90446543D01*
X132292300Y-110139103D01*
X132272615Y-110206142D01*
X132255981Y-110226784D01*
X125410539Y-117072225D01*
X125349216Y-117105710D01*
X125347050Y-117106161D01*
X125191708Y-117137061D01*
X125191698Y-117137064D01*
X125046027Y-117197402D01*
X125046014Y-117197409D01*
X124924074Y-117278888D01*
X124857396Y-117299766D01*
X124790016Y-117281282D01*
X124767502Y-117263467D01*
X123349000Y-115844965D01*
X121890973Y-114386937D01*
X121857488Y-114325614D01*
X121857037Y-114323447D01*
X121842724Y-114251492D01*
X121826137Y-114168103D01*
X121806369Y-114120379D01*
X121765797Y-114022427D01*
X121765790Y-114022414D01*
X121678189Y-113891311D01*
X121678186Y-113891307D01*
X121619202Y-113832323D01*
X121614864Y-113824378D01*
X121607616Y-113818953D01*
X121598380Y-113794191D01*
X121585717Y-113771000D01*
X121586362Y-113761970D01*
X121583199Y-113753488D01*
X121588815Y-113727668D01*
X121590701Y-113701308D01*
X121596520Y-113692253D01*
X121598051Y-113685216D01*
X121619198Y-113656964D01*
X121760909Y-113515253D01*
X121760914Y-113515250D01*
X121771114Y-113505049D01*
X121771116Y-113505049D01*
X121882920Y-113393245D01*
X121961977Y-113256313D01*
X121998660Y-113119411D01*
X122002900Y-113103587D01*
X122002900Y-112945472D01*
X122002900Y-98788459D01*
X121961977Y-98635732D01*
X121961977Y-98635731D01*
X121961977Y-98635730D01*
X121933039Y-98585611D01*
X121933037Y-98585608D01*
X121882920Y-98498800D01*
X121771116Y-98386996D01*
X121771115Y-98386995D01*
X121766785Y-98382665D01*
X121766774Y-98382655D01*
X112158943Y-88774824D01*
X112125458Y-88713501D01*
X112125007Y-88711334D01*
X112097217Y-88571627D01*
X112094106Y-88555988D01*
X112091494Y-88549682D01*
X112033766Y-88410312D01*
X112033759Y-88410299D01*
X111946158Y-88279196D01*
X111946155Y-88279192D01*
X111834661Y-88167698D01*
X111834657Y-88167695D01*
X111703554Y-88080094D01*
X111703541Y-88080087D01*
X111557870Y-88019749D01*
X111557858Y-88019746D01*
X111403214Y-87988985D01*
X111403211Y-87988985D01*
X111245527Y-87988985D01*
X111245524Y-87988985D01*
X111090879Y-88019746D01*
X111090867Y-88019749D01*
X110945196Y-88080087D01*
X110945178Y-88080097D01*
X110832243Y-88155558D01*
X110765566Y-88176436D01*
X110739162Y-88174073D01*
X110619646Y-88150300D01*
X110619642Y-88150300D01*
X110461958Y-88150300D01*
X110461955Y-88150300D01*
X110307310Y-88181061D01*
X110307298Y-88181064D01*
X110161627Y-88241402D01*
X110161614Y-88241409D01*
X110030511Y-88329010D01*
X110030507Y-88329013D01*
X109919013Y-88440507D01*
X109919010Y-88440511D01*
X109831409Y-88571614D01*
X109831402Y-88571627D01*
X109771064Y-88717298D01*
X109771061Y-88717310D01*
X109740300Y-88871953D01*
X109740300Y-89029646D01*
X109771061Y-89184289D01*
X109771064Y-89184301D01*
X109786437Y-89221416D01*
X109793904Y-89290885D01*
X109762628Y-89353364D01*
X109702538Y-89389015D01*
X109696067Y-89390483D01*
X109646908Y-89400261D01*
X109646898Y-89400264D01*
X109501227Y-89460602D01*
X109501214Y-89460609D01*
X109370111Y-89548210D01*
X109370107Y-89548213D01*
X109258613Y-89659707D01*
X109258610Y-89659711D01*
X109171009Y-89790814D01*
X109171002Y-89790827D01*
X109110664Y-89936498D01*
X109110661Y-89936508D01*
X109102312Y-89978483D01*
X109069927Y-90040394D01*
X109009211Y-90074968D01*
X108980695Y-90078291D01*
X96036799Y-90078291D01*
X95969760Y-90058606D01*
X95924005Y-90005802D01*
X95912799Y-89954291D01*
X95912799Y-89572998D01*
X95912798Y-89572981D01*
X95902299Y-89470203D01*
X95902298Y-89470200D01*
X95899119Y-89460606D01*
X95847114Y-89303666D01*
X95755012Y-89154344D01*
X95630956Y-89030288D01*
X95481634Y-88938186D01*
X95315097Y-88883001D01*
X95315095Y-88883000D01*
X95212310Y-88872500D01*
X93012298Y-88872500D01*
X93012281Y-88872501D01*
X92909503Y-88883000D01*
X92909500Y-88883001D01*
X92742968Y-88938185D01*
X92742963Y-88938187D01*
X92593642Y-89030289D01*
X92469589Y-89154342D01*
X92377487Y-89303663D01*
X92377485Y-89303668D01*
X92361018Y-89353364D01*
X92322301Y-89470203D01*
X92322301Y-89470204D01*
X92322300Y-89470204D01*
X92311800Y-89572983D01*
X92311800Y-91773001D01*
X92311801Y-91773018D01*
X92322300Y-91875796D01*
X92322301Y-91875799D01*
X92377485Y-92042331D01*
X92377486Y-92042334D01*
X92469588Y-92191656D01*
X92593644Y-92315712D01*
X92742966Y-92407814D01*
X92909503Y-92462999D01*
X93012291Y-92473500D01*
X95212308Y-92473499D01*
X95315097Y-92462999D01*
X95481634Y-92407814D01*
X95630956Y-92315712D01*
X95755012Y-92191656D01*
X95847114Y-92042334D01*
X95902299Y-91875797D01*
X95912800Y-91773009D01*
X95912800Y-91403291D01*
X95932485Y-91336252D01*
X95985289Y-91290497D01*
X96036800Y-91279291D01*
X109284940Y-91279291D01*
X109284956Y-91279292D01*
X109292552Y-91279292D01*
X109450663Y-91279292D01*
X109450666Y-91279292D01*
X109603394Y-91238368D01*
X109679775Y-91194269D01*
X109740325Y-91159311D01*
X109852129Y-91047507D01*
X109852129Y-91047505D01*
X109862331Y-91037304D01*
X109862334Y-91037299D01*
X109895063Y-91004571D01*
X109956386Y-90971088D01*
X109958551Y-90970638D01*
X110044570Y-90953527D01*
X110113897Y-90939737D01*
X110259579Y-90879394D01*
X110390689Y-90791789D01*
X110502189Y-90680289D01*
X110589794Y-90549179D01*
X110650137Y-90403497D01*
X110680900Y-90248842D01*
X110680900Y-90239497D01*
X110700585Y-90172458D01*
X110753389Y-90126703D01*
X110822547Y-90116759D01*
X110886103Y-90145784D01*
X110892581Y-90151816D01*
X120165581Y-99424816D01*
X120199066Y-99486139D01*
X120201900Y-99512497D01*
X120201900Y-112196234D01*
X120182215Y-112263273D01*
X120181002Y-112265125D01*
X120093009Y-112396814D01*
X120093002Y-112396827D01*
X120032664Y-112542498D01*
X120032661Y-112542510D01*
X120001900Y-112697153D01*
X120001900Y-112854846D01*
X120032661Y-113009489D01*
X120032664Y-113009501D01*
X120093002Y-113155172D01*
X120093009Y-113155185D01*
X120168451Y-113268091D01*
X120189329Y-113334769D01*
X120170845Y-113402149D01*
X120153030Y-113424663D01*
X114599897Y-118977797D01*
X114538574Y-119011282D01*
X114512216Y-119014116D01*
X113679966Y-119014116D01*
X113612927Y-118994431D01*
X113611075Y-118993218D01*
X113479385Y-118905225D01*
X113479375Y-118905220D01*
X113406403Y-118874994D01*
X113352000Y-118831153D01*
X113336037Y-118793566D01*
X113334707Y-118793970D01*
X113332936Y-118788133D01*
X113272597Y-118642459D01*
X113272590Y-118642446D01*
X113184989Y-118511343D01*
X113184986Y-118511339D01*
X113073492Y-118399845D01*
X113073488Y-118399842D01*
X112942385Y-118312241D01*
X112942372Y-118312234D01*
X112796701Y-118251896D01*
X112796691Y-118251893D01*
X112663508Y-118225401D01*
X112601597Y-118193016D01*
X112567023Y-118132300D01*
X112563700Y-118103784D01*
X112563700Y-115844965D01*
X112583385Y-115777926D01*
X112584598Y-115776074D01*
X112672590Y-115644385D01*
X112672590Y-115644384D01*
X112672594Y-115644379D01*
X112732937Y-115498697D01*
X112763700Y-115344042D01*
X112763700Y-115186358D01*
X112763700Y-115186355D01*
X112763699Y-115186353D01*
X112749428Y-115114609D01*
X112732937Y-115031703D01*
X112732935Y-115031698D01*
X112672597Y-114886027D01*
X112672590Y-114886014D01*
X112584989Y-114754911D01*
X112584986Y-114754907D01*
X112473492Y-114643413D01*
X112473488Y-114643410D01*
X112342385Y-114555809D01*
X112342372Y-114555802D01*
X112196701Y-114495464D01*
X112196689Y-114495461D01*
X112042045Y-114464700D01*
X112042042Y-114464700D01*
X111884358Y-114464700D01*
X111884355Y-114464700D01*
X111729710Y-114495461D01*
X111729698Y-114495464D01*
X111584027Y-114555802D01*
X111584014Y-114555809D01*
X111452911Y-114643410D01*
X111452907Y-114643413D01*
X111341413Y-114754907D01*
X111341410Y-114754911D01*
X111253809Y-114886014D01*
X111253802Y-114886027D01*
X111193464Y-115031698D01*
X111193461Y-115031710D01*
X111162700Y-115186353D01*
X111162700Y-115344046D01*
X111193461Y-115498689D01*
X111193464Y-115498701D01*
X111253802Y-115644372D01*
X111253809Y-115644385D01*
X111341802Y-115776074D01*
X111362680Y-115842751D01*
X111362700Y-115844965D01*
X111362700Y-119890946D01*
X111362699Y-119890964D01*
X111362699Y-120056670D01*
X111362698Y-120056670D01*
X111403623Y-120209401D01*
X111419214Y-120236405D01*
X111419213Y-120236405D01*
X111419214Y-120236406D01*
X111482675Y-120346325D01*
X111482681Y-120346333D01*
X111601549Y-120465201D01*
X111601555Y-120465206D01*
X114061828Y-122925479D01*
X114095313Y-122986802D01*
X114090329Y-123056494D01*
X114048457Y-123112427D01*
X113982993Y-123136844D01*
X113974147Y-123137160D01*
X107865621Y-123137160D01*
X107798582Y-123117475D01*
X107796730Y-123116262D01*
X107665040Y-123028269D01*
X107665027Y-123028262D01*
X107519356Y-122967924D01*
X107519346Y-122967921D01*
X107386163Y-122941429D01*
X107324252Y-122909044D01*
X107289678Y-122848328D01*
X107286355Y-122819812D01*
X107286355Y-110520642D01*
X107306040Y-110453603D01*
X107322674Y-110432961D01*
X108015612Y-109740023D01*
X108726664Y-109028971D01*
X108787985Y-108995488D01*
X108790152Y-108995037D01*
X108790841Y-108994900D01*
X108790842Y-108994900D01*
X108945497Y-108964137D01*
X109091179Y-108903794D01*
X109222289Y-108816189D01*
X109333789Y-108704689D01*
X109421394Y-108573579D01*
X109481737Y-108427897D01*
X109505608Y-108307892D01*
X109508231Y-108294708D01*
X109540616Y-108232797D01*
X109601332Y-108198223D01*
X109629848Y-108194900D01*
X110977034Y-108194900D01*
X111044073Y-108214585D01*
X111045925Y-108215798D01*
X111177614Y-108303790D01*
X111177627Y-108303797D01*
X111256694Y-108336547D01*
X111323303Y-108364137D01*
X111477953Y-108394899D01*
X111477956Y-108394900D01*
X111477958Y-108394900D01*
X111635644Y-108394900D01*
X111635645Y-108394899D01*
X111790297Y-108364137D01*
X111902966Y-108317467D01*
X111935972Y-108303797D01*
X111935972Y-108303796D01*
X111935979Y-108303794D01*
X112067089Y-108216189D01*
X112178589Y-108104689D01*
X112266194Y-107973579D01*
X112326537Y-107827897D01*
X112357300Y-107673242D01*
X112357300Y-107515558D01*
X112357300Y-107515555D01*
X112357299Y-107515553D01*
X112337978Y-107418421D01*
X112326537Y-107360903D01*
X112321890Y-107349683D01*
X112266197Y-107215227D01*
X112266190Y-107215214D01*
X112178589Y-107084111D01*
X112178586Y-107084107D01*
X112067092Y-106972613D01*
X112067088Y-106972610D01*
X111935985Y-106885009D01*
X111935972Y-106885002D01*
X111790301Y-106824664D01*
X111790289Y-106824661D01*
X111635645Y-106793900D01*
X111635642Y-106793900D01*
X111477958Y-106793900D01*
X111477955Y-106793900D01*
X111323310Y-106824661D01*
X111323298Y-106824664D01*
X111177627Y-106885002D01*
X111177614Y-106885009D01*
X111045925Y-106973002D01*
X110979247Y-106993880D01*
X110977034Y-106993900D01*
X105584942Y-106993900D01*
X105576881Y-106994961D01*
X105576807Y-106994403D01*
X105545734Y-106996951D01*
X105545734Y-106997100D01*
X105543921Y-106997100D01*
X105541592Y-106997291D01*
X105539651Y-106997100D01*
X105539642Y-106997100D01*
X105381958Y-106997100D01*
X105381955Y-106997100D01*
X105227310Y-107027861D01*
X105227298Y-107027864D01*
X105081627Y-107088202D01*
X105081614Y-107088209D01*
X104950511Y-107175810D01*
X104950507Y-107175813D01*
X104839013Y-107287307D01*
X104839010Y-107287311D01*
X104751409Y-107418414D01*
X104751402Y-107418427D01*
X104691064Y-107564098D01*
X104691061Y-107564110D01*
X104660300Y-107718753D01*
X104660300Y-107876446D01*
X104691061Y-108031089D01*
X104691064Y-108031101D01*
X104751402Y-108176772D01*
X104751409Y-108176785D01*
X104839010Y-108307888D01*
X104839013Y-108307892D01*
X104950507Y-108419386D01*
X104950511Y-108419389D01*
X105081614Y-108506990D01*
X105081627Y-108506997D01*
X105227298Y-108567335D01*
X105227303Y-108567337D01*
X105381953Y-108598099D01*
X105381956Y-108598100D01*
X105381958Y-108598100D01*
X105539644Y-108598100D01*
X105539645Y-108598099D01*
X105694297Y-108567337D01*
X105839979Y-108506994D01*
X105971089Y-108419389D01*
X106082589Y-108307889D01*
X106121263Y-108250008D01*
X106174874Y-108205204D01*
X106224365Y-108194900D01*
X107562902Y-108194900D01*
X107629941Y-108214585D01*
X107675696Y-108267389D01*
X107685640Y-108336547D01*
X107656615Y-108400103D01*
X107650583Y-108406581D01*
X106205336Y-109851827D01*
X106205334Y-109851830D01*
X106155216Y-109938639D01*
X106155214Y-109938641D01*
X106126280Y-109988754D01*
X106126279Y-109988755D01*
X106126278Y-109988760D01*
X106085354Y-110141488D01*
X106085354Y-110141490D01*
X106085354Y-110309591D01*
X106085355Y-110309604D01*
X106085355Y-114906152D01*
X106065670Y-114973191D01*
X106012866Y-115018946D01*
X105985547Y-115027769D01*
X105852363Y-115054261D01*
X105852353Y-115054264D01*
X105706682Y-115114602D01*
X105706669Y-115114609D01*
X105575569Y-115202208D01*
X105496942Y-115280833D01*
X105471262Y-115300537D01*
X105396887Y-115343477D01*
X105396882Y-115343481D01*
X105285080Y-115455284D01*
X105285078Y-115455286D01*
X102229022Y-118511343D01*
X99203184Y-121537181D01*
X99141861Y-121570666D01*
X99115503Y-121573500D01*
X93910543Y-121573500D01*
X93757816Y-121614423D01*
X93757809Y-121614426D01*
X93620890Y-121693475D01*
X93620882Y-121693481D01*
X93509081Y-121805282D01*
X93509075Y-121805290D01*
X93430026Y-121942209D01*
X93430023Y-121942216D01*
X93389100Y-122094943D01*
X93389100Y-125190341D01*
X93369415Y-125257380D01*
X93316611Y-125303135D01*
X93247453Y-125313079D01*
X93183897Y-125284054D01*
X93161998Y-125259232D01*
X93051951Y-125094537D01*
X93051948Y-125094533D01*
X92912666Y-124955251D01*
X92912662Y-124955248D01*
X92748884Y-124845814D01*
X92748871Y-124845807D01*
X92566893Y-124770430D01*
X92566881Y-124770427D01*
X92373695Y-124732000D01*
X91975200Y-124732000D01*
X91975200Y-125432000D01*
X91475200Y-125432000D01*
X91475200Y-124876463D01*
X91494885Y-124809424D01*
X91537200Y-124769076D01*
X91548565Y-124762515D01*
X91655715Y-124655365D01*
X91662218Y-124644102D01*
X91676921Y-124618637D01*
X91731479Y-124524138D01*
X91731481Y-124524135D01*
X91770700Y-124377766D01*
X91770700Y-124226234D01*
X91731481Y-124079865D01*
X91729931Y-124077181D01*
X91709279Y-124041411D01*
X91655715Y-123948635D01*
X91548565Y-123841485D01*
X91482950Y-123803602D01*
X91417336Y-123765719D01*
X91344150Y-123746109D01*
X91270966Y-123726500D01*
X91119434Y-123726500D01*
X90973063Y-123765719D01*
X90841835Y-123841485D01*
X90841832Y-123841487D01*
X90734687Y-123948632D01*
X90734685Y-123948635D01*
X90658919Y-124079863D01*
X90619700Y-124226234D01*
X90619700Y-124377765D01*
X90658919Y-124524136D01*
X90693686Y-124584353D01*
X90734685Y-124655365D01*
X90734687Y-124655367D01*
X90739632Y-124661811D01*
X90736812Y-124663974D01*
X90762502Y-124711020D01*
X90757518Y-124780712D01*
X90715646Y-124836645D01*
X90706579Y-124842416D01*
X90706587Y-124842427D01*
X90537736Y-124955248D01*
X90398451Y-125094533D01*
X90398448Y-125094537D01*
X90289014Y-125258315D01*
X90289007Y-125258328D01*
X90213630Y-125440307D01*
X90213630Y-125440309D01*
X90205338Y-125482000D01*
X88815062Y-125482000D01*
X88806769Y-125440309D01*
X88806769Y-125440307D01*
X88731392Y-125258328D01*
X88731385Y-125258315D01*
X88621951Y-125094537D01*
X88621948Y-125094533D01*
X88482666Y-124955251D01*
X88482662Y-124955248D01*
X88318884Y-124845814D01*
X88318871Y-124845807D01*
X88136893Y-124770430D01*
X88136881Y-124770427D01*
X87943695Y-124732000D01*
X87795200Y-124732000D01*
X87795200Y-125432000D01*
X87295200Y-125432000D01*
X87295200Y-124732000D01*
X87146704Y-124732000D01*
X86953518Y-124770427D01*
X86953506Y-124770430D01*
X86771528Y-124845807D01*
X86771515Y-124845814D01*
X86607737Y-124955248D01*
X86607733Y-124955251D01*
X86468451Y-125094533D01*
X86468448Y-125094537D01*
X86359014Y-125258315D01*
X86359007Y-125258328D01*
X86283630Y-125440307D01*
X86283630Y-125440309D01*
X86275338Y-125482000D01*
X84828500Y-125482000D01*
X84828500Y-116842000D01*
X86275338Y-116842000D01*
X87078212Y-116842000D01*
X87060995Y-116851940D01*
X87005140Y-116907795D01*
X86965644Y-116976204D01*
X86945200Y-117052504D01*
X86945200Y-117131496D01*
X86965644Y-117207796D01*
X87005140Y-117276205D01*
X87060995Y-117332060D01*
X87078212Y-117342000D01*
X86275338Y-117342000D01*
X86283630Y-117383690D01*
X86283630Y-117383692D01*
X86359007Y-117565671D01*
X86359014Y-117565684D01*
X86468448Y-117729462D01*
X86468451Y-117729466D01*
X86607733Y-117868748D01*
X86607737Y-117868751D01*
X86771515Y-117978185D01*
X86771528Y-117978192D01*
X86953506Y-118053569D01*
X86953518Y-118053572D01*
X87146704Y-118091999D01*
X87146708Y-118092000D01*
X87295200Y-118092000D01*
X87295200Y-117392000D01*
X87795200Y-117392000D01*
X87795200Y-118092000D01*
X87943692Y-118092000D01*
X87943695Y-118091999D01*
X88136881Y-118053572D01*
X88136893Y-118053569D01*
X88318871Y-117978192D01*
X88318884Y-117978185D01*
X88482662Y-117868751D01*
X88482666Y-117868748D01*
X88621948Y-117729466D01*
X88621951Y-117729462D01*
X88731385Y-117565684D01*
X88731392Y-117565671D01*
X88806769Y-117383692D01*
X88806769Y-117383690D01*
X88815062Y-117342000D01*
X88012188Y-117342000D01*
X88029405Y-117332060D01*
X88085260Y-117276205D01*
X88124756Y-117207796D01*
X88145200Y-117131496D01*
X88145200Y-117052504D01*
X88124756Y-116976204D01*
X88085260Y-116907795D01*
X88029405Y-116851940D01*
X88012188Y-116842000D01*
X88815062Y-116842000D01*
X90205338Y-116842000D01*
X91008212Y-116842000D01*
X90990995Y-116851940D01*
X90935140Y-116907795D01*
X90895644Y-116976204D01*
X90875200Y-117052504D01*
X90875200Y-117131496D01*
X90895644Y-117207796D01*
X90935140Y-117276205D01*
X90990995Y-117332060D01*
X91008212Y-117342000D01*
X90205338Y-117342000D01*
X90213630Y-117383690D01*
X90213630Y-117383692D01*
X90289007Y-117565671D01*
X90289014Y-117565684D01*
X90398448Y-117729462D01*
X90398451Y-117729466D01*
X90537733Y-117868748D01*
X90537737Y-117868751D01*
X90706587Y-117981574D01*
X90705630Y-117983005D01*
X90749625Y-118026211D01*
X90765095Y-118094346D01*
X90741272Y-118160029D01*
X90739509Y-118162094D01*
X90739632Y-118162189D01*
X90734685Y-118168635D01*
X90658919Y-118299863D01*
X90619700Y-118446234D01*
X90619700Y-118597765D01*
X90658919Y-118744136D01*
X90687458Y-118793566D01*
X90734685Y-118875365D01*
X90841835Y-118982515D01*
X90973065Y-119058281D01*
X91119434Y-119097500D01*
X91119436Y-119097500D01*
X91270964Y-119097500D01*
X91270966Y-119097500D01*
X91417335Y-119058281D01*
X91548565Y-118982515D01*
X91655715Y-118875365D01*
X91731481Y-118744135D01*
X91770700Y-118597766D01*
X91770700Y-118446234D01*
X91731481Y-118299865D01*
X91655715Y-118168635D01*
X91548565Y-118061485D01*
X91537198Y-118054922D01*
X91488983Y-118004354D01*
X91475200Y-117947536D01*
X91475200Y-117392000D01*
X91975200Y-117392000D01*
X91975200Y-118092000D01*
X92373692Y-118092000D01*
X92373695Y-118091999D01*
X92566881Y-118053572D01*
X92566893Y-118053569D01*
X92748871Y-117978192D01*
X92748884Y-117978185D01*
X92912662Y-117868751D01*
X92912666Y-117868748D01*
X93051948Y-117729466D01*
X93051951Y-117729462D01*
X93161385Y-117565684D01*
X93161392Y-117565671D01*
X93236769Y-117383692D01*
X93236769Y-117383690D01*
X93245062Y-117342000D01*
X92442188Y-117342000D01*
X92459405Y-117332060D01*
X92515260Y-117276205D01*
X92554756Y-117207796D01*
X92575200Y-117131496D01*
X92575200Y-117052504D01*
X92554756Y-116976204D01*
X92515260Y-116907795D01*
X92459405Y-116851940D01*
X92442188Y-116842000D01*
X93245062Y-116842000D01*
X93236769Y-116800309D01*
X93236769Y-116800307D01*
X93161392Y-116618328D01*
X93161385Y-116618315D01*
X93051951Y-116454537D01*
X93051948Y-116454533D01*
X92912666Y-116315251D01*
X92912662Y-116315248D01*
X92748884Y-116205814D01*
X92748871Y-116205807D01*
X92566893Y-116130430D01*
X92566881Y-116130427D01*
X92373695Y-116092000D01*
X91975200Y-116092000D01*
X91975200Y-116792000D01*
X91475200Y-116792000D01*
X91475200Y-116092000D01*
X91076704Y-116092000D01*
X90883518Y-116130427D01*
X90883506Y-116130430D01*
X90701528Y-116205807D01*
X90701515Y-116205814D01*
X90537737Y-116315248D01*
X90537733Y-116315251D01*
X90398451Y-116454533D01*
X90398448Y-116454537D01*
X90289014Y-116618315D01*
X90289007Y-116618328D01*
X90213630Y-116800307D01*
X90213630Y-116800309D01*
X90205338Y-116842000D01*
X88815062Y-116842000D01*
X88806769Y-116800309D01*
X88806769Y-116800307D01*
X88731392Y-116618328D01*
X88731385Y-116618315D01*
X88621951Y-116454537D01*
X88621948Y-116454533D01*
X88482666Y-116315251D01*
X88482662Y-116315248D01*
X88318884Y-116205814D01*
X88318871Y-116205807D01*
X88136893Y-116130430D01*
X88136881Y-116130427D01*
X87943695Y-116092000D01*
X87795200Y-116092000D01*
X87795200Y-116792000D01*
X87295200Y-116792000D01*
X87295200Y-116092000D01*
X87146704Y-116092000D01*
X86953518Y-116130427D01*
X86953506Y-116130430D01*
X86771528Y-116205807D01*
X86771515Y-116205814D01*
X86607737Y-116315248D01*
X86607733Y-116315251D01*
X86468451Y-116454533D01*
X86468448Y-116454537D01*
X86359014Y-116618315D01*
X86359007Y-116618328D01*
X86283630Y-116800307D01*
X86283630Y-116800309D01*
X86275338Y-116842000D01*
X84828500Y-116842000D01*
X84828500Y-105583806D01*
X91346300Y-105583806D01*
X91346300Y-105947394D01*
X91349503Y-105979912D01*
X91381937Y-106309230D01*
X91452864Y-106665812D01*
X91452867Y-106665823D01*
X91558414Y-107013765D01*
X91697554Y-107349678D01*
X91697556Y-107349683D01*
X91868940Y-107670320D01*
X91868951Y-107670338D01*
X92070940Y-107972635D01*
X92070950Y-107972649D01*
X92301607Y-108253706D01*
X92558693Y-108510792D01*
X92558698Y-108510796D01*
X92558699Y-108510797D01*
X92839756Y-108741454D01*
X93142068Y-108943453D01*
X93142077Y-108943458D01*
X93142079Y-108943459D01*
X93462716Y-109114843D01*
X93462718Y-109114843D01*
X93462724Y-109114847D01*
X93798636Y-109253986D01*
X94146567Y-109359530D01*
X94146573Y-109359531D01*
X94146576Y-109359532D01*
X94146587Y-109359535D01*
X94503169Y-109430462D01*
X94865006Y-109466100D01*
X94865009Y-109466100D01*
X95228591Y-109466100D01*
X95228594Y-109466100D01*
X95590431Y-109430462D01*
X95659845Y-109416654D01*
X95947012Y-109359535D01*
X95947023Y-109359532D01*
X95947023Y-109359531D01*
X95947033Y-109359530D01*
X96294964Y-109253986D01*
X96630876Y-109114847D01*
X96951532Y-108943453D01*
X97253844Y-108741454D01*
X97534901Y-108510797D01*
X97791997Y-108253701D01*
X98022654Y-107972644D01*
X98224653Y-107670332D01*
X98396047Y-107349676D01*
X98535186Y-107013764D01*
X98640730Y-106665833D01*
X98640732Y-106665823D01*
X98640735Y-106665812D01*
X98711662Y-106309230D01*
X98744097Y-105979912D01*
X98747300Y-105947394D01*
X98747300Y-105583806D01*
X98711662Y-105221969D01*
X98674875Y-105037025D01*
X98640735Y-104865387D01*
X98640732Y-104865376D01*
X98640731Y-104865373D01*
X98640730Y-104865367D01*
X98535186Y-104517436D01*
X98396047Y-104181524D01*
X98386458Y-104163585D01*
X98224659Y-103860879D01*
X98224658Y-103860877D01*
X98224653Y-103860868D01*
X98022654Y-103558556D01*
X97791997Y-103277499D01*
X97791996Y-103277498D01*
X97791992Y-103277493D01*
X97534906Y-103020407D01*
X97253849Y-102789750D01*
X97253848Y-102789749D01*
X97253844Y-102789746D01*
X96951532Y-102587747D01*
X96951527Y-102587744D01*
X96951520Y-102587740D01*
X96630883Y-102416356D01*
X96630878Y-102416354D01*
X96554591Y-102384755D01*
X96521625Y-102371100D01*
X96294965Y-102277214D01*
X95947023Y-102171667D01*
X95947012Y-102171664D01*
X95590430Y-102100737D01*
X95317911Y-102073896D01*
X95228594Y-102065100D01*
X94865006Y-102065100D01*
X94782479Y-102073228D01*
X94503169Y-102100737D01*
X94146587Y-102171664D01*
X94146576Y-102171667D01*
X93798634Y-102277214D01*
X93462721Y-102416354D01*
X93462716Y-102416356D01*
X93142079Y-102587740D01*
X93142061Y-102587751D01*
X92839764Y-102789740D01*
X92839750Y-102789750D01*
X92558693Y-103020407D01*
X92301607Y-103277493D01*
X92070950Y-103558550D01*
X92070940Y-103558564D01*
X91868951Y-103860861D01*
X91868940Y-103860879D01*
X91697556Y-104181516D01*
X91697554Y-104181521D01*
X91558414Y-104517434D01*
X91452867Y-104865376D01*
X91452864Y-104865387D01*
X91381937Y-105221969D01*
X91354428Y-105501279D01*
X91346300Y-105583806D01*
X84828500Y-105583806D01*
X84828500Y-95635014D01*
X92312300Y-95635014D01*
X92312300Y-95870985D01*
X92343099Y-96104914D01*
X92404170Y-96332837D01*
X92494460Y-96550819D01*
X92494465Y-96550828D01*
X92612444Y-96755171D01*
X92612445Y-96755172D01*
X92675021Y-96836723D01*
X93511258Y-96000487D01*
X93536278Y-96060890D01*
X93607412Y-96167351D01*
X93697949Y-96257888D01*
X93804410Y-96329022D01*
X93864811Y-96354041D01*
X93028575Y-97190277D01*
X93110127Y-97252854D01*
X93110128Y-97252855D01*
X93314471Y-97370834D01*
X93314480Y-97370839D01*
X93532463Y-97461129D01*
X93532461Y-97461129D01*
X93760385Y-97522200D01*
X93994314Y-97552999D01*
X93994329Y-97553000D01*
X94230271Y-97553000D01*
X94230285Y-97552999D01*
X94464214Y-97522200D01*
X94692137Y-97461129D01*
X94910119Y-97370839D01*
X94910128Y-97370834D01*
X95114481Y-97252850D01*
X95196023Y-97190279D01*
X95196023Y-97190276D01*
X94359787Y-96354041D01*
X94420190Y-96329022D01*
X94526651Y-96257888D01*
X94617188Y-96167351D01*
X94688322Y-96060890D01*
X94713341Y-96000487D01*
X95549576Y-96836723D01*
X95549579Y-96836723D01*
X95612150Y-96755181D01*
X95730134Y-96550828D01*
X95730139Y-96550819D01*
X95820429Y-96332837D01*
X95881500Y-96104914D01*
X95912299Y-95870985D01*
X95912300Y-95870971D01*
X95912300Y-95635028D01*
X95912299Y-95635014D01*
X95881500Y-95401085D01*
X95820429Y-95173162D01*
X95730139Y-94955180D01*
X95730134Y-94955171D01*
X95612155Y-94750828D01*
X95612154Y-94750827D01*
X95549577Y-94669275D01*
X94713341Y-95505511D01*
X94688322Y-95445110D01*
X94617188Y-95338649D01*
X94526651Y-95248112D01*
X94420190Y-95176978D01*
X94359788Y-95151958D01*
X95196023Y-94315721D01*
X95114472Y-94253145D01*
X95114471Y-94253144D01*
X94910128Y-94135165D01*
X94910119Y-94135160D01*
X94692136Y-94044870D01*
X94692138Y-94044870D01*
X94464214Y-93983799D01*
X94230285Y-93953000D01*
X93994314Y-93953000D01*
X93760385Y-93983799D01*
X93532462Y-94044870D01*
X93314480Y-94135160D01*
X93314471Y-94135165D01*
X93110128Y-94253144D01*
X93110118Y-94253150D01*
X93028575Y-94315720D01*
X93028575Y-94315721D01*
X93864812Y-95151958D01*
X93804410Y-95176978D01*
X93697949Y-95248112D01*
X93607412Y-95338649D01*
X93536278Y-95445110D01*
X93511258Y-95505512D01*
X92675021Y-94669275D01*
X92675020Y-94669275D01*
X92612450Y-94750818D01*
X92612444Y-94750828D01*
X92494465Y-94955171D01*
X92494460Y-94955180D01*
X92404170Y-95173162D01*
X92343099Y-95401085D01*
X92312300Y-95635014D01*
X84828500Y-95635014D01*
X84828500Y-56815809D01*
X90279500Y-56815809D01*
X90279500Y-57179390D01*
X90315137Y-57541230D01*
X90386064Y-57897812D01*
X90386067Y-57897823D01*
X90491614Y-58245765D01*
X90630754Y-58581678D01*
X90630756Y-58581683D01*
X90802140Y-58902320D01*
X90802151Y-58902338D01*
X91004140Y-59204635D01*
X91004150Y-59204649D01*
X91234807Y-59485706D01*
X91491893Y-59742792D01*
X91491898Y-59742796D01*
X91491899Y-59742797D01*
X91772956Y-59973454D01*
X92075268Y-60175453D01*
X92075277Y-60175458D01*
X92075279Y-60175459D01*
X92395916Y-60346843D01*
X92395918Y-60346843D01*
X92395924Y-60346847D01*
X92731836Y-60485986D01*
X93079767Y-60591530D01*
X93079773Y-60591531D01*
X93079776Y-60591532D01*
X93079787Y-60591535D01*
X93436369Y-60662462D01*
X93798206Y-60698100D01*
X93798209Y-60698100D01*
X94161791Y-60698100D01*
X94161794Y-60698100D01*
X94523631Y-60662462D01*
X94621977Y-60642900D01*
X94880212Y-60591535D01*
X94880223Y-60591532D01*
X94880223Y-60591531D01*
X94880233Y-60591530D01*
X95228164Y-60485986D01*
X95564076Y-60346847D01*
X95884732Y-60175453D01*
X96187044Y-59973454D01*
X96468101Y-59742797D01*
X96725197Y-59485701D01*
X96955854Y-59204644D01*
X97157853Y-58902332D01*
X97329247Y-58581676D01*
X97468386Y-58245764D01*
X97573930Y-57897833D01*
X97573932Y-57897823D01*
X97573935Y-57897812D01*
X97644862Y-57541230D01*
X97680500Y-57179390D01*
X97680500Y-56815809D01*
X97652911Y-56535697D01*
X97644862Y-56453969D01*
X97619141Y-56324659D01*
X97573935Y-56097387D01*
X97573932Y-56097376D01*
X97573931Y-56097373D01*
X97573930Y-56097367D01*
X97468386Y-55749436D01*
X97329247Y-55413524D01*
X97319216Y-55394758D01*
X97157859Y-55092879D01*
X97157858Y-55092877D01*
X97157853Y-55092868D01*
X96955854Y-54790556D01*
X96725197Y-54509499D01*
X96725196Y-54509498D01*
X96725192Y-54509493D01*
X96468106Y-54252407D01*
X96187049Y-54021750D01*
X96187048Y-54021749D01*
X96187044Y-54021746D01*
X95884732Y-53819747D01*
X95884727Y-53819744D01*
X95884720Y-53819740D01*
X95564083Y-53648356D01*
X95564078Y-53648354D01*
X95554561Y-53644412D01*
X95428962Y-53592387D01*
X95228165Y-53509214D01*
X94880223Y-53403667D01*
X94880212Y-53403664D01*
X94523630Y-53332737D01*
X94251111Y-53305896D01*
X94161794Y-53297100D01*
X93798206Y-53297100D01*
X93715679Y-53305228D01*
X93436369Y-53332737D01*
X93079787Y-53403664D01*
X93079776Y-53403667D01*
X92731834Y-53509214D01*
X92395921Y-53648354D01*
X92395916Y-53648356D01*
X92075279Y-53819740D01*
X92075261Y-53819751D01*
X91772964Y-54021740D01*
X91772950Y-54021750D01*
X91491893Y-54252407D01*
X91234807Y-54509493D01*
X91004150Y-54790550D01*
X91004140Y-54790564D01*
X90802151Y-55092861D01*
X90802140Y-55092879D01*
X90630756Y-55413516D01*
X90630754Y-55413521D01*
X90491614Y-55749434D01*
X90386067Y-56097376D01*
X90386064Y-56097387D01*
X90315137Y-56453969D01*
X90279500Y-56815809D01*
X84828500Y-56815809D01*
X84828500Y-41572013D01*
X134699600Y-41572013D01*
X134699600Y-42422000D01*
X135899599Y-42422000D01*
X135874579Y-42482402D01*
X135849600Y-42607981D01*
X135849600Y-42736019D01*
X135874579Y-42861598D01*
X135899599Y-42922000D01*
X134699601Y-42922000D01*
X134699601Y-43771986D01*
X134710094Y-43874697D01*
X134765241Y-44041119D01*
X134765243Y-44041124D01*
X134857284Y-44190345D01*
X134981254Y-44314315D01*
X135130475Y-44406356D01*
X135130480Y-44406358D01*
X135296902Y-44461505D01*
X135296909Y-44461506D01*
X135399619Y-44471999D01*
X136249599Y-44471999D01*
X136249600Y-44471998D01*
X136249600Y-43272001D01*
X136310002Y-43297021D01*
X136435581Y-43322000D01*
X136563619Y-43322000D01*
X136689198Y-43297021D01*
X136749600Y-43272001D01*
X136749600Y-44471999D01*
X137599572Y-44471999D01*
X137599586Y-44471998D01*
X137702297Y-44461505D01*
X137868719Y-44406358D01*
X137868724Y-44406356D01*
X138017945Y-44314315D01*
X138141915Y-44190345D01*
X138233956Y-44041124D01*
X138233958Y-44041119D01*
X138289105Y-43874697D01*
X138289106Y-43874690D01*
X138299599Y-43771986D01*
X138299600Y-43771973D01*
X138299600Y-42922000D01*
X137099601Y-42922000D01*
X137124621Y-42861598D01*
X137149600Y-42736019D01*
X137149600Y-42607981D01*
X137124621Y-42482402D01*
X137099601Y-42422000D01*
X138299599Y-42422000D01*
X138299599Y-41572028D01*
X138299598Y-41572013D01*
X138289105Y-41469302D01*
X138233958Y-41302880D01*
X138233956Y-41302875D01*
X138141915Y-41153654D01*
X138017945Y-41029684D01*
X137868724Y-40937643D01*
X137868719Y-40937641D01*
X137702297Y-40882494D01*
X137702290Y-40882493D01*
X137599586Y-40872000D01*
X136749600Y-40872000D01*
X136749600Y-42071998D01*
X136689198Y-42046979D01*
X136563619Y-42022000D01*
X136435581Y-42022000D01*
X136310002Y-42046979D01*
X136249600Y-42071998D01*
X136249600Y-40872000D01*
X135399628Y-40872000D01*
X135399612Y-40872001D01*
X135296902Y-40882494D01*
X135130480Y-40937641D01*
X135130475Y-40937643D01*
X134981254Y-41029684D01*
X134857284Y-41153654D01*
X134765243Y-41302875D01*
X134765241Y-41302880D01*
X134710094Y-41469302D01*
X134710093Y-41469309D01*
X134699600Y-41572013D01*
X84828500Y-41572013D01*
X84828500Y-39188209D01*
X166530300Y-39188209D01*
X166530300Y-39551790D01*
X166565937Y-39913630D01*
X166636864Y-40270212D01*
X166636867Y-40270223D01*
X166636869Y-40270232D01*
X166636870Y-40270233D01*
X166742414Y-40618164D01*
X166874745Y-40937641D01*
X166881554Y-40954078D01*
X166881556Y-40954083D01*
X167052940Y-41274720D01*
X167052951Y-41274738D01*
X167254940Y-41577035D01*
X167254950Y-41577049D01*
X167485607Y-41858106D01*
X167742693Y-42115192D01*
X167742698Y-42115196D01*
X167742699Y-42115197D01*
X168023756Y-42345854D01*
X168326068Y-42547853D01*
X168326077Y-42547858D01*
X168326079Y-42547859D01*
X168646716Y-42719243D01*
X168646718Y-42719243D01*
X168646724Y-42719247D01*
X168982636Y-42858386D01*
X169330567Y-42963930D01*
X169330573Y-42963931D01*
X169330576Y-42963932D01*
X169330587Y-42963935D01*
X169687169Y-43034862D01*
X170049006Y-43070500D01*
X170049009Y-43070500D01*
X170412591Y-43070500D01*
X170412594Y-43070500D01*
X170774431Y-43034862D01*
X170843845Y-43021054D01*
X171131012Y-42963935D01*
X171131023Y-42963932D01*
X171131023Y-42963931D01*
X171131033Y-42963930D01*
X171478964Y-42858386D01*
X171814876Y-42719247D01*
X172135532Y-42547853D01*
X172437844Y-42345854D01*
X172718901Y-42115197D01*
X172975997Y-41858101D01*
X173206654Y-41577044D01*
X173408653Y-41274732D01*
X173580047Y-40954076D01*
X173719186Y-40618164D01*
X173824730Y-40270233D01*
X173824732Y-40270223D01*
X173824735Y-40270212D01*
X173895662Y-39913630D01*
X173931300Y-39551790D01*
X173931300Y-39188209D01*
X173895662Y-38826369D01*
X173824735Y-38469787D01*
X173824732Y-38469776D01*
X173824731Y-38469773D01*
X173824730Y-38469767D01*
X173719186Y-38121836D01*
X173580047Y-37785924D01*
X173408653Y-37465268D01*
X173206654Y-37162956D01*
X172975997Y-36881899D01*
X172975996Y-36881898D01*
X172975992Y-36881893D01*
X172718906Y-36624807D01*
X172437849Y-36394150D01*
X172437848Y-36394149D01*
X172437844Y-36394146D01*
X172135532Y-36192147D01*
X172135527Y-36192144D01*
X172135520Y-36192140D01*
X171814883Y-36020756D01*
X171814878Y-36020754D01*
X171478965Y-35881614D01*
X171131023Y-35776067D01*
X171131012Y-35776064D01*
X170774430Y-35705137D01*
X170501911Y-35678296D01*
X170412594Y-35669500D01*
X170049006Y-35669500D01*
X169966479Y-35677628D01*
X169687169Y-35705137D01*
X169330587Y-35776064D01*
X169330576Y-35776067D01*
X168982634Y-35881614D01*
X168646721Y-36020754D01*
X168646716Y-36020756D01*
X168326079Y-36192140D01*
X168326061Y-36192151D01*
X168023764Y-36394140D01*
X168023750Y-36394150D01*
X167742693Y-36624807D01*
X167485607Y-36881893D01*
X167254950Y-37162950D01*
X167254940Y-37162964D01*
X167052951Y-37465261D01*
X167052940Y-37465279D01*
X166881556Y-37785916D01*
X166881554Y-37785921D01*
X166742414Y-38121834D01*
X166636867Y-38469776D01*
X166636864Y-38469787D01*
X166565937Y-38826369D01*
X166530300Y-39188209D01*
X84828500Y-39188209D01*
X84828500Y-34914500D01*
X84848185Y-34847461D01*
X84900989Y-34801706D01*
X84952500Y-34790500D01*
X175702300Y-34790500D01*
X175769339Y-34810185D01*
G37*
%TD.AperFunction*%
%TD*%
M02*
