M48
; DRILL file KiCad 10.0.4 date 2026-06-25T22:40:59
; FORMAT={-:-/ absolute / metric / decimal}
; #@! TF.CreationDate,2026-06-25T22:40:59+03:00
; #@! TF.GenerationSoftware,Kicad,Pcbnew,10.0.4
; #@! TF.FileFunction,Plated,1,2,PTH
FMAT,2
METRIC
; #@! TA.AperFunction,Plated,PTH,ViaDrill
T1C0.300
; #@! TA.AperFunction,Plated,PTH,ComponentDrill
T2C0.600
; #@! TA.AperFunction,Plated,PTH,ComponentDrill
T3C1.000
; #@! TA.AperFunction,Plated,PTH,ComponentDrill
T4C1.300
; #@! TA.AperFunction,Plated,PTH,ComponentDrill
T5C3.200
%
G90
G05
T1
X94.59Y-122.774
X94.59Y-123.574
X94.793Y-124.714
X95.312Y-90.679
X95.352Y-136.246
X97.587Y-132.486
X98.857Y-128.88
X105.291Y-121.932
X105.461Y-107.798
X106.086Y-115.824
X106.086Y-122.022
X106.121Y-133.096
X106.702Y-125.159
X107.286Y-123.738
X107.648Y-124.451
X107.67Y-125.04
X108.712Y-108.194
X109.593Y-125.282
X109.88Y-90.17
X110.134Y-127.0
X110.541Y-88.951
X110.744Y-136.703
X111.1Y-131.775
X111.324Y-88.789
X111.557Y-107.594
X111.585Y-136.539
X111.963Y-115.265
X112.563Y-119.022
X112.568Y-126.854
X113.1Y-119.615
X114.15Y-124.511
X115.011Y-125.019
X115.011Y-130.505
X115.174Y-121.82
X115.214Y-72.034
X115.773Y-122.907
X116.065Y-132.865
X116.18Y-86.512
X116.211Y-126.238
X116.586Y-122.907
X116.716Y-87.112
X116.738Y-134.976
X117.358Y-124.663
X117.459Y-81.178
X117.754Y-120.815
X117.958Y-124.107
X118.059Y-83.058
X118.11Y-135.992
X118.659Y-77.267
X118.923Y-133.465
X120.802Y-112.776
X121.056Y-114.402
X121.869Y-66.396
X122.631Y-77.267
X123.292Y-120.815
X124.46Y-69.139
X124.562Y-65.786
X125.425Y-117.907
X126.39Y-119.075
X126.695Y-62.602
X126.898Y-120.701
X127.711Y-122.679
X128.608Y-122.679
X132.436Y-53.229
X133.147Y-73.609
X133.147Y-113.741
X134.468Y-104.038
X135.331Y-90.78
X136.006Y-64.602
X136.042Y-103.48
X136.246Y-97.942
X136.296Y-120.447
X136.804Y-52.07
X136.804Y-64.202
X136.804Y-71.476
X137.516Y-119.99
X137.719Y-64.202
X137.719Y-65.786
X138.633Y-101.549
X138.938Y-112.674
X139.436Y-73.21
X139.687Y-105.271
X140.192Y-74.152
X140.208Y-69.393
X140.614Y-103.581
X141.427Y-99.111
X141.529Y-45.212
X141.63Y-54.458
X141.732Y-122.072
X141.884Y-52.476
X142.138Y-75.59
X142.342Y-55.474
X142.392Y-72.339
X142.85Y-53.492
X145.542Y-93.726
X146.253Y-68.58
X146.314Y-69.378
X146.314Y-70.409
X146.914Y-53.137
X147.514Y-58.928
X147.514Y-66.091
X147.514Y-74.32
X148.488Y-55.067
X148.844Y-54.102
X150.927Y-102.972
X152.502Y-106.934
X152.552Y-61.722
X153.975Y-102.464
X154.229Y-99.67
X154.534Y-83.566
X155.956Y-59.842
X155.967Y-58.962
X156.108Y-104.394
X156.708Y-103.784
X157.48Y-62.789
X157.508Y-100.866
X157.988Y-86.919
X158.293Y-82.906
X159.055Y-66.954
X159.807Y-98.847
X159.817Y-62.84
X159.918Y-65.075
X159.951Y-97.647
X160.68Y-58.928
X160.68Y-84.531
X164.948Y-79.096
X165.151Y-62.789
T3
X170.637Y-100.437
X170.637Y-102.977
X170.891Y-89.311
X170.891Y-91.851
T4
X94.112Y-90.673
X94.112Y-95.753
X136.5Y-42.672
X141.58Y-42.672
T5
X93.98Y-56.998
X95.047Y-105.766
X169.469Y-139.852
X170.231Y-39.37
T2
G00X87.845Y-117.092
M15
G01X87.245Y-117.092
M16
G05
G00X87.845Y-125.732
M15
G01X87.245Y-125.732
M16
G05
G00X92.275Y-117.092
M15
G01X91.175Y-117.092
M16
G05
G00X92.275Y-125.732
M15
G01X91.175Y-125.732
M16
G05
M30
